{"glyphs":{"0":{"ha":618,"x_min":38,"x_max":582,"o":"m 258 -18 q 99 44 160 -18 q 38 208 38 107 q 43 272 38 243 q 103 418 57 354 q 218 518 150 482 q 363 554 286 554 q 522 494 463 554 q 582 333 582 435 q 575 268 582 306 q 513 119 560 185 q 400 18 467 54 q 258 -18 333 -18 m 281 7 q 390 74 346 7 q 450 251 433 142 q 457 343 457 293 q 426 481 457 432 q 343 529 396 529 q 232 462 281 529 q 167 283 183 394 q 160 200 160 235 q 191 60 160 114 q 281 7 222 7 z "},"1":{"ha":404,"x_min":6,"x_max":350,"o":"m 11 0 q 6 8 6 0 q 11 17 6 17 q 85 24 60 17 q 122 51 110 31 q 142 113 133 71 l 189 378 q 196 425 196 410 q 175 450 196 450 q 78 417 153 450 l 75 415 q 69 423 71 415 q 72 435 67 431 l 314 553 q 321 553 317 556 q 324 546 325 550 l 244 113 q 240 71 240 88 q 262 27 240 38 q 344 17 283 17 q 350 8 350 17 q 344 0 350 0 q 275 1 301 0 l 179 3 l 82 1 q 11 0 56 0 z "},"2":{"ha":514,"x_min":0,"x_max":460,"o":"m 3 21 q 195 191 131 131 q 293 299 260 251 q 335 394 326 346 q 338 424 338 414 q 317 490 338 464 q 260 515 297 515 q 176 474 214 515 q 100 350 139 432 q 96 349 99 349 q 88 351 92 349 q 85 357 83 353 l 165 569 q 172 572 168 572 q 182 563 183 572 q 176 538 176 547 q 189 525 176 525 q 229 535 200 525 q 278 549 257 544 q 326 554 300 554 q 417 525 385 554 q 450 446 450 496 q 426 357 450 397 q 364 283 401 317 q 260 199 326 249 q 136 100 188 147 q 136 97 131 97 q 305 102 249 97 q 395 124 361 107 q 444 179 429 142 q 453 182 446 183 q 458 175 460 181 l 406 11 q 394 0 403 0 l 13 0 q 3 7 7 0 q 3 21 0 14 z "},"3":{"ha":486,"x_min":-56,"x_max":435,"o":"m 435 425 q 387 283 435 350 q 260 182 339 215 q 365 126 331 169 q 400 21 400 82 q 396 -22 400 1 q 332 -154 385 -86 q 183 -283 279 -222 q -44 -383 88 -343 q -52 -376 -49 -385 q -51 -367 -56 -368 q 179 -215 100 -310 q 275 -25 258 -119 q 279 22 279 0 q 250 113 279 79 q 167 147 221 147 q 111 136 142 147 q 101 145 104 135 q 106 157 99 156 q 252 235 201 182 q 318 379 303 288 q 324 435 324 407 q 260 518 324 518 q 158 477 206 518 q 69 358 110 436 q 64 356 68 356 q 56 358 60 356 q 53 365 51 361 l 135 563 q 139 565 138 565 q 147 563 143 565 q 149 556 150 560 q 144 538 144 543 q 161 524 144 524 q 206 535 169 524 q 253 548 228 542 q 304 554 279 554 q 401 517 368 554 q 435 425 435 481 z "},"4":{"ha":597,"x_min":-21,"x_max":510,"o":"m 507 85 q 510 74 510 85 q 505 31 510 56 q 496 6 500 6 l 407 10 l 367 -219 q 354 -239 364 -235 l 267 -261 q 258 -264 258 -264 q 256 -253 254 -264 l 303 13 q -11 15 218 15 q -19 20 -17 15 q -15 31 -21 25 l 485 560 q 490 561 486 561 q 501 553 504 561 l 419 82 q 507 85 446 82 m 81 76 q 314 79 178 76 l 369 397 l 75 86 q 72 79 71 82 q 81 76 74 76 z "},"5":{"ha":519,"x_min":-44,"x_max":507,"o":"m 492 588 q 496 590 494 590 q 503 588 500 590 q 506 582 507 585 l 458 460 q 442 439 450 443 q 418 435 435 435 l 174 429 q 150 408 158 429 l 107 272 q 338 215 263 271 q 413 65 413 160 q 407 13 413 49 q 283 -193 386 -103 q -32 -382 181 -283 l -33 -382 q -42 -376 -39 -382 q -39 -367 -44 -369 q 193 -196 119 -282 q 282 -11 267 -110 q 288 44 288 28 q 233 182 288 132 q 75 232 178 232 q 67 237 69 232 q 67 249 64 242 l 150 496 q 156 508 153 506 q 169 511 158 510 q 390 540 333 532 q 464 558 446 549 q 492 588 482 567 z "},"6":{"ha":588,"x_min":46,"x_max":629,"o":"m 271 -18 q 105 39 164 -18 q 46 203 46 96 q 54 289 46 243 q 156 542 78 417 q 353 767 233 667 q 619 918 474 867 q 627 912 625 919 q 625 901 629 904 q 407 746 503 842 q 252 538 311 650 q 175 314 193 425 q 167 222 167 267 q 205 70 167 128 q 311 13 243 13 q 385 50 356 13 q 426 161 415 88 q 431 217 431 190 q 408 312 431 276 q 338 347 385 347 q 294 338 315 347 q 244 310 272 329 l 242 308 q 235 313 239 308 q 233 319 232 318 q 397 392 301 392 q 514 349 476 392 q 551 242 551 306 q 547 197 551 218 q 496 88 536 138 q 397 10 456 39 q 271 -18 338 -18 z "},"7":{"ha":542,"x_min":-21,"x_max":542,"o":"m -12 -382 q -18 -379 -15 -383 q -19 -372 -21 -375 l 464 433 q 460 443 469 443 q 207 437 279 443 q 108 413 135 431 q 61 347 82 394 q 56 344 61 344 q 47 347 51 344 q 44 353 43 350 l 131 576 q 135 579 131 579 q 144 576 139 579 q 147 572 149 574 q 143 553 143 560 q 155 540 143 543 q 199 536 167 536 l 531 536 q 539 530 536 536 q 539 518 542 524 l 128 -306 q 96 -339 115 -329 l -12 -382 z "},"8":{"ha":611,"x_min":32,"x_max":575,"o":"m 418 482 q 501 419 471 446 q 553 356 532 393 q 575 268 575 318 q 571 224 575 247 q 511 97 557 151 q 401 12 465 42 q 268 -18 336 -18 q 141 8 194 -18 q 60 77 88 33 q 32 174 32 121 q 106 343 32 263 q 275 468 179 424 q 205 531 229 500 q 181 606 181 563 q 183 633 181 614 q 263 754 197 711 q 404 797 329 797 q 495 776 458 797 q 551 722 532 754 q 569 657 569 690 q 418 482 569 565 m 286 653 q 315 568 286 603 q 400 493 343 533 q 450 564 433 526 q 467 647 467 601 q 443 735 467 699 q 381 771 419 771 q 314 737 342 771 q 286 653 286 703 m 456 183 q 460 228 460 207 q 436 324 460 283 q 382 390 413 365 q 293 456 351 415 q 204 366 239 421 q 158 243 169 311 q 154 199 154 221 q 194 67 154 121 q 307 13 235 13 q 403 59 361 13 q 456 183 444 106 z "},"9":{"ha":589,"x_min":-40,"x_max":540,"o":"m -31 -382 q -38 -376 -36 -383 q -36 -365 -40 -368 q 182 -208 86 -307 q 337 5 278 -108 q 414 222 396 118 q 422 306 422 264 q 384 460 422 399 q 279 522 346 522 q 164 392 185 522 q 160 344 160 367 q 188 233 160 278 q 264 189 217 189 q 302 198 283 189 q 347 228 321 207 q 351 229 349 229 q 358 226 356 229 q 360 219 361 222 q 206 144 296 144 q 82 198 125 144 q 39 321 39 251 q 78 438 39 383 q 183 523 118 492 q 322 554 249 554 q 482 494 424 554 q 540 325 540 433 q 533 247 540 282 q 435 -4 513 121 q 237 -229 358 -129 q -31 -382 115 -329 z "},"\u0000":{"ha":0,"x_min":0,"x_max":0,"o":""},"\r":{"ha":325,"x_min":0,"x_max":0,"o":""}," ":{"ha":325,"x_min":0,"x_max":0,"o":""},"A":{"ha":838,"x_min":-53,"x_max":797,"o":"m 792 17 q 797 8 797 17 q 792 0 797 0 q 724 3 771 0 q 642 6 674 6 q 564 3 611 6 q 499 0 519 0 q 493 8 493 0 q 499 17 493 17 q 563 29 543 17 q 582 74 582 42 q 576 117 582 83 l 518 426 l 315 426 l 181 181 q 142 75 142 113 q 167 30 142 43 q 243 17 192 17 q 248 8 249 17 q 242 0 247 0 q 174 3 224 0 q 81 6 113 6 q 13 3 51 6 q -47 0 -26 0 q -53 8 -53 0 q -47 17 -53 17 q 42 58 -8 17 q 140 183 93 100 l 531 881 q 542 885 533 885 q 550 883 546 885 q 556 879 554 882 l 697 117 q 713 53 706 72 q 737 26 719 35 q 792 17 754 17 m 335 461 l 513 461 l 467 701 l 335 461 z "},"Á":{"ha":838,"x_min":-53,"x_max":797,"o":"m 792 17 q 797 8 797 17 q 792 0 797 0 q 724 3 771 0 q 642 6 674 6 q 564 3 611 6 q 499 0 519 0 q 493 8 493 0 q 499 17 493 17 q 563 29 543 17 q 582 74 582 42 q 576 117 582 83 l 518 426 l 315 426 l 181 181 q 142 75 142 113 q 167 30 142 43 q 243 17 192 17 q 248 8 249 17 q 242 0 247 0 q 174 3 224 0 q 81 6 113 6 q 13 3 51 6 q -47 0 -26 0 q -53 8 -53 0 q -47 17 -53 17 q 42 58 -8 17 q 140 183 93 100 l 531 881 q 542 885 533 885 q 550 883 546 885 q 556 879 554 882 l 697 117 q 713 53 706 72 q 737 26 719 35 q 792 17 754 17 m 335 461 l 513 461 l 467 701 l 335 461 m 465 942 q 458 948 460 942 q 461 957 457 954 q 583 1044 506 983 q 653 1097 647 1093 q 697 1092 660 1103 q 763 1067 735 1081 q 776 1050 792 1053 q 619 1003 690 1029 q 468 943 547 978 l 465 942 z "},"Ă":{"ha":838,"x_min":-53,"x_max":797,"o":"m 792 17 q 797 8 797 17 q 792 0 797 0 q 724 3 771 0 q 642 6 674 6 q 564 3 611 6 q 499 0 519 0 q 493 8 493 0 q 499 17 493 17 q 563 29 543 17 q 582 74 582 42 q 576 117 582 83 l 518 426 l 315 426 l 181 181 q 142 75 142 113 q 167 30 142 43 q 243 17 192 17 q 248 8 249 17 q 242 0 247 0 q 174 3 224 0 q 81 6 113 6 q 13 3 51 6 q -47 0 -26 0 q -53 8 -53 0 q -47 17 -53 17 q 42 58 -8 17 q 140 183 93 100 l 531 881 q 542 885 533 885 q 550 883 546 885 q 556 879 554 882 l 697 117 q 713 53 706 72 q 737 26 719 35 q 792 17 754 17 m 335 461 l 513 461 l 467 701 l 335 461 m 546 924 q 451 959 488 924 q 414 1054 414 994 q 442 1069 414 1063 q 496 1076 471 1076 q 514 1072 514 1076 q 542 1015 518 1036 q 601 994 567 994 q 697 1067 663 994 q 706 1071 701 1071 q 717 1068 711 1071 q 721 1063 722 1065 q 644 960 692 996 q 546 924 597 924 z "},"Ắ":{"ha":838,"x_min":-53,"x_max":810,"o":"m 792 17 q 797 8 797 17 q 792 0 797 0 q 724 3 771 0 q 642 6 674 6 q 564 3 611 6 q 499 0 519 0 q 493 8 493 0 q 499 17 493 17 q 563 29 543 17 q 582 74 582 42 q 576 117 582 83 l 518 426 l 315 426 l 181 181 q 142 75 142 113 q 167 30 142 43 q 243 17 192 17 q 248 8 249 17 q 242 0 247 0 q 174 3 224 0 q 81 6 113 6 q 13 3 51 6 q -47 0 -26 0 q -53 8 -53 0 q -47 17 -53 17 q 42 58 -8 17 q 140 183 93 100 l 531 881 q 542 885 533 885 q 550 883 546 885 q 556 879 554 882 l 697 117 q 713 53 706 72 q 737 26 719 35 q 792 17 754 17 m 335 461 l 513 461 l 467 701 l 335 461 m 542 924 q 447 959 483 924 q 410 1054 410 994 q 438 1069 410 1063 q 492 1076 467 1076 q 510 1072 510 1076 q 538 1015 514 1036 q 597 994 563 994 q 693 1067 658 994 q 701 1071 697 1071 q 713 1068 707 1071 q 717 1063 718 1065 q 640 960 688 996 q 542 924 593 924 m 581 1056 q 574 1062 576 1056 q 575 1072 572 1068 q 689 1213 653 1161 q 730 1210 694 1221 q 792 1185 765 1200 q 806 1165 819 1171 q 583 1057 693 1125 l 581 1056 z "},"Ặ":{"ha":838,"x_min":-53,"x_max":797,"o":"m 792 17 q 797 8 797 17 q 792 0 797 0 q 724 3 771 0 q 642 6 674 6 q 564 3 611 6 q 499 0 519 0 q 493 8 493 0 q 499 17 493 17 q 563 29 543 17 q 582 74 582 42 q 576 117 582 83 l 518 426 l 315 426 l 181 181 q 142 75 142 113 q 167 30 142 43 q 243 17 192 17 q 248 8 249 17 q 242 0 247 0 q 174 3 224 0 q 81 6 113 6 q 13 3 51 6 q -47 0 -26 0 q -53 8 -53 0 q -47 17 -53 17 q 42 58 -8 17 q 140 183 93 100 l 531 881 q 542 885 533 885 q 550 883 546 885 q 556 879 554 882 l 697 117 q 713 53 706 72 q 737 26 719 35 q 792 17 754 17 m 335 461 l 513 461 l 467 701 l 335 461 m 347 -275 q 293 -256 313 -275 q 274 -201 274 -236 q 294 -152 274 -171 q 347 -133 314 -133 q 399 -152 381 -133 q 417 -201 417 -171 q 399 -256 417 -236 q 347 -275 381 -275 m 546 924 q 451 959 488 924 q 414 1054 414 994 q 442 1069 414 1063 q 496 1076 471 1076 q 514 1072 514 1076 q 542 1015 518 1036 q 601 994 567 994 q 697 1067 663 994 q 706 1071 701 1071 q 717 1068 711 1071 q 721 1063 722 1065 q 644 960 692 996 q 546 924 597 924 z "},"Ằ":{"ha":838,"x_min":-53,"x_max":797,"o":"m 792 17 q 797 8 797 17 q 792 0 797 0 q 724 3 771 0 q 642 6 674 6 q 564 3 611 6 q 499 0 519 0 q 493 8 493 0 q 499 17 493 17 q 563 29 543 17 q 582 74 582 42 q 576 117 582 83 l 518 426 l 315 426 l 181 181 q 142 75 142 113 q 167 30 142 43 q 243 17 192 17 q 248 8 249 17 q 242 0 247 0 q 174 3 224 0 q 81 6 113 6 q 13 3 51 6 q -47 0 -26 0 q -53 8 -53 0 q -47 17 -53 17 q 42 58 -8 17 q 140 183 93 100 l 531 881 q 542 885 533 885 q 550 883 546 885 q 556 879 554 882 l 697 117 q 713 53 706 72 q 737 26 719 35 q 792 17 754 17 m 335 461 l 513 461 l 467 701 l 335 461 m 553 924 q 458 959 494 924 q 421 1054 421 994 q 449 1069 421 1063 q 503 1076 478 1076 q 521 1072 521 1076 q 549 1015 525 1036 q 608 994 574 994 q 704 1067 669 994 q 713 1071 708 1071 q 724 1068 718 1071 q 728 1063 729 1065 q 651 960 699 996 q 553 924 604 924 m 638 1057 q 458 1165 553 1124 q 476 1185 444 1171 q 548 1210 508 1200 q 590 1213 588 1221 q 651 1072 614 1140 l 651 1069 q 647 1060 651 1064 q 638 1057 642 1056 z "},"Ẳ":{"ha":838,"x_min":-53,"x_max":797,"o":"m 792 17 q 797 8 797 17 q 792 0 797 0 q 724 3 771 0 q 642 6 674 6 q 564 3 611 6 q 499 0 519 0 q 493 8 493 0 q 499 17 493 17 q 563 29 543 17 q 582 74 582 42 q 576 117 582 83 l 518 426 l 315 426 l 181 181 q 142 75 142 113 q 167 30 142 43 q 243 17 192 17 q 248 8 249 17 q 242 0 247 0 q 174 3 224 0 q 81 6 113 6 q 13 3 51 6 q -47 0 -26 0 q -53 8 -53 0 q -47 17 -53 17 q 42 58 -8 17 q 140 183 93 100 l 531 881 q 542 885 533 885 q 550 883 546 885 q 556 879 554 882 l 697 117 q 713 53 706 72 q 737 26 719 35 q 792 17 754 17 m 335 461 l 513 461 l 467 701 l 335 461 m 542 924 q 447 959 483 924 q 410 1054 410 994 q 438 1069 410 1063 q 492 1076 467 1076 q 510 1072 510 1076 q 538 1015 514 1036 q 597 994 563 994 q 693 1067 658 994 q 701 1071 697 1071 q 713 1068 707 1071 q 717 1063 718 1065 q 640 960 688 996 q 542 924 593 924 m 588 1047 q 593 1081 586 1065 q 614 1118 600 1097 q 633 1151 626 1138 q 639 1179 639 1164 q 628 1204 639 1196 q 601 1213 617 1213 q 574 1207 588 1213 l 571 1206 q 563 1210 565 1206 q 565 1218 561 1215 q 654 1243 611 1243 q 701 1230 685 1243 q 718 1194 718 1217 q 702 1153 718 1171 q 656 1111 686 1135 q 617 1076 629 1090 q 603 1047 604 1063 q 596 1044 603 1044 q 588 1047 589 1043 z "},"Ẵ":{"ha":838,"x_min":-53,"x_max":797,"o":"m 792 17 q 797 8 797 17 q 792 0 797 0 q 724 3 771 0 q 642 6 674 6 q 564 3 611 6 q 499 0 519 0 q 493 8 493 0 q 499 17 493 17 q 563 29 543 17 q 582 74 582 42 q 576 117 582 83 l 518 426 l 315 426 l 181 181 q 142 75 142 113 q 167 30 142 43 q 243 17 192 17 q 248 8 249 17 q 242 0 247 0 q 174 3 224 0 q 81 6 113 6 q 13 3 51 6 q -47 0 -26 0 q -53 8 -53 0 q -47 17 -53 17 q 42 58 -8 17 q 140 183 93 100 l 531 881 q 542 885 533 885 q 550 883 546 885 q 556 879 554 882 l 697 117 q 713 53 706 72 q 737 26 719 35 q 792 17 754 17 m 335 461 l 513 461 l 467 701 l 335 461 m 538 924 q 442 959 479 924 q 406 1054 406 994 q 434 1069 406 1063 q 488 1076 463 1076 q 506 1072 506 1076 q 534 1015 510 1036 q 593 994 558 994 q 689 1067 654 994 q 697 1071 693 1071 q 708 1068 703 1071 q 713 1063 714 1065 q 636 960 683 996 q 538 924 589 924 m 400 1115 q 397 1114 400 1114 q 392 1118 394 1114 q 390 1125 389 1122 q 453 1199 422 1169 q 524 1229 485 1229 q 590 1215 540 1229 q 693 1194 658 1194 q 738 1203 721 1194 q 776 1232 756 1211 l 778 1232 q 785 1228 782 1232 q 786 1222 788 1225 q 719 1139 746 1160 q 660 1118 693 1118 q 581 1135 636 1118 q 544 1144 575 1136 q 483 1153 513 1153 q 442 1147 456 1153 q 417 1130 428 1140 q 400 1115 406 1119 z "},"Ǎ":{"ha":838,"x_min":-53,"x_max":797,"o":"m 792 17 q 797 8 797 17 q 792 0 797 0 q 724 3 771 0 q 642 6 674 6 q 564 3 611 6 q 499 0 519 0 q 493 8 493 0 q 499 17 493 17 q 563 29 543 17 q 582 74 582 42 q 576 117 582 83 l 518 426 l 315 426 l 181 181 q 142 75 142 113 q 167 30 142 43 q 243 17 192 17 q 248 8 249 17 q 242 0 247 0 q 174 3 224 0 q 81 6 113 6 q 13 3 51 6 q -47 0 -26 0 q -53 8 -53 0 q -47 17 -53 17 q 42 58 -8 17 q 140 183 93 100 l 531 881 q 542 885 533 885 q 550 883 546 885 q 556 879 554 882 l 697 117 q 713 53 706 72 q 737 26 719 35 q 792 17 754 17 m 335 461 l 513 461 l 467 701 l 335 461 m 424 1090 l 424 1092 q 428 1098 424 1094 q 435 1100 432 1101 l 560 1038 l 710 1100 q 717 1097 713 1101 q 718 1090 722 1092 l 561 938 q 547 932 556 932 q 535 938 540 932 l 424 1090 z "},"Â":{"ha":838,"x_min":-53,"x_max":797,"o":"m 792 17 q 797 8 797 17 q 792 0 797 0 q 724 3 771 0 q 642 6 674 6 q 564 3 611 6 q 499 0 519 0 q 493 8 493 0 q 499 17 493 17 q 563 29 543 17 q 582 74 582 42 q 576 117 582 83 l 518 426 l 315 426 l 181 181 q 142 75 142 113 q 167 30 142 43 q 243 17 192 17 q 248 8 249 17 q 242 0 247 0 q 174 3 224 0 q 81 6 113 6 q 13 3 51 6 q -47 0 -26 0 q -53 8 -53 0 q -47 17 -53 17 q 42 58 -8 17 q 140 183 93 100 l 531 881 q 542 885 533 885 q 550 883 546 885 q 556 879 554 882 l 697 117 q 713 53 706 72 q 737 26 719 35 q 792 17 754 17 m 335 461 l 513 461 l 467 701 l 335 461 m 410 917 q 403 920 406 917 q 403 926 400 924 l 560 1078 q 572 1085 564 1085 q 585 1078 581 1085 l 697 926 l 697 925 q 694 917 697 921 q 688 917 690 914 l 560 978 l 411 917 l 410 917 z "},"Ấ":{"ha":838,"x_min":-53,"x_max":886,"o":"m 792 17 q 797 8 797 17 q 792 0 797 0 q 724 3 771 0 q 642 6 674 6 q 564 3 611 6 q 499 0 519 0 q 493 8 493 0 q 499 17 493 17 q 563 29 543 17 q 582 74 582 42 q 576 117 582 83 l 518 426 l 315 426 l 181 181 q 142 75 142 113 q 167 30 142 43 q 243 17 192 17 q 248 8 249 17 q 242 0 247 0 q 174 3 224 0 q 81 6 113 6 q 13 3 51 6 q -47 0 -26 0 q -53 8 -53 0 q -47 17 -53 17 q 42 58 -8 17 q 140 183 93 100 l 531 881 q 542 885 533 885 q 550 883 546 885 q 556 879 554 882 l 697 117 q 713 53 706 72 q 737 26 719 35 q 792 17 754 17 m 335 461 l 513 461 l 467 701 l 335 461 m 408 917 q 401 920 404 917 q 401 926 399 924 l 558 1078 q 571 1085 563 1085 q 583 1078 579 1085 l 696 926 l 696 925 q 692 917 696 921 q 686 917 689 914 l 558 978 l 410 917 l 408 917 m 657 1001 q 651 1008 653 1001 q 651 1018 649 1014 q 765 1158 729 1107 q 806 1156 771 1167 q 869 1131 842 1146 q 882 1111 896 1117 q 660 1003 769 1071 l 657 1001 z "},"Ậ":{"ha":838,"x_min":-53,"x_max":797,"o":"m 792 17 q 797 8 797 17 q 792 0 797 0 q 724 3 771 0 q 642 6 674 6 q 564 3 611 6 q 499 0 519 0 q 493 8 493 0 q 499 17 493 17 q 563 29 543 17 q 582 74 582 42 q 576 117 582 83 l 518 426 l 315 426 l 181 181 q 142 75 142 113 q 167 30 142 43 q 243 17 192 17 q 248 8 249 17 q 242 0 247 0 q 174 3 224 0 q 81 6 113 6 q 13 3 51 6 q -47 0 -26 0 q -53 8 -53 0 q -47 17 -53 17 q 42 58 -8 17 q 140 183 93 100 l 531 881 q 542 885 533 885 q 550 883 546 885 q 556 879 554 882 l 697 117 q 713 53 706 72 q 737 26 719 35 q 792 17 754 17 m 335 461 l 513 461 l 467 701 l 335 461 m 347 -275 q 293 -256 313 -275 q 274 -201 274 -236 q 294 -152 274 -171 q 347 -133 314 -133 q 399 -152 381 -133 q 417 -201 417 -171 q 399 -256 417 -236 q 347 -275 381 -275 m 410 917 q 403 920 406 917 q 403 926 400 924 l 560 1078 q 572 1085 564 1085 q 585 1078 581 1085 l 697 926 l 697 925 q 694 917 697 921 q 688 917 690 914 l 560 978 l 411 917 l 410 917 z "},"Ầ":{"ha":838,"x_min":-53,"x_max":797,"o":"m 792 17 q 797 8 797 17 q 792 0 797 0 q 724 3 771 0 q 642 6 674 6 q 564 3 611 6 q 499 0 519 0 q 493 8 493 0 q 499 17 493 17 q 563 29 543 17 q 582 74 582 42 q 576 117 582 83 l 518 426 l 315 426 l 181 181 q 142 75 142 113 q 167 30 142 43 q 243 17 192 17 q 248 8 249 17 q 242 0 247 0 q 174 3 224 0 q 81 6 113 6 q 13 3 51 6 q -47 0 -26 0 q -53 8 -53 0 q -47 17 -53 17 q 42 58 -8 17 q 140 183 93 100 l 531 881 q 542 885 533 885 q 550 883 546 885 q 556 879 554 882 l 697 117 q 713 53 706 72 q 737 26 719 35 q 792 17 754 17 m 335 461 l 513 461 l 467 701 l 335 461 m 407 917 q 400 920 403 917 q 400 926 397 924 l 557 1078 q 569 1085 561 1085 q 582 1078 578 1085 l 694 926 l 694 925 q 691 917 694 921 q 685 917 688 914 l 557 978 l 408 917 l 407 917 m 779 988 q 600 1096 694 1054 q 618 1116 586 1101 q 690 1141 650 1131 q 732 1143 729 1151 q 793 1003 756 1071 l 793 1000 q 788 990 793 994 q 779 988 783 986 z "},"Ẩ":{"ha":838,"x_min":-53,"x_max":797,"o":"m 792 17 q 797 8 797 17 q 792 0 797 0 q 724 3 771 0 q 642 6 674 6 q 564 3 611 6 q 499 0 519 0 q 493 8 493 0 q 499 17 493 17 q 563 29 543 17 q 582 74 582 42 q 576 117 582 83 l 518 426 l 315 426 l 181 181 q 142 75 142 113 q 167 30 142 43 q 243 17 192 17 q 248 8 249 17 q 242 0 247 0 q 174 3 224 0 q 81 6 113 6 q 13 3 51 6 q -47 0 -26 0 q -53 8 -53 0 q -47 17 -53 17 q 42 58 -8 17 q 140 183 93 100 l 531 881 q 542 885 533 885 q 550 883 546 885 q 556 879 554 882 l 697 117 q 713 53 706 72 q 737 26 719 35 q 792 17 754 17 m 335 461 l 513 461 l 467 701 l 335 461 m 406 917 q 399 920 401 917 q 399 926 396 924 l 556 1078 q 568 1085 560 1085 q 581 1078 576 1085 l 693 926 l 693 925 q 690 917 693 921 q 683 917 686 914 l 556 978 l 407 917 l 406 917 m 661 993 q 667 1027 660 1011 q 688 1064 674 1043 q 706 1097 700 1083 q 713 1125 713 1110 q 701 1150 713 1142 q 675 1158 690 1158 q 647 1153 661 1158 l 644 1151 q 637 1156 639 1151 q 639 1164 635 1161 q 728 1189 685 1189 q 775 1176 758 1189 q 792 1140 792 1163 q 776 1099 792 1117 q 729 1057 760 1081 q 690 1022 703 1036 q 676 993 678 1008 q 669 990 676 990 q 661 993 663 989 z "},"Ẫ":{"ha":838,"x_min":-53,"x_max":797,"o":"m 792 17 q 797 8 797 17 q 792 0 797 0 q 724 3 771 0 q 642 6 674 6 q 564 3 611 6 q 499 0 519 0 q 493 8 493 0 q 499 17 493 17 q 563 29 543 17 q 582 74 582 42 q 576 117 582 83 l 518 426 l 315 426 l 181 181 q 142 75 142 113 q 167 30 142 43 q 243 17 192 17 q 248 8 249 17 q 242 0 247 0 q 174 3 224 0 q 81 6 113 6 q 13 3 51 6 q -47 0 -26 0 q -53 8 -53 0 q -47 17 -53 17 q 42 58 -8 17 q 140 183 93 100 l 531 881 q 542 885 533 885 q 550 883 546 885 q 556 879 554 882 l 697 117 q 713 53 706 72 q 737 26 719 35 q 792 17 754 17 m 335 461 l 513 461 l 467 701 l 335 461 m 399 917 q 392 920 394 917 q 392 926 389 924 l 549 1078 q 561 1085 553 1085 q 574 1078 569 1085 l 686 926 l 686 925 q 683 917 686 921 q 676 917 679 914 l 549 978 l 400 917 l 399 917 m 399 1096 q 392 1099 394 1096 q 390 1106 389 1103 q 522 1210 460 1210 q 590 1196 538 1210 q 693 1175 658 1175 q 738 1183 721 1175 q 775 1213 754 1192 q 778 1214 775 1214 q 783 1210 781 1214 q 785 1203 786 1206 q 718 1121 744 1142 q 658 1100 692 1100 q 579 1115 631 1100 q 530 1128 556 1122 q 482 1133 504 1133 q 438 1126 451 1133 q 400 1096 424 1118 l 399 1096 z "},"Ä":{"ha":838,"x_min":-53,"x_max":797,"o":"m 792 17 q 797 8 797 17 q 792 0 797 0 q 724 3 771 0 q 642 6 674 6 q 564 3 611 6 q 499 0 519 0 q 493 8 493 0 q 499 17 493 17 q 563 29 543 17 q 582 74 582 42 q 576 117 582 83 l 518 426 l 315 426 l 181 181 q 142 75 142 113 q 167 30 142 43 q 243 17 192 17 q 248 8 249 17 q 242 0 247 0 q 174 3 224 0 q 81 6 113 6 q 13 3 51 6 q -47 0 -26 0 q -53 8 -53 0 q -47 17 -53 17 q 42 58 -8 17 q 140 183 93 100 l 531 881 q 542 885 533 885 q 550 883 546 885 q 556 879 554 882 l 697 117 q 713 53 706 72 q 737 26 719 35 q 792 17 754 17 m 335 461 l 513 461 l 467 701 l 335 461 m 461 983 q 410 1001 429 983 q 392 1053 392 1019 q 410 1101 392 1083 q 461 1119 429 1119 q 510 1102 493 1119 q 528 1053 528 1085 q 510 1001 528 1019 q 461 983 493 983 m 679 983 q 627 1001 646 983 q 608 1053 608 1019 q 627 1102 608 1085 q 679 1119 646 1119 q 727 1102 710 1119 q 744 1053 744 1085 q 728 1001 744 1019 q 679 983 711 983 z "},"Ạ":{"ha":838,"x_min":-53,"x_max":797,"o":"m 792 17 q 797 8 797 17 q 792 0 797 0 q 724 3 771 0 q 642 6 674 6 q 564 3 611 6 q 499 0 519 0 q 493 8 493 0 q 499 17 493 17 q 563 29 543 17 q 582 74 582 42 q 576 117 582 83 l 518 426 l 315 426 l 181 181 q 142 75 142 113 q 167 30 142 43 q 243 17 192 17 q 248 8 249 17 q 242 0 247 0 q 174 3 224 0 q 81 6 113 6 q 13 3 51 6 q -47 0 -26 0 q -53 8 -53 0 q -47 17 -53 17 q 42 58 -8 17 q 140 183 93 100 l 531 881 q 542 885 533 885 q 550 883 546 885 q 556 879 554 882 l 697 117 q 713 53 706 72 q 737 26 719 35 q 792 17 754 17 m 335 461 l 513 461 l 467 701 l 335 461 m 347 -275 q 293 -256 313 -275 q 274 -201 274 -236 q 294 -152 274 -171 q 347 -133 314 -133 q 399 -152 381 -133 q 417 -201 417 -171 q 399 -256 417 -236 q 347 -275 381 -275 z "},"À":{"ha":838,"x_min":-53,"x_max":797,"o":"m 792 17 q 797 8 797 17 q 792 0 797 0 q 724 3 771 0 q 642 6 674 6 q 564 3 611 6 q 499 0 519 0 q 493 8 493 0 q 499 17 493 17 q 563 29 543 17 q 582 74 582 42 q 576 117 582 83 l 518 426 l 315 426 l 181 181 q 142 75 142 113 q 167 30 142 43 q 243 17 192 17 q 248 8 249 17 q 242 0 247 0 q 174 3 224 0 q 81 6 113 6 q 13 3 51 6 q -47 0 -26 0 q -53 8 -53 0 q -47 17 -53 17 q 42 58 -8 17 q 140 183 93 100 l 531 881 q 542 885 533 885 q 550 883 546 885 q 556 879 554 882 l 697 117 q 713 53 706 72 q 737 26 719 35 q 792 17 754 17 m 335 461 l 513 461 l 467 701 l 335 461 m 664 957 q 536 1006 593 986 q 400 1050 479 1026 q 415 1068 383 1054 q 489 1092 447 1082 q 538 1096 531 1101 q 638 1003 579 1053 q 676 969 651 992 q 678 965 678 968 q 674 958 678 961 q 664 957 669 956 z "},"Ả":{"ha":838,"x_min":-53,"x_max":797,"o":"m 792 17 q 797 8 797 17 q 792 0 797 0 q 724 3 771 0 q 642 6 674 6 q 564 3 611 6 q 499 0 519 0 q 493 8 493 0 q 499 17 493 17 q 563 29 543 17 q 582 74 582 42 q 576 117 582 83 l 518 426 l 315 426 l 181 181 q 142 75 142 113 q 167 30 142 43 q 243 17 192 17 q 248 8 249 17 q 242 0 247 0 q 174 3 224 0 q 81 6 113 6 q 13 3 51 6 q -47 0 -26 0 q -53 8 -53 0 q -47 17 -53 17 q 42 58 -8 17 q 140 183 93 100 l 531 881 q 542 885 533 885 q 550 883 546 885 q 556 879 554 882 l 697 117 q 713 53 706 72 q 737 26 719 35 q 792 17 754 17 m 335 461 l 513 461 l 467 701 l 335 461 m 550 906 q 542 902 550 903 q 533 906 535 901 q 532 929 532 914 q 538 972 532 953 q 558 1018 544 990 q 577 1060 571 1043 q 583 1097 583 1078 q 540 1143 583 1143 q 494 1132 519 1143 l 492 1131 q 485 1135 488 1131 q 485 1143 482 1140 q 592 1179 533 1179 q 659 1160 635 1179 q 683 1108 683 1140 q 665 1056 683 1081 q 613 999 647 1032 q 565 949 581 969 q 550 906 549 928 z "},"Ā":{"ha":838,"x_min":-53,"x_max":797,"o":"m 792 17 q 797 8 797 17 q 792 0 797 0 q 724 3 771 0 q 642 6 674 6 q 564 3 611 6 q 499 0 519 0 q 493 8 493 0 q 499 17 493 17 q 563 29 543 17 q 582 74 582 42 q 576 117 582 83 l 518 426 l 315 426 l 181 181 q 142 75 142 113 q 167 30 142 43 q 243 17 192 17 q 248 8 249 17 q 242 0 247 0 q 174 3 224 0 q 81 6 113 6 q 13 3 51 6 q -47 0 -26 0 q -53 8 -53 0 q -47 17 -53 17 q 42 58 -8 17 q 140 183 93 100 l 531 881 q 542 885 533 885 q 550 883 546 885 q 556 879 554 882 l 697 117 q 713 53 706 72 q 737 26 719 35 q 792 17 754 17 m 335 461 l 513 461 l 467 701 l 335 461 m 410 992 q 401 999 404 992 q 399 1017 399 1007 q 401 1034 399 1026 q 410 1042 404 1042 l 732 1042 q 741 1034 738 1042 q 744 1017 744 1026 q 741 999 744 1007 q 732 992 738 992 l 410 992 z "},"Ą":{"ha":838,"x_min":-53,"x_max":797,"o":"m 792 17 q 797 8 797 17 q 792 0 797 0 l 672 1 q 581 -28 624 1 q 515 -106 539 -57 q 490 -214 490 -156 q 517 -295 490 -265 q 596 -325 544 -325 q 633 -319 619 -325 q 663 -301 646 -314 l 665 -300 q 669 -305 668 -300 q 668 -312 671 -310 q 597 -365 631 -349 q 524 -382 563 -382 q 427 -352 465 -382 q 389 -264 389 -322 q 390 -242 389 -250 q 422 -156 397 -193 q 490 -72 446 -119 q 557 10 536 -22 q 578 86 578 43 q 575 117 578 94 l 518 426 l 317 426 l 182 181 q 143 74 143 111 q 168 30 143 43 q 243 17 193 17 q 248 8 249 17 q 242 0 247 0 q 174 3 224 0 q 81 6 113 6 q 13 3 51 6 q -47 0 -26 0 q -53 8 -53 0 q -47 17 -53 17 q 44 58 -7 17 q 142 183 96 99 l 531 881 q 542 885 533 885 q 550 883 546 885 q 556 879 554 882 l 697 121 q 726 38 707 58 q 792 17 746 17 m 336 461 l 511 461 l 467 701 l 336 461 z "},"Å":{"ha":838,"x_min":-53,"x_max":797,"o":"m 792 17 q 797 8 797 17 q 792 0 797 0 q 724 3 771 0 q 642 6 674 6 q 564 3 611 6 q 499 0 519 0 q 493 8 493 0 q 499 17 493 17 q 563 29 543 17 q 582 74 582 42 q 576 117 582 83 l 518 426 l 315 426 l 181 181 q 142 75 142 113 q 167 30 142 43 q 243 17 192 17 q 248 8 249 17 q 242 0 247 0 q 174 3 224 0 q 81 6 113 6 q 13 3 51 6 q -47 0 -26 0 q -53 8 -53 0 q -47 17 -53 17 q 42 58 -8 17 q 140 183 93 100 l 531 881 q 542 885 533 885 q 550 883 546 885 q 556 879 554 882 l 697 117 q 713 53 706 72 q 737 26 719 35 q 792 17 754 17 m 335 461 l 513 461 l 467 701 l 335 461 m 547 922 q 448 955 485 922 q 411 1033 411 988 q 457 1112 411 1083 q 560 1140 503 1140 q 655 1108 615 1140 q 694 1029 694 1076 q 649 951 694 981 q 547 922 604 922 m 568 939 q 607 1006 607 939 q 585 1088 607 1053 q 532 1122 563 1122 q 499 1060 499 1122 q 517 976 499 1014 q 568 939 536 939 z "},"Ǻ":{"ha":838,"x_min":-53,"x_max":797,"o":"m 792 17 q 797 8 797 17 q 792 0 797 0 q 724 3 771 0 q 642 6 674 6 q 564 3 611 6 q 499 0 519 0 q 493 8 493 0 q 499 17 493 17 q 563 29 543 17 q 582 74 582 42 q 576 117 582 83 l 518 426 l 315 426 l 181 181 q 142 75 142 113 q 167 30 142 43 q 243 17 192 17 q 248 8 249 17 q 242 0 247 0 q 174 3 224 0 q 81 6 113 6 q 13 3 51 6 q -47 0 -26 0 q -53 8 -53 0 q -47 17 -53 17 q 42 58 -8 17 q 140 183 93 100 l 531 881 q 542 885 533 885 q 550 883 546 885 q 556 879 554 882 l 697 117 q 713 53 706 72 q 737 26 719 35 q 792 17 754 17 m 335 461 l 513 461 l 467 701 l 335 461 m 486 1139 q 478 1145 481 1139 q 482 1153 476 1151 l 658 1249 q 693 1238 664 1253 q 744 1207 722 1224 q 757 1189 767 1190 q 581 1159 661 1176 q 489 1139 501 1142 l 486 1139 m 560 933 q 471 961 504 933 q 438 1028 438 989 q 480 1094 438 1069 q 574 1119 522 1119 q 669 1092 629 1119 q 708 1025 708 1064 q 663 958 708 983 q 560 933 618 933 m 582 951 q 618 1000 618 951 q 599 1072 618 1042 q 549 1101 579 1101 q 522 1090 532 1101 q 513 1056 513 1078 q 531 983 513 1015 q 582 951 550 951 z "},"Ã":{"ha":838,"x_min":-53,"x_max":797,"o":"m 792 17 q 797 8 797 17 q 792 0 797 0 q 724 3 771 0 q 642 6 674 6 q 564 3 611 6 q 499 0 519 0 q 493 8 493 0 q 499 17 493 17 q 563 29 543 17 q 582 74 582 42 q 576 117 582 83 l 518 426 l 315 426 l 181 181 q 142 75 142 113 q 167 30 142 43 q 243 17 192 17 q 248 8 249 17 q 242 0 247 0 q 174 3 224 0 q 81 6 113 6 q 13 3 51 6 q -47 0 -26 0 q -53 8 -53 0 q -47 17 -53 17 q 42 58 -8 17 q 140 183 93 100 l 531 881 q 542 885 533 885 q 550 883 546 885 q 556 879 554 882 l 697 117 q 713 53 706 72 q 737 26 719 35 q 792 17 754 17 m 335 461 l 513 461 l 467 701 l 335 461 m 385 957 q 382 956 385 956 q 376 960 379 956 q 375 967 374 964 q 438 1041 407 1011 q 508 1071 469 1071 q 575 1057 525 1071 q 678 1036 643 1036 q 723 1044 706 1036 q 761 1074 740 1053 l 763 1074 q 769 1070 767 1074 q 771 1064 772 1067 q 704 981 731 1001 q 644 960 678 960 q 565 976 621 960 q 528 986 560 978 q 468 994 497 994 q 426 988 440 994 q 401 972 413 982 q 385 957 390 961 z "},"Æ":{"ha":1071,"x_min":-85,"x_max":1065,"o":"m 1054 868 q 1063 865 1061 868 q 1064 856 1065 863 l 1035 674 q 1026 670 1033 668 q 1019 675 1018 672 q 974 802 1017 756 q 858 849 932 849 l 825 849 q 753 827 775 849 q 725 754 732 806 l 689 469 l 825 469 q 918 494 886 469 q 963 574 950 518 q 969 578 963 578 q 976 576 972 578 q 978 571 979 574 q 961 482 972 529 l 956 451 q 946 388 950 424 q 940 355 943 374 q 933 313 938 336 q 926 308 933 308 q 920 310 924 308 q 918 315 917 313 q 921 346 921 338 q 815 433 921 433 l 685 433 l 644 118 q 642 76 642 85 q 657 35 642 46 q 718 25 672 25 l 763 25 q 890 77 828 25 q 992 217 951 129 q 1001 219 993 221 q 1007 214 1008 217 q 961 21 982 133 q 954 4 958 8 q 939 0 950 0 l 421 0 q 415 8 415 0 q 421 17 415 17 q 480 24 460 17 q 510 51 500 32 q 525 113 519 71 l 567 433 l 371 433 l 185 171 q 150 83 150 122 q 175 34 150 51 q 249 17 200 17 q 254 8 254 17 q 249 0 254 0 q 163 3 226 0 q 56 6 90 6 q -18 3 24 6 q -78 0 -54 0 q -85 8 -85 0 q -78 17 -85 17 q 31 52 -21 17 q 150 186 82 88 l 581 800 q 599 836 599 824 q 579 849 599 847 q 501 851 560 851 q 496 860 496 851 q 501 868 496 868 l 1054 868 m 397 469 l 571 469 l 610 771 l 397 469 z "},"Ǽ":{"ha":1071,"x_min":-85,"x_max":1064,"o":"m 1054 868 q 1063 865 1061 868 q 1064 856 1065 863 l 1035 674 q 1026 670 1033 668 q 1019 675 1018 672 q 974 802 1017 756 q 858 849 932 849 l 825 849 q 753 827 775 849 q 725 754 732 806 l 689 469 l 825 469 q 918 494 886 469 q 963 574 950 518 q 969 578 963 578 q 976 576 972 578 q 978 571 979 574 q 961 482 972 529 l 956 451 q 946 388 950 424 q 940 355 943 374 q 933 313 938 336 q 926 308 933 308 q 920 310 924 308 q 918 315 917 313 q 921 346 921 338 q 815 433 921 433 l 685 433 l 644 118 q 642 76 642 85 q 657 35 642 46 q 718 25 672 25 l 763 25 q 890 77 828 25 q 992 217 951 129 q 1001 219 993 221 q 1007 214 1008 217 q 961 21 982 133 q 954 4 958 8 q 939 0 950 0 l 421 0 q 415 8 415 0 q 421 17 415 17 q 480 24 460 17 q 510 51 500 32 q 525 113 519 71 l 567 433 l 371 433 l 185 171 q 150 83 150 122 q 175 34 150 51 q 249 17 200 17 q 254 8 254 17 q 249 0 254 0 q 163 3 226 0 q 56 6 90 6 q -18 3 24 6 q -78 0 -54 0 q -85 8 -85 0 q -78 17 -85 17 q 31 52 -21 17 q 150 186 82 88 l 581 800 q 599 836 599 824 q 579 849 599 847 q 501 851 560 851 q 496 860 496 851 q 501 868 496 868 l 1054 868 m 397 469 l 571 469 l 610 771 l 397 469 m 719 942 q 713 948 714 942 q 715 957 711 954 q 838 1044 760 983 q 907 1097 901 1093 q 951 1092 914 1103 q 1017 1067 989 1081 q 1031 1050 1046 1053 q 873 1003 944 1029 q 722 943 801 978 l 719 942 z "},"Ǣ":{"ha":1071,"x_min":-85,"x_max":1064,"o":"m 1054 868 q 1063 865 1061 868 q 1064 856 1065 863 l 1035 674 q 1026 670 1033 668 q 1019 675 1018 672 q 974 802 1017 756 q 858 849 932 849 l 825 849 q 753 827 775 849 q 725 754 732 806 l 689 469 l 825 469 q 918 494 886 469 q 963 574 950 518 q 969 578 963 578 q 976 576 972 578 q 978 571 979 574 q 961 482 972 529 l 956 451 q 946 388 950 424 q 940 355 943 374 q 933 313 938 336 q 926 308 933 308 q 920 310 924 308 q 918 315 917 313 q 921 346 921 338 q 815 433 921 433 l 685 433 l 644 118 q 642 76 642 85 q 657 35 642 46 q 718 25 672 25 l 763 25 q 890 77 828 25 q 992 217 951 129 q 1001 219 993 221 q 1007 214 1008 217 q 961 21 982 133 q 954 4 958 8 q 939 0 950 0 l 421 0 q 415 8 415 0 q 421 17 415 17 q 480 24 460 17 q 510 51 500 32 q 525 113 519 71 l 567 433 l 371 433 l 185 171 q 150 83 150 122 q 175 34 150 51 q 249 17 200 17 q 254 8 254 17 q 249 0 254 0 q 163 3 226 0 q 56 6 90 6 q -18 3 24 6 q -78 0 -54 0 q -85 8 -85 0 q -78 17 -85 17 q 31 52 -21 17 q 150 186 82 88 l 581 800 q 599 836 599 824 q 579 849 599 847 q 501 851 560 851 q 496 860 496 851 q 501 868 496 868 l 1054 868 m 397 469 l 571 469 l 610 771 l 397 469 m 664 992 q 656 999 658 992 q 653 1017 653 1007 q 656 1034 653 1026 q 664 1042 658 1042 l 986 1042 q 995 1034 992 1042 q 999 1017 999 1026 q 995 999 999 1007 q 986 992 992 992 l 664 992 z "},"B":{"ha":761,"x_min":15,"x_max":707,"o":"m 500 488 q 650 422 596 475 q 704 292 704 369 q 700 246 704 269 q 637 119 686 176 q 513 28 588 61 q 356 -6 439 -6 q 271 -1 317 -6 q 228 1 253 0 q 175 3 204 3 l 83 1 q 18 0 60 0 q 15 8 15 0 q 18 17 15 17 q 101 36 78 17 q 135 115 125 56 l 249 758 q 253 799 253 783 q 235 841 253 831 q 171 851 218 851 q 167 860 167 851 q 171 868 168 868 l 236 867 q 324 864 292 864 q 368 865 349 864 q 401 868 388 867 q 478 872 442 872 q 648 833 589 872 q 707 722 707 793 q 703 685 707 704 q 636 568 688 619 q 500 488 585 517 m 319 489 l 371 488 q 512 544 456 488 q 586 688 568 600 q 592 733 592 721 q 557 818 592 789 q 454 847 522 847 q 394 826 414 847 q 365 749 375 806 l 319 489 m 571 226 q 578 290 578 264 q 531 410 578 367 q 390 453 485 453 q 313 450 343 453 l 253 108 q 249 72 249 88 q 267 33 249 44 q 335 22 286 22 q 571 226 531 22 z "},"C":{"ha":815,"x_min":76,"x_max":822,"o":"m 443 -17 q 165 84 253 -17 q 76 336 76 185 q 86 438 76 379 q 189 674 110 572 q 378 829 268 775 q 604 883 488 883 q 719 871 661 883 q 810 840 778 858 q 820 829 818 835 q 821 808 822 824 l 801 632 q 794 628 800 628 q 786 632 788 628 q 705 793 767 738 q 549 849 643 849 q 336 750 424 849 q 222 481 249 651 q 214 367 214 422 q 242 183 214 265 q 325 55 271 101 q 451 8 379 8 q 744 218 600 8 q 750 221 746 221 q 758 219 754 221 q 760 214 761 217 l 721 57 q 713 34 717 40 q 696 25 708 28 q 443 -17 571 -17 z "},"Ć":{"ha":815,"x_min":76,"x_max":826,"o":"m 443 -17 q 165 84 253 -17 q 76 336 76 185 q 86 438 76 379 q 189 674 110 572 q 378 829 268 775 q 604 883 488 883 q 719 871 661 883 q 810 840 778 858 q 820 829 818 835 q 821 808 822 824 l 801 632 q 794 628 800 628 q 786 632 788 628 q 705 793 767 738 q 549 849 643 849 q 336 750 424 849 q 222 481 249 651 q 214 367 214 422 q 242 183 214 265 q 325 55 271 101 q 451 8 379 8 q 744 218 600 8 q 750 221 746 221 q 758 219 754 221 q 760 214 761 217 l 721 57 q 713 34 717 40 q 696 25 708 28 q 443 -17 571 -17 m 511 942 q 504 948 506 942 q 507 957 503 954 q 629 1044 551 983 q 699 1097 693 1093 q 743 1092 706 1103 q 809 1067 781 1081 q 822 1050 838 1053 q 665 1003 736 1029 q 514 943 593 978 l 511 942 z "},"Č":{"ha":815,"x_min":76,"x_max":821,"o":"m 443 -17 q 165 84 253 -17 q 76 336 76 185 q 86 438 76 379 q 189 674 110 572 q 378 829 268 775 q 604 883 488 883 q 719 871 661 883 q 810 840 778 858 q 820 829 818 835 q 821 808 822 824 l 801 632 q 794 628 800 628 q 786 632 788 628 q 705 793 767 738 q 549 849 643 849 q 336 750 424 849 q 222 481 249 651 q 214 367 214 422 q 242 183 214 265 q 325 55 271 101 q 451 8 379 8 q 744 218 600 8 q 750 221 746 221 q 758 219 754 221 q 760 214 761 217 l 721 57 q 713 34 717 40 q 696 25 708 28 q 443 -17 571 -17 m 469 1090 l 469 1092 q 474 1098 469 1094 q 481 1100 478 1101 l 606 1038 l 756 1100 q 763 1097 758 1101 q 764 1090 768 1092 l 607 938 q 593 932 601 932 q 581 938 586 932 l 469 1090 z "},"Ç":{"ha":815,"x_min":78,"x_max":822,"o":"m 810 840 q 820 829 818 835 q 821 808 822 824 l 801 632 q 794 628 800 628 q 786 632 788 628 q 705 793 767 738 q 549 849 643 849 q 336 750 424 849 q 222 481 249 651 q 214 367 214 422 q 242 183 214 265 q 325 55 271 101 q 451 8 379 8 q 744 218 600 8 q 750 221 746 221 q 758 219 754 221 q 760 214 761 217 l 721 57 q 713 34 717 40 q 696 25 708 28 q 446 -17 572 -17 q 439 -56 439 -35 q 449 -97 439 -79 q 481 -144 458 -115 q 515 -197 504 -175 q 526 -242 526 -219 q 525 -260 526 -254 q 501 -315 521 -286 q 448 -362 482 -343 q 367 -382 414 -382 q 296 -365 325 -382 q 267 -319 267 -347 q 283 -283 267 -296 q 319 -269 299 -269 q 351 -282 340 -269 q 369 -317 361 -294 q 384 -345 376 -335 q 407 -356 392 -356 q 435 -345 424 -356 q 449 -315 446 -335 q 433 -262 450 -292 q 383 -192 415 -232 q 369 -153 369 -174 q 392 -83 369 -128 l 424 -17 q 160 89 243 -11 q 78 338 78 189 q 86 438 78 388 q 189 674 110 572 q 378 829 268 775 q 604 883 488 883 q 719 871 661 883 q 810 840 778 858 z "},"Ĉ":{"ha":815,"x_min":76,"x_max":821,"o":"m 443 -17 q 165 84 253 -17 q 76 336 76 185 q 86 438 76 379 q 189 674 110 572 q 378 829 268 775 q 604 883 488 883 q 719 871 661 883 q 810 840 778 858 q 820 829 818 835 q 821 808 822 824 l 801 632 q 794 628 800 628 q 786 632 788 628 q 705 793 767 738 q 549 849 643 849 q 336 750 424 849 q 222 481 249 651 q 214 367 214 422 q 242 183 214 265 q 325 55 271 101 q 451 8 379 8 q 744 218 600 8 q 750 221 746 221 q 758 219 754 221 q 760 214 761 217 l 721 57 q 713 34 717 40 q 696 25 708 28 q 443 -17 571 -17 m 456 917 q 449 920 451 917 q 449 926 446 924 l 606 1078 q 618 1085 610 1085 q 631 1078 626 1085 l 743 926 l 743 925 q 740 917 743 921 q 733 917 736 914 l 606 978 l 457 917 l 456 917 z "},"Ċ":{"ha":815,"x_min":76,"x_max":821,"o":"m 443 -17 q 165 84 253 -17 q 76 336 76 185 q 86 438 76 379 q 189 674 110 572 q 378 829 268 775 q 604 883 488 883 q 719 871 661 883 q 810 840 778 858 q 820 829 818 835 q 821 808 822 824 l 801 632 q 794 628 800 628 q 786 632 788 628 q 705 793 767 738 q 549 849 643 849 q 336 750 424 849 q 222 481 249 651 q 214 367 214 422 q 242 183 214 265 q 325 55 271 101 q 451 8 379 8 q 744 218 600 8 q 750 221 746 221 q 758 219 754 221 q 760 214 761 217 l 721 57 q 713 34 717 40 q 696 25 708 28 q 443 -17 571 -17 m 614 989 q 561 1008 581 989 q 542 1061 542 1028 q 561 1112 542 1093 q 614 1131 581 1131 q 666 1112 647 1131 q 685 1061 685 1093 q 666 1008 685 1028 q 614 989 647 989 z "},"D":{"ha":872,"x_min":13,"x_max":857,"o":"m 342 -6 q 265 -1 307 -6 q 224 1 249 0 q 167 3 199 3 l 78 1 q 17 0 56 0 q 13 8 13 0 q 17 17 13 17 q 77 24 57 17 q 108 51 97 31 q 126 113 118 71 l 240 756 q 246 800 246 792 q 228 841 246 831 q 165 851 211 851 q 163 860 163 851 q 165 868 163 868 l 229 867 q 318 864 285 864 q 400 868 358 864 q 478 871 456 871 q 678 828 593 871 q 810 709 764 786 q 857 532 857 632 q 849 449 857 493 q 748 212 825 315 q 563 51 671 108 q 342 -6 454 -6 m 335 19 q 503 66 425 19 q 635 203 581 113 q 711 418 689 293 q 721 532 721 471 q 659 758 721 669 q 471 846 597 846 q 390 826 414 846 q 357 753 367 806 l 247 128 q 243 88 243 106 q 264 36 243 53 q 335 19 285 19 z "},"Ð":{"ha":872,"x_min":13,"x_max":857,"o":"m 478 871 q 678 828 593 871 q 810 709 764 786 q 857 532 857 632 q 849 449 857 493 q 748 212 825 315 q 563 51 671 108 q 342 -6 454 -6 q 265 -1 307 -6 q 224 1 249 0 q 167 3 199 3 l 78 1 q 17 0 56 0 q 13 8 13 0 q 17 17 13 17 q 77 24 57 17 q 108 51 97 31 q 126 113 118 71 l 179 414 l 90 414 q 85 432 85 414 q 90 450 85 450 l 186 450 l 240 756 q 246 800 246 792 q 228 841 246 831 q 165 851 211 851 q 163 860 163 851 q 165 868 163 868 l 229 867 q 318 864 285 864 q 400 868 358 864 q 478 871 456 871 m 711 418 q 721 532 721 471 q 659 758 721 669 q 471 846 597 846 q 390 826 414 846 q 357 753 367 806 l 304 450 l 454 450 q 460 432 460 450 q 454 414 460 414 l 297 414 l 247 128 q 243 88 243 106 q 264 36 243 53 q 335 19 285 19 q 503 66 425 19 q 635 203 581 113 q 711 418 689 293 z "},"Ď":{"ha":872,"x_min":13,"x_max":857,"o":"m 342 -6 q 265 -1 307 -6 q 224 1 249 0 q 167 3 199 3 l 78 1 q 17 0 56 0 q 13 8 13 0 q 17 17 13 17 q 77 24 57 17 q 108 51 97 31 q 126 113 118 71 l 240 756 q 246 800 246 792 q 228 841 246 831 q 165 851 211 851 q 163 860 163 851 q 165 868 163 868 l 229 867 q 318 864 285 864 q 400 868 358 864 q 478 871 456 871 q 678 828 593 871 q 810 709 764 786 q 857 532 857 632 q 849 449 857 493 q 748 212 825 315 q 563 51 671 108 q 342 -6 454 -6 m 335 19 q 503 66 425 19 q 635 203 581 113 q 711 418 689 293 q 721 532 721 471 q 659 758 721 669 q 471 846 597 846 q 390 826 414 846 q 357 753 367 806 l 247 128 q 243 88 243 106 q 264 36 243 53 q 335 19 285 19 m 351 1090 l 351 1092 q 356 1098 351 1094 q 363 1100 360 1101 l 488 1038 l 638 1100 q 645 1097 640 1101 q 646 1090 650 1092 l 489 938 q 475 932 483 932 q 463 938 468 932 l 351 1090 z "},"Đ":{"ha":872,"x_min":13,"x_max":857,"o":"m 478 871 q 678 828 593 871 q 810 709 764 786 q 857 532 857 632 q 849 449 857 493 q 748 212 825 315 q 563 51 671 108 q 342 -6 454 -6 q 265 -1 307 -6 q 224 1 249 0 q 167 3 199 3 l 78 1 q 17 0 56 0 q 13 8 13 0 q 17 17 13 17 q 77 24 57 17 q 108 51 97 31 q 126 113 118 71 l 179 414 l 90 414 q 85 432 85 414 q 90 450 85 450 l 186 450 l 240 756 q 246 800 246 792 q 228 841 246 831 q 165 851 211 851 q 163 860 163 851 q 165 868 163 868 l 229 867 q 318 864 285 864 q 400 868 358 864 q 478 871 456 871 m 711 418 q 721 532 721 471 q 659 758 721 669 q 471 846 597 846 q 390 826 414 846 q 357 753 367 806 l 304 450 l 454 450 q 460 432 460 450 q 454 414 460 414 l 297 414 l 247 128 q 243 88 243 106 q 264 36 243 53 q 335 19 285 19 q 503 66 425 19 q 635 203 581 113 q 711 418 689 293 z "},"Ḍ":{"ha":872,"x_min":13,"x_max":857,"o":"m 342 -6 q 265 -1 307 -6 q 224 1 249 0 q 167 3 199 3 l 78 1 q 17 0 56 0 q 13 8 13 0 q 17 17 13 17 q 77 24 57 17 q 108 51 97 31 q 126 113 118 71 l 240 756 q 246 800 246 792 q 228 841 246 831 q 165 851 211 851 q 163 860 163 851 q 165 868 163 868 l 229 867 q 318 864 285 864 q 400 868 358 864 q 478 871 456 871 q 678 828 593 871 q 810 709 764 786 q 857 532 857 632 q 849 449 857 493 q 748 212 825 315 q 563 51 671 108 q 342 -6 454 -6 m 335 19 q 503 66 425 19 q 635 203 581 113 q 711 418 689 293 q 721 532 721 471 q 659 758 721 669 q 471 846 597 846 q 390 826 414 846 q 357 753 367 806 l 247 128 q 243 88 243 106 q 264 36 243 53 q 335 19 285 19 m 357 -275 q 303 -256 322 -275 q 283 -201 283 -236 q 303 -152 283 -171 q 357 -133 324 -133 q 408 -152 390 -133 q 426 -201 426 -171 q 408 -256 426 -236 q 357 -275 390 -275 z "},"Ḏ":{"ha":872,"x_min":13,"x_max":857,"o":"m 342 -6 q 265 -1 307 -6 q 224 1 249 0 q 167 3 199 3 l 78 1 q 17 0 56 0 q 13 8 13 0 q 17 17 13 17 q 77 24 57 17 q 108 51 97 31 q 126 113 118 71 l 240 756 q 246 800 246 792 q 228 841 246 831 q 165 851 211 851 q 163 860 163 851 q 165 868 163 868 l 229 867 q 318 864 285 864 q 400 868 358 864 q 478 871 456 871 q 678 828 593 871 q 810 709 764 786 q 857 532 857 632 q 849 449 857 493 q 748 212 825 315 q 563 51 671 108 q 342 -6 454 -6 m 335 19 q 503 66 425 19 q 635 203 581 113 q 711 418 689 293 q 721 532 721 471 q 659 758 721 669 q 471 846 597 846 q 390 826 414 846 q 357 753 367 806 l 247 128 q 243 88 243 106 q 264 36 243 53 q 335 19 285 19 m 218 -168 q 207 -143 207 -168 q 218 -118 207 -118 l 540 -118 q 549 -126 546 -118 q 553 -143 553 -133 q 549 -160 553 -153 q 540 -168 546 -168 l 218 -168 z "},"E":{"ha":729,"x_min":22,"x_max":726,"o":"m 715 868 q 724 856 726 868 l 694 674 q 689 669 694 669 q 681 672 685 669 q 678 675 678 674 q 635 797 678 751 q 524 842 593 842 l 469 842 q 408 835 428 842 q 381 811 389 829 q 365 754 372 793 l 315 469 l 485 469 q 576 493 544 469 q 619 572 608 517 q 629 578 621 579 q 636 571 638 578 l 624 500 q 614 451 619 481 q 604 388 608 424 q 599 355 601 374 q 592 313 596 336 q 582 308 590 307 q 575 314 574 308 q 578 347 578 326 q 475 433 578 433 l 308 433 l 253 118 q 249 76 249 93 q 265 38 249 47 q 325 28 282 28 l 400 28 q 539 79 471 28 q 651 217 607 131 q 657 219 651 219 q 665 217 661 219 q 667 214 668 215 q 621 21 642 133 q 613 5 618 10 q 599 0 608 0 l 26 0 q 22 8 22 0 q 26 17 22 17 q 86 24 67 17 q 115 50 106 31 q 133 113 125 69 l 247 756 q 253 800 253 792 q 235 841 253 831 q 174 851 218 851 q 171 860 171 851 q 174 868 171 868 l 715 868 z "},"É":{"ha":729,"x_min":22,"x_max":724,"o":"m 715 868 q 724 856 726 868 l 694 674 q 689 669 694 669 q 681 672 685 669 q 678 675 678 674 q 635 797 678 751 q 524 842 593 842 l 469 842 q 408 835 428 842 q 381 811 389 829 q 365 754 372 793 l 315 469 l 485 469 q 576 493 544 469 q 619 572 608 517 q 629 578 621 579 q 636 571 638 578 l 624 500 q 614 451 619 481 q 604 388 608 424 q 599 355 601 374 q 592 313 596 336 q 582 308 590 307 q 575 314 574 308 q 578 347 578 326 q 475 433 578 433 l 308 433 l 253 118 q 249 76 249 93 q 265 38 249 47 q 325 28 282 28 l 400 28 q 539 79 471 28 q 651 217 607 131 q 657 219 651 219 q 665 217 661 219 q 667 214 668 215 q 621 21 642 133 q 613 5 618 10 q 599 0 608 0 l 26 0 q 22 8 22 0 q 26 17 22 17 q 86 24 67 17 q 115 50 106 31 q 133 113 125 69 l 247 756 q 253 800 253 792 q 235 841 253 831 q 174 851 218 851 q 171 860 171 851 q 174 868 171 868 l 715 868 m 407 942 q 400 948 401 942 q 403 957 399 954 q 525 1044 447 983 q 594 1097 589 1093 q 639 1092 601 1103 q 705 1067 676 1081 q 718 1050 733 1053 q 560 1003 632 1029 q 410 943 489 978 l 407 942 z "},"Ĕ":{"ha":729,"x_min":22,"x_max":724,"o":"m 715 868 q 724 856 726 868 l 694 674 q 689 669 694 669 q 681 672 685 669 q 678 675 678 674 q 635 797 678 751 q 524 842 593 842 l 469 842 q 408 835 428 842 q 381 811 389 829 q 365 754 372 793 l 315 469 l 485 469 q 576 493 544 469 q 619 572 608 517 q 629 578 621 579 q 636 571 638 578 l 624 500 q 614 451 619 481 q 604 388 608 424 q 599 355 601 374 q 592 313 596 336 q 582 308 590 307 q 575 314 574 308 q 578 347 578 326 q 475 433 578 433 l 308 433 l 253 118 q 249 76 249 93 q 265 38 249 47 q 325 28 282 28 l 400 28 q 539 79 471 28 q 651 217 607 131 q 657 219 651 219 q 665 217 661 219 q 667 214 668 215 q 621 21 642 133 q 613 5 618 10 q 599 0 608 0 l 26 0 q 22 8 22 0 q 26 17 22 17 q 86 24 67 17 q 115 50 106 31 q 133 113 125 69 l 247 756 q 253 800 253 792 q 235 841 253 831 q 174 851 218 851 q 171 860 171 851 q 174 868 171 868 l 715 868 m 494 924 q 399 959 436 924 q 363 1054 363 994 q 391 1069 363 1063 q 444 1076 419 1076 q 463 1072 463 1076 q 491 1015 467 1036 q 550 994 515 994 q 646 1067 611 994 q 654 1071 650 1071 q 665 1068 660 1071 q 669 1063 671 1065 q 593 960 640 996 q 494 924 546 924 z "},"Ě":{"ha":729,"x_min":22,"x_max":724,"o":"m 715 868 q 724 856 726 868 l 694 674 q 689 669 694 669 q 681 672 685 669 q 678 675 678 674 q 635 797 678 751 q 524 842 593 842 l 469 842 q 408 835 428 842 q 381 811 389 829 q 365 754 372 793 l 315 469 l 485 469 q 576 493 544 469 q 619 572 608 517 q 629 578 621 579 q 636 571 638 578 l 624 500 q 614 451 619 481 q 604 388 608 424 q 599 355 601 374 q 592 313 596 336 q 582 308 590 307 q 575 314 574 308 q 578 347 578 326 q 475 433 578 433 l 308 433 l 253 118 q 249 76 249 93 q 265 38 249 47 q 325 28 282 28 l 400 28 q 539 79 471 28 q 651 217 607 131 q 657 219 651 219 q 665 217 661 219 q 667 214 668 215 q 621 21 642 133 q 613 5 618 10 q 599 0 608 0 l 26 0 q 22 8 22 0 q 26 17 22 17 q 86 24 67 17 q 115 50 106 31 q 133 113 125 69 l 247 756 q 253 800 253 792 q 235 841 253 831 q 174 851 218 851 q 171 860 171 851 q 174 868 171 868 l 715 868 m 365 1090 l 365 1092 q 369 1098 365 1094 q 376 1100 374 1101 l 501 1038 l 651 1100 q 659 1097 654 1101 q 660 1090 664 1092 l 503 938 q 489 932 497 932 q 476 938 482 932 l 365 1090 z "},"Ê":{"ha":729,"x_min":22,"x_max":724,"o":"m 715 868 q 724 856 726 868 l 694 674 q 689 669 694 669 q 681 672 685 669 q 678 675 678 674 q 635 797 678 751 q 524 842 593 842 l 469 842 q 408 835 428 842 q 381 811 389 829 q 365 754 372 793 l 315 469 l 485 469 q 576 493 544 469 q 619 572 608 517 q 629 578 621 579 q 636 571 638 578 l 624 500 q 614 451 619 481 q 604 388 608 424 q 599 355 601 374 q 592 313 596 336 q 582 308 590 307 q 575 314 574 308 q 578 347 578 326 q 475 433 578 433 l 308 433 l 253 118 q 249 76 249 93 q 265 38 249 47 q 325 28 282 28 l 400 28 q 539 79 471 28 q 651 217 607 131 q 657 219 651 219 q 665 217 661 219 q 667 214 668 215 q 621 21 642 133 q 613 5 618 10 q 599 0 608 0 l 26 0 q 22 8 22 0 q 26 17 22 17 q 86 24 67 17 q 115 50 106 31 q 133 113 125 69 l 247 756 q 253 800 253 792 q 235 841 253 831 q 174 851 218 851 q 171 860 171 851 q 174 868 171 868 l 715 868 m 351 917 q 344 920 347 917 q 344 926 342 924 l 501 1078 q 514 1085 506 1085 q 526 1078 522 1085 l 639 926 l 639 925 q 635 917 639 921 q 629 917 632 914 l 501 978 l 353 917 l 351 917 z "},"Ế":{"ha":729,"x_min":22,"x_max":828,"o":"m 715 868 q 724 856 726 868 l 694 674 q 689 669 694 669 q 681 672 685 669 q 678 675 678 674 q 635 797 678 751 q 524 842 593 842 l 469 842 q 408 835 428 842 q 381 811 389 829 q 365 754 372 793 l 315 469 l 485 469 q 576 493 544 469 q 619 572 608 517 q 629 578 621 579 q 636 571 638 578 l 624 500 q 614 451 619 481 q 604 388 608 424 q 599 355 601 374 q 592 313 596 336 q 582 308 590 307 q 575 314 574 308 q 578 347 578 326 q 475 433 578 433 l 308 433 l 253 118 q 249 76 249 93 q 265 38 249 47 q 325 28 282 28 l 400 28 q 539 79 471 28 q 651 217 607 131 q 657 219 651 219 q 665 217 661 219 q 667 214 668 215 q 621 21 642 133 q 613 5 618 10 q 599 0 608 0 l 26 0 q 22 8 22 0 q 26 17 22 17 q 86 24 67 17 q 115 50 106 31 q 133 113 125 69 l 247 756 q 253 800 253 792 q 235 841 253 831 q 174 851 218 851 q 171 860 171 851 q 174 868 171 868 l 715 868 m 350 917 q 343 920 346 917 q 343 926 340 924 l 500 1078 q 513 1085 504 1085 q 525 1078 521 1085 l 638 926 l 638 925 q 634 917 638 921 q 628 917 631 914 l 500 978 l 351 917 l 350 917 m 599 1001 q 592 1008 594 1001 q 593 1018 590 1014 q 707 1158 671 1107 q 748 1156 713 1167 q 810 1131 783 1146 q 824 1111 838 1117 q 601 1003 711 1071 l 599 1001 z "},"Ệ":{"ha":729,"x_min":22,"x_max":724,"o":"m 715 868 q 724 856 726 868 l 694 674 q 689 669 694 669 q 681 672 685 669 q 678 675 678 674 q 635 797 678 751 q 524 842 593 842 l 469 842 q 408 835 428 842 q 381 811 389 829 q 365 754 372 793 l 315 469 l 485 469 q 576 493 544 469 q 619 572 608 517 q 629 578 621 579 q 636 571 638 578 l 624 500 q 614 451 619 481 q 604 388 608 424 q 599 355 601 374 q 592 313 596 336 q 582 308 590 307 q 575 314 574 308 q 578 347 578 326 q 475 433 578 433 l 308 433 l 253 118 q 249 76 249 93 q 265 38 249 47 q 325 28 282 28 l 400 28 q 539 79 471 28 q 651 217 607 131 q 657 219 651 219 q 665 217 661 219 q 667 214 668 215 q 621 21 642 133 q 613 5 618 10 q 599 0 608 0 l 26 0 q 22 8 22 0 q 26 17 22 17 q 86 24 67 17 q 115 50 106 31 q 133 113 125 69 l 247 756 q 253 800 253 792 q 235 841 253 831 q 174 851 218 851 q 171 860 171 851 q 174 868 171 868 l 715 868 m 375 -275 q 321 -256 340 -275 q 301 -201 301 -236 q 322 -152 301 -171 q 375 -133 342 -133 q 426 -152 408 -133 q 444 -201 444 -171 q 426 -256 444 -236 q 375 -275 408 -275 m 351 917 q 344 920 347 917 q 344 926 342 924 l 501 1078 q 514 1085 506 1085 q 526 1078 522 1085 l 639 926 l 639 925 q 635 917 639 921 q 629 917 632 914 l 501 978 l 353 917 l 351 917 z "},"Ề":{"ha":729,"x_min":22,"x_max":735,"o":"m 715 868 q 724 856 726 868 l 694 674 q 689 669 694 669 q 681 672 685 669 q 678 675 678 674 q 635 797 678 751 q 524 842 593 842 l 469 842 q 408 835 428 842 q 381 811 389 829 q 365 754 372 793 l 315 469 l 485 469 q 576 493 544 469 q 619 572 608 517 q 629 578 621 579 q 636 571 638 578 l 624 500 q 614 451 619 481 q 604 388 608 424 q 599 355 601 374 q 592 313 596 336 q 582 308 590 307 q 575 314 574 308 q 578 347 578 326 q 475 433 578 433 l 308 433 l 253 118 q 249 76 249 93 q 265 38 249 47 q 325 28 282 28 l 400 28 q 539 79 471 28 q 651 217 607 131 q 657 219 651 219 q 665 217 661 219 q 667 214 668 215 q 621 21 642 133 q 613 5 618 10 q 599 0 608 0 l 26 0 q 22 8 22 0 q 26 17 22 17 q 86 24 67 17 q 115 50 106 31 q 133 113 125 69 l 247 756 q 253 800 253 792 q 235 841 253 831 q 174 851 218 851 q 171 860 171 851 q 174 868 171 868 l 715 868 m 349 917 q 342 920 344 917 q 342 926 339 924 l 499 1078 q 511 1085 503 1085 q 524 1078 519 1085 l 636 926 l 636 925 q 633 917 636 921 q 626 917 629 914 l 499 978 l 350 917 l 349 917 m 721 988 q 542 1096 636 1054 q 560 1116 528 1101 q 631 1141 592 1131 q 674 1143 671 1151 q 735 1003 697 1071 l 735 1000 q 730 990 735 994 q 721 988 725 986 z "},"Ể":{"ha":729,"x_min":22,"x_max":733,"o":"m 715 868 q 724 856 726 868 l 694 674 q 689 669 694 669 q 681 672 685 669 q 678 675 678 674 q 635 797 678 751 q 524 842 593 842 l 469 842 q 408 835 428 842 q 381 811 389 829 q 365 754 372 793 l 315 469 l 485 469 q 576 493 544 469 q 619 572 608 517 q 629 578 621 579 q 636 571 638 578 l 624 500 q 614 451 619 481 q 604 388 608 424 q 599 355 601 374 q 592 313 596 336 q 582 308 590 307 q 575 314 574 308 q 578 347 578 326 q 475 433 578 433 l 308 433 l 253 118 q 249 76 249 93 q 265 38 249 47 q 325 28 282 28 l 400 28 q 539 79 471 28 q 651 217 607 131 q 657 219 651 219 q 665 217 661 219 q 667 214 668 215 q 621 21 642 133 q 613 5 618 10 q 599 0 608 0 l 26 0 q 22 8 22 0 q 26 17 22 17 q 86 24 67 17 q 115 50 106 31 q 133 113 125 69 l 247 756 q 253 800 253 792 q 235 841 253 831 q 174 851 218 851 q 171 860 171 851 q 174 868 171 868 l 715 868 m 347 917 q 340 920 343 917 q 340 926 338 924 l 497 1078 q 510 1085 501 1085 q 522 1078 518 1085 l 635 926 l 635 925 q 631 917 635 921 q 625 917 628 914 l 497 978 l 349 917 l 347 917 m 603 993 q 608 1027 601 1011 q 629 1064 615 1043 q 648 1097 642 1083 q 654 1125 654 1110 q 643 1150 654 1142 q 617 1158 632 1158 q 589 1153 603 1158 l 586 1151 q 578 1156 581 1151 q 581 1164 576 1161 q 669 1189 626 1189 q 717 1176 700 1189 q 733 1140 733 1163 q 717 1099 733 1117 q 671 1057 701 1081 q 632 1022 644 1036 q 618 993 619 1008 q 611 990 618 990 q 603 993 604 989 z "},"Ễ":{"ha":729,"x_min":22,"x_max":726,"o":"m 715 868 q 724 856 726 868 l 694 674 q 689 669 694 669 q 681 672 685 669 q 678 675 678 674 q 635 797 678 751 q 524 842 593 842 l 469 842 q 408 835 428 842 q 381 811 389 829 q 365 754 372 793 l 315 469 l 485 469 q 576 493 544 469 q 619 572 608 517 q 629 578 621 579 q 636 571 638 578 l 624 500 q 614 451 619 481 q 604 388 608 424 q 599 355 601 374 q 592 313 596 336 q 582 308 590 307 q 575 314 574 308 q 578 347 578 326 q 475 433 578 433 l 308 433 l 253 118 q 249 76 249 93 q 265 38 249 47 q 325 28 282 28 l 400 28 q 539 79 471 28 q 651 217 607 131 q 657 219 651 219 q 665 217 661 219 q 667 214 668 215 q 621 21 642 133 q 613 5 618 10 q 599 0 608 0 l 26 0 q 22 8 22 0 q 26 17 22 17 q 86 24 67 17 q 115 50 106 31 q 133 113 125 69 l 247 756 q 253 800 253 792 q 235 841 253 831 q 174 851 218 851 q 171 860 171 851 q 174 868 171 868 l 715 868 m 340 917 q 333 920 336 917 q 333 926 331 924 l 490 1078 q 503 1085 494 1085 q 515 1078 511 1085 l 628 926 l 628 925 q 624 917 628 921 q 618 917 621 914 l 490 978 l 342 917 l 340 917 m 340 1096 q 333 1099 336 1096 q 332 1106 331 1103 q 464 1210 401 1210 q 532 1196 479 1210 q 635 1175 600 1175 q 679 1183 663 1175 q 717 1213 696 1192 q 719 1214 717 1214 q 725 1210 722 1214 q 726 1203 728 1206 q 660 1121 686 1142 q 600 1100 633 1100 q 521 1115 572 1100 q 472 1128 497 1122 q 424 1133 446 1133 q 379 1126 393 1133 q 342 1096 365 1118 l 340 1096 z "},"Ë":{"ha":729,"x_min":22,"x_max":724,"o":"m 715 868 q 724 856 726 868 l 694 674 q 689 669 694 669 q 681 672 685 669 q 678 675 678 674 q 635 797 678 751 q 524 842 593 842 l 469 842 q 408 835 428 842 q 381 811 389 829 q 365 754 372 793 l 315 469 l 485 469 q 576 493 544 469 q 619 572 608 517 q 629 578 621 579 q 636 571 638 578 l 624 500 q 614 451 619 481 q 604 388 608 424 q 599 355 601 374 q 592 313 596 336 q 582 308 590 307 q 575 314 574 308 q 578 347 578 326 q 475 433 578 433 l 308 433 l 253 118 q 249 76 249 93 q 265 38 249 47 q 325 28 282 28 l 400 28 q 539 79 471 28 q 651 217 607 131 q 657 219 651 219 q 665 217 661 219 q 667 214 668 215 q 621 21 642 133 q 613 5 618 10 q 599 0 608 0 l 26 0 q 22 8 22 0 q 26 17 22 17 q 86 24 67 17 q 115 50 106 31 q 133 113 125 69 l 247 756 q 253 800 253 792 q 235 841 253 831 q 174 851 218 851 q 171 860 171 851 q 174 868 171 868 l 715 868 m 403 983 q 352 1001 371 983 q 333 1053 333 1019 q 352 1101 333 1083 q 403 1119 371 1119 q 452 1102 435 1119 q 469 1053 469 1085 q 452 1001 469 1019 q 403 983 435 983 m 621 983 q 569 1001 588 983 q 550 1053 550 1019 q 569 1102 550 1085 q 621 1119 588 1119 q 669 1102 651 1119 q 686 1053 686 1085 q 669 1001 686 1019 q 621 983 653 983 z "},"Ė":{"ha":729,"x_min":22,"x_max":724,"o":"m 715 868 q 724 856 726 868 l 694 674 q 689 669 694 669 q 681 672 685 669 q 678 675 678 674 q 635 797 678 751 q 524 842 593 842 l 469 842 q 408 835 428 842 q 381 811 389 829 q 365 754 372 793 l 315 469 l 485 469 q 576 493 544 469 q 619 572 608 517 q 629 578 621 579 q 636 571 638 578 l 624 500 q 614 451 619 481 q 604 388 608 424 q 599 355 601 374 q 592 313 596 336 q 582 308 590 307 q 575 314 574 308 q 578 347 578 326 q 475 433 578 433 l 308 433 l 253 118 q 249 76 249 93 q 265 38 249 47 q 325 28 282 28 l 400 28 q 539 79 471 28 q 651 217 607 131 q 657 219 651 219 q 665 217 661 219 q 667 214 668 215 q 621 21 642 133 q 613 5 618 10 q 599 0 608 0 l 26 0 q 22 8 22 0 q 26 17 22 17 q 86 24 67 17 q 115 50 106 31 q 133 113 125 69 l 247 756 q 253 800 253 792 q 235 841 253 831 q 174 851 218 851 q 171 860 171 851 q 174 868 171 868 l 715 868 m 510 989 q 457 1008 476 989 q 438 1061 438 1028 q 457 1112 438 1093 q 510 1131 476 1131 q 562 1112 543 1131 q 581 1061 581 1093 q 562 1008 581 1028 q 510 989 543 989 z "},"Ẹ":{"ha":729,"x_min":22,"x_max":724,"o":"m 715 868 q 724 856 726 868 l 694 674 q 689 669 694 669 q 681 672 685 669 q 678 675 678 674 q 635 797 678 751 q 524 842 593 842 l 469 842 q 408 835 428 842 q 381 811 389 829 q 365 754 372 793 l 315 469 l 485 469 q 576 493 544 469 q 619 572 608 517 q 629 578 621 579 q 636 571 638 578 l 624 500 q 614 451 619 481 q 604 388 608 424 q 599 355 601 374 q 592 313 596 336 q 582 308 590 307 q 575 314 574 308 q 578 347 578 326 q 475 433 578 433 l 308 433 l 253 118 q 249 76 249 93 q 265 38 249 47 q 325 28 282 28 l 400 28 q 539 79 471 28 q 651 217 607 131 q 657 219 651 219 q 665 217 661 219 q 667 214 668 215 q 621 21 642 133 q 613 5 618 10 q 599 0 608 0 l 26 0 q 22 8 22 0 q 26 17 22 17 q 86 24 67 17 q 115 50 106 31 q 133 113 125 69 l 247 756 q 253 800 253 792 q 235 841 253 831 q 174 851 218 851 q 171 860 171 851 q 174 868 171 868 l 715 868 m 375 -275 q 321 -256 340 -275 q 301 -201 301 -236 q 322 -152 301 -171 q 375 -133 342 -133 q 426 -152 408 -133 q 444 -201 444 -171 q 426 -256 444 -236 q 375 -275 408 -275 z "},"È":{"ha":729,"x_min":22,"x_max":724,"o":"m 715 868 q 724 856 726 868 l 694 674 q 689 669 694 669 q 681 672 685 669 q 678 675 678 674 q 635 797 678 751 q 524 842 593 842 l 469 842 q 408 835 428 842 q 381 811 389 829 q 365 754 372 793 l 315 469 l 485 469 q 576 493 544 469 q 619 572 608 517 q 629 578 621 579 q 636 571 638 578 l 624 500 q 614 451 619 481 q 604 388 608 424 q 599 355 601 374 q 592 313 596 336 q 582 308 590 307 q 575 314 574 308 q 578 347 578 326 q 475 433 578 433 l 308 433 l 253 118 q 249 76 249 93 q 265 38 249 47 q 325 28 282 28 l 400 28 q 539 79 471 28 q 651 217 607 131 q 657 219 651 219 q 665 217 661 219 q 667 214 668 215 q 621 21 642 133 q 613 5 618 10 q 599 0 608 0 l 26 0 q 22 8 22 0 q 26 17 22 17 q 86 24 67 17 q 115 50 106 31 q 133 113 125 69 l 247 756 q 253 800 253 792 q 235 841 253 831 q 174 851 218 851 q 171 860 171 851 q 174 868 171 868 l 715 868 m 606 957 q 478 1006 535 986 q 342 1050 421 1026 q 357 1068 325 1054 q 431 1092 389 1082 q 479 1096 472 1101 q 579 1003 521 1053 q 618 969 593 992 q 619 965 619 968 q 615 958 619 961 q 606 957 611 956 z "},"Ẻ":{"ha":729,"x_min":22,"x_max":724,"o":"m 715 868 q 724 856 726 868 l 694 674 q 689 669 694 669 q 681 672 685 669 q 678 675 678 674 q 635 797 678 751 q 524 842 593 842 l 469 842 q 408 835 428 842 q 381 811 389 829 q 365 754 372 793 l 315 469 l 485 469 q 576 493 544 469 q 619 572 608 517 q 629 578 621 579 q 636 571 638 578 l 624 500 q 614 451 619 481 q 604 388 608 424 q 599 355 601 374 q 592 313 596 336 q 582 308 590 307 q 575 314 574 308 q 578 347 578 326 q 475 433 578 433 l 308 433 l 253 118 q 249 76 249 93 q 265 38 249 47 q 325 28 282 28 l 400 28 q 539 79 471 28 q 651 217 607 131 q 657 219 651 219 q 665 217 661 219 q 667 214 668 215 q 621 21 642 133 q 613 5 618 10 q 599 0 608 0 l 26 0 q 22 8 22 0 q 26 17 22 17 q 86 24 67 17 q 115 50 106 31 q 133 113 125 69 l 247 756 q 253 800 253 792 q 235 841 253 831 q 174 851 218 851 q 171 860 171 851 q 174 868 171 868 l 715 868 m 492 906 q 484 902 492 903 q 475 906 476 901 q 474 929 474 914 q 480 972 474 953 q 500 1018 486 990 q 519 1060 513 1043 q 525 1097 525 1078 q 482 1143 525 1143 q 436 1132 461 1143 l 433 1131 q 426 1135 429 1131 q 426 1143 424 1140 q 533 1179 475 1179 q 601 1160 576 1179 q 625 1108 625 1140 q 607 1056 625 1081 q 554 999 589 1032 q 506 949 522 969 q 492 906 490 928 z "},"Ē":{"ha":729,"x_min":22,"x_max":724,"o":"m 715 868 q 724 856 726 868 l 694 674 q 689 669 694 669 q 681 672 685 669 q 678 675 678 674 q 635 797 678 751 q 524 842 593 842 l 469 842 q 408 835 428 842 q 381 811 389 829 q 365 754 372 793 l 315 469 l 485 469 q 576 493 544 469 q 619 572 608 517 q 629 578 621 579 q 636 571 638 578 l 624 500 q 614 451 619 481 q 604 388 608 424 q 599 355 601 374 q 592 313 596 336 q 582 308 590 307 q 575 314 574 308 q 578 347 578 326 q 475 433 578 433 l 308 433 l 253 118 q 249 76 249 93 q 265 38 249 47 q 325 28 282 28 l 400 28 q 539 79 471 28 q 651 217 607 131 q 657 219 651 219 q 665 217 661 219 q 667 214 668 215 q 621 21 642 133 q 613 5 618 10 q 599 0 608 0 l 26 0 q 22 8 22 0 q 26 17 22 17 q 86 24 67 17 q 115 50 106 31 q 133 113 125 69 l 247 756 q 253 800 253 792 q 235 841 253 831 q 174 851 218 851 q 171 860 171 851 q 174 868 171 868 l 715 868 m 351 992 q 343 999 346 992 q 340 1017 340 1007 q 343 1034 340 1026 q 351 1042 346 1042 l 674 1042 q 683 1034 679 1042 q 686 1017 686 1026 q 683 999 686 1007 q 674 992 679 992 l 351 992 z "},"Ę":{"ha":729,"x_min":22,"x_max":726,"o":"m 715 868 q 724 856 726 868 l 694 674 q 689 669 694 669 q 681 672 685 669 q 678 675 678 674 q 635 797 678 751 q 524 842 593 842 l 469 842 q 408 835 428 842 q 381 811 389 829 q 365 754 372 793 l 315 469 l 485 469 q 576 493 544 469 q 619 572 608 517 q 629 578 621 579 q 636 571 638 578 l 624 500 q 614 451 619 481 q 604 388 608 424 q 599 355 601 374 q 592 313 596 336 q 582 308 590 307 q 575 314 574 308 q 578 347 578 326 q 475 433 578 433 l 308 433 l 253 118 q 249 76 249 93 q 265 38 249 47 q 325 28 282 28 l 400 28 q 539 79 471 28 q 651 217 607 131 q 657 219 651 219 q 665 217 661 219 q 667 214 668 215 q 621 21 642 133 q 613 5 618 10 q 599 0 608 0 l 543 0 q 458 -118 488 -62 q 428 -235 428 -174 q 446 -303 428 -278 q 501 -328 464 -328 q 572 -297 539 -328 l 574 -297 q 581 -302 578 -297 q 582 -310 585 -307 q 509 -365 543 -349 q 436 -382 475 -382 q 351 -351 382 -382 q 321 -268 321 -319 q 371 -142 321 -204 q 515 0 421 -79 l 26 0 q 22 8 22 0 q 26 17 22 17 q 86 24 67 17 q 115 50 106 31 q 133 113 125 69 l 247 756 q 253 800 253 792 q 235 841 253 831 q 174 851 218 851 q 171 860 171 851 q 174 868 171 868 l 715 868 z "},"Ẽ":{"ha":729,"x_min":22,"x_max":724,"o":"m 715 868 q 724 856 726 868 l 694 674 q 689 669 694 669 q 681 672 685 669 q 678 675 678 674 q 635 797 678 751 q 524 842 593 842 l 469 842 q 408 835 428 842 q 381 811 389 829 q 365 754 372 793 l 315 469 l 485 469 q 576 493 544 469 q 619 572 608 517 q 629 578 621 579 q 636 571 638 578 l 624 500 q 614 451 619 481 q 604 388 608 424 q 599 355 601 374 q 592 313 596 336 q 582 308 590 307 q 575 314 574 308 q 578 347 578 326 q 475 433 578 433 l 308 433 l 253 118 q 249 76 249 93 q 265 38 249 47 q 325 28 282 28 l 400 28 q 539 79 471 28 q 651 217 607 131 q 657 219 651 219 q 665 217 661 219 q 667 214 668 215 q 621 21 642 133 q 613 5 618 10 q 599 0 608 0 l 26 0 q 22 8 22 0 q 26 17 22 17 q 86 24 67 17 q 115 50 106 31 q 133 113 125 69 l 247 756 q 253 800 253 792 q 235 841 253 831 q 174 851 218 851 q 171 860 171 851 q 174 868 171 868 l 715 868 m 326 957 q 324 956 326 956 q 318 960 321 956 q 317 967 315 964 q 380 1041 349 1011 q 450 1071 411 1071 q 517 1057 467 1071 q 619 1036 585 1036 q 665 1044 647 1036 q 703 1074 682 1053 l 704 1074 q 711 1070 708 1074 q 713 1064 714 1067 q 646 981 672 1001 q 586 960 619 960 q 507 976 563 960 q 470 986 501 978 q 410 994 439 994 q 368 988 382 994 q 343 972 354 982 q 326 957 332 961 z "},"F":{"ha":672,"x_min":17,"x_max":722,"o":"m 711 868 q 719 856 722 868 q 692 674 697 713 q 682 670 690 669 q 675 675 674 671 q 631 797 672 751 q 519 842 589 842 l 465 842 q 404 835 424 842 q 376 812 385 829 q 360 754 367 794 l 307 453 l 451 453 q 544 477 513 453 q 586 557 575 501 q 594 561 586 561 q 601 559 597 561 q 603 554 604 557 q 586 465 597 513 l 581 435 l 560 297 q 550 292 558 292 q 543 299 542 292 q 546 331 546 321 q 442 417 546 417 l 300 417 l 247 118 q 243 79 243 96 q 269 29 243 42 q 369 17 296 17 q 372 8 372 17 q 369 0 372 0 q 313 1 336 0 l 167 3 l 82 1 q 19 0 60 0 q 17 8 17 0 q 19 17 17 17 q 81 24 61 17 q 112 51 101 31 q 129 113 122 71 l 243 756 q 249 800 249 792 q 231 841 249 831 q 169 851 214 851 q 165 860 165 851 q 169 868 165 868 l 711 868 z "},"G":{"ha":878,"x_min":79,"x_max":844,"o":"m 458 -17 q 252 29 338 -17 q 123 156 167 75 q 79 342 79 236 q 88 439 79 389 q 190 669 111 568 q 385 827 269 771 q 629 883 500 883 q 744 872 688 883 q 833 840 800 860 q 843 829 842 835 q 843 808 844 824 l 824 632 q 815 628 822 628 q 808 632 808 628 q 728 793 789 736 q 571 850 668 850 q 345 753 436 850 q 226 490 254 657 q 217 368 217 431 q 293 107 217 203 q 501 11 369 11 q 581 25 551 11 q 628 74 611 39 q 654 175 646 110 q 663 254 663 225 q 651 299 663 285 q 615 319 640 314 q 538 324 589 324 q 533 327 535 324 q 531 335 531 331 q 533 342 531 339 q 538 346 535 346 q 701 339 638 339 q 832 343 764 339 q 837 333 836 343 q 832 324 838 324 q 800 315 810 325 q 784 276 790 304 q 765 161 778 247 q 755 76 756 104 q 751 39 754 47 q 747 28 750 31 q 736 22 744 25 q 458 -17 576 -17 z "},"Ğ":{"ha":878,"x_min":79,"x_max":843,"o":"m 458 -17 q 252 29 338 -17 q 123 156 167 75 q 79 342 79 236 q 88 439 79 389 q 190 669 111 568 q 385 827 269 771 q 629 883 500 883 q 744 872 688 883 q 833 840 800 860 q 843 829 842 835 q 843 808 844 824 l 824 632 q 815 628 822 628 q 808 632 808 628 q 728 793 789 736 q 571 850 668 850 q 345 753 436 850 q 226 490 254 657 q 217 368 217 431 q 293 107 217 203 q 501 11 369 11 q 581 25 551 11 q 628 74 611 39 q 654 175 646 110 q 663 254 663 225 q 651 299 663 285 q 615 319 640 314 q 538 324 589 324 q 533 327 535 324 q 531 335 531 331 q 533 342 531 339 q 538 346 535 346 q 701 339 638 339 q 832 343 764 339 q 837 333 836 343 q 832 324 838 324 q 800 315 810 325 q 784 276 790 304 q 765 161 778 247 q 755 76 756 104 q 751 39 754 47 q 747 28 750 31 q 736 22 744 25 q 458 -17 576 -17 m 610 924 q 515 959 551 924 q 478 1054 478 994 q 506 1069 478 1063 q 560 1076 535 1076 q 578 1072 578 1076 q 606 1015 582 1036 q 665 994 631 994 q 761 1067 726 994 q 769 1071 765 1071 q 781 1068 775 1071 q 785 1063 786 1065 q 708 960 756 996 q 610 924 661 924 z "},"Ǧ":{"ha":878,"x_min":79,"x_max":843,"o":"m 458 -17 q 252 29 338 -17 q 123 156 167 75 q 79 342 79 236 q 88 439 79 389 q 190 669 111 568 q 385 827 269 771 q 629 883 500 883 q 744 872 688 883 q 833 840 800 860 q 843 829 842 835 q 843 808 844 824 l 824 632 q 815 628 822 628 q 808 632 808 628 q 728 793 789 736 q 571 850 668 850 q 345 753 436 850 q 226 490 254 657 q 217 368 217 431 q 293 107 217 203 q 501 11 369 11 q 581 25 551 11 q 628 74 611 39 q 654 175 646 110 q 663 254 663 225 q 651 299 663 285 q 615 319 640 314 q 538 324 589 324 q 533 327 535 324 q 531 335 531 331 q 533 342 531 339 q 538 346 535 346 q 701 339 638 339 q 832 343 764 339 q 837 333 836 343 q 832 324 838 324 q 800 315 810 325 q 784 276 790 304 q 765 161 778 247 q 755 76 756 104 q 751 39 754 47 q 747 28 750 31 q 736 22 744 25 q 458 -17 576 -17 m 488 1090 l 488 1092 q 492 1098 488 1094 q 499 1100 496 1101 l 624 1038 l 774 1100 q 781 1097 776 1101 q 782 1090 786 1092 l 625 938 q 611 932 619 932 q 599 938 604 932 l 488 1090 z "},"Ĝ":{"ha":878,"x_min":79,"x_max":843,"o":"m 458 -17 q 252 29 338 -17 q 123 156 167 75 q 79 342 79 236 q 88 439 79 389 q 190 669 111 568 q 385 827 269 771 q 629 883 500 883 q 744 872 688 883 q 833 840 800 860 q 843 829 842 835 q 843 808 844 824 l 824 632 q 815 628 822 628 q 808 632 808 628 q 728 793 789 736 q 571 850 668 850 q 345 753 436 850 q 226 490 254 657 q 217 368 217 431 q 293 107 217 203 q 501 11 369 11 q 581 25 551 11 q 628 74 611 39 q 654 175 646 110 q 663 254 663 225 q 651 299 663 285 q 615 319 640 314 q 538 324 589 324 q 533 327 535 324 q 531 335 531 331 q 533 342 531 339 q 538 346 535 346 q 701 339 638 339 q 832 343 764 339 q 837 333 836 343 q 832 324 838 324 q 800 315 810 325 q 784 276 790 304 q 765 161 778 247 q 755 76 756 104 q 751 39 754 47 q 747 28 750 31 q 736 22 744 25 q 458 -17 576 -17 m 474 917 q 467 920 469 917 q 467 926 464 924 l 624 1078 q 636 1085 628 1085 q 649 1078 644 1085 l 761 926 l 761 925 q 758 917 761 921 q 751 917 754 914 l 624 978 l 475 917 l 474 917 z "},"Ģ":{"ha":878,"x_min":79,"x_max":843,"o":"m 458 -17 q 252 29 338 -17 q 123 156 167 75 q 79 342 79 236 q 88 439 79 389 q 190 669 111 568 q 385 827 269 771 q 629 883 500 883 q 744 872 688 883 q 833 840 800 860 q 843 829 842 835 q 843 808 844 824 l 824 632 q 815 628 822 628 q 808 632 808 628 q 728 793 789 736 q 571 850 668 850 q 345 753 436 850 q 226 490 254 657 q 217 368 217 431 q 293 107 217 203 q 501 11 369 11 q 581 25 551 11 q 628 74 611 39 q 654 175 646 110 q 663 254 663 225 q 651 299 663 285 q 615 319 640 314 q 538 324 589 324 q 533 327 535 324 q 531 335 531 331 q 533 342 531 339 q 538 346 535 346 q 701 339 638 339 q 832 343 764 339 q 837 333 836 343 q 832 324 838 324 q 800 315 810 325 q 784 276 790 304 q 765 161 778 247 q 755 76 756 104 q 751 39 754 47 q 747 28 750 31 q 736 22 744 25 q 458 -17 576 -17 m 449 -104 q 507 -128 488 -104 q 526 -190 526 -151 q 491 -296 526 -247 q 396 -382 456 -344 l 393 -383 q 385 -377 388 -383 q 386 -368 382 -371 q 465 -271 457 -322 q 468 -249 468 -254 l 467 -236 q 438 -243 456 -243 q 388 -224 406 -243 q 371 -176 371 -204 q 391 -124 371 -144 q 449 -104 411 -104 z "},"Ġ":{"ha":878,"x_min":79,"x_max":843,"o":"m 458 -17 q 252 29 338 -17 q 123 156 167 75 q 79 342 79 236 q 88 439 79 389 q 190 669 111 568 q 385 827 269 771 q 629 883 500 883 q 744 872 688 883 q 833 840 800 860 q 843 829 842 835 q 843 808 844 824 l 824 632 q 815 628 822 628 q 808 632 808 628 q 728 793 789 736 q 571 850 668 850 q 345 753 436 850 q 226 490 254 657 q 217 368 217 431 q 293 107 217 203 q 501 11 369 11 q 581 25 551 11 q 628 74 611 39 q 654 175 646 110 q 663 254 663 225 q 651 299 663 285 q 615 319 640 314 q 538 324 589 324 q 533 327 535 324 q 531 335 531 331 q 533 342 531 339 q 538 346 535 346 q 701 339 638 339 q 832 343 764 339 q 837 333 836 343 q 832 324 838 324 q 800 315 810 325 q 784 276 790 304 q 765 161 778 247 q 755 76 756 104 q 751 39 754 47 q 747 28 750 31 q 736 22 744 25 q 458 -17 576 -17 m 632 989 q 579 1008 599 989 q 560 1061 560 1028 q 579 1112 560 1093 q 632 1131 599 1131 q 684 1112 665 1131 q 703 1061 703 1093 q 684 1008 703 1028 q 632 989 665 989 z "},"Ḡ":{"ha":878,"x_min":79,"x_max":843,"o":"m 458 -17 q 252 29 338 -17 q 123 156 167 75 q 79 342 79 236 q 88 439 79 389 q 190 669 111 568 q 385 827 269 771 q 629 883 500 883 q 744 872 688 883 q 833 840 800 860 q 843 829 842 835 q 843 808 844 824 l 824 632 q 815 628 822 628 q 808 632 808 628 q 728 793 789 736 q 571 850 668 850 q 345 753 436 850 q 226 490 254 657 q 217 368 217 431 q 293 107 217 203 q 501 11 369 11 q 581 25 551 11 q 628 74 611 39 q 654 175 646 110 q 663 254 663 225 q 651 299 663 285 q 615 319 640 314 q 538 324 589 324 q 533 327 535 324 q 531 335 531 331 q 533 342 531 339 q 538 346 535 346 q 701 339 638 339 q 832 343 764 339 q 837 333 836 343 q 832 324 838 324 q 800 315 810 325 q 784 276 790 304 q 765 161 778 247 q 755 76 756 104 q 751 39 754 47 q 747 28 750 31 q 736 22 744 25 q 458 -17 576 -17 m 426 990 q 415 1014 415 990 q 426 1038 415 1038 l 775 1038 q 784 1031 781 1038 q 788 1014 788 1024 q 784 997 788 1004 q 775 990 781 990 l 426 990 z "},"H":{"ha":936,"x_min":13,"x_max":976,"o":"m 974 868 q 976 860 976 868 q 974 851 976 851 q 915 844 935 851 q 884 816 894 836 q 867 756 874 796 l 753 113 q 749 68 749 86 q 765 27 749 38 q 826 17 782 17 q 831 8 831 17 q 826 0 831 0 q 771 1 792 0 l 679 3 l 592 1 q 528 0 568 0 q 525 8 525 0 q 528 17 525 17 q 589 24 569 17 q 618 50 608 31 q 635 113 628 69 l 692 433 l 300 433 l 243 113 q 238 67 238 74 q 254 26 238 36 q 317 17 271 17 q 321 8 321 17 q 317 0 321 0 q 256 1 278 0 l 164 3 l 78 1 q 17 0 56 0 q 13 8 13 0 q 17 17 13 17 q 77 24 57 17 q 108 51 97 31 q 126 113 118 71 l 240 756 q 246 800 246 792 q 228 840 246 829 q 165 851 211 851 q 163 860 163 851 q 165 868 163 868 l 228 867 q 313 864 281 864 q 401 867 346 864 l 465 868 q 468 860 468 868 q 465 851 468 851 q 405 843 425 851 q 375 815 385 835 q 357 753 365 794 l 307 469 l 697 469 l 747 753 q 753 800 753 792 q 736 840 753 829 q 676 851 719 851 q 672 860 672 851 q 676 868 672 868 l 738 867 q 824 864 790 864 q 911 867 858 864 l 974 868 z "},"Ħ":{"ha":936,"x_min":13,"x_max":976,"o":"m 974 868 q 976 860 976 868 q 974 851 976 851 q 915 844 935 851 q 884 816 894 836 q 867 756 874 796 l 753 113 q 747 67 747 76 q 765 27 747 38 q 826 17 782 17 q 831 8 831 17 q 826 0 831 0 q 771 1 792 0 l 679 3 l 592 1 q 528 0 568 0 q 525 8 525 0 q 528 17 525 17 q 589 24 569 17 q 618 50 608 31 q 635 113 628 69 l 668 304 l 278 304 l 243 113 q 238 67 238 74 q 254 26 238 36 q 317 17 271 17 q 321 8 321 17 q 317 0 321 0 q 256 1 278 0 l 164 3 l 78 1 q 17 0 56 0 q 13 8 13 0 q 17 17 13 17 q 77 24 57 17 q 108 51 97 31 q 126 113 118 71 l 240 756 q 246 800 246 792 q 228 840 246 829 q 165 851 211 851 q 163 860 163 851 q 165 868 163 868 l 228 867 q 313 864 281 864 q 401 867 346 864 l 465 868 q 468 860 468 868 q 465 851 468 851 q 405 843 425 851 q 375 815 385 835 q 357 753 365 794 l 329 600 l 721 600 l 747 753 q 753 800 753 792 q 736 840 753 829 q 676 851 719 851 q 672 860 672 851 q 676 868 672 868 l 738 867 q 824 864 790 864 q 911 867 858 864 l 974 868 m 283 340 l 675 340 l 714 564 l 324 564 l 283 340 z "},"Ḫ":{"ha":936,"x_min":13,"x_max":976,"o":"m 974 868 q 976 860 976 868 q 974 851 976 851 q 915 844 935 851 q 884 816 894 836 q 867 756 874 796 l 753 113 q 749 68 749 86 q 765 27 749 38 q 826 17 782 17 q 831 8 831 17 q 826 0 831 0 q 771 1 792 0 l 679 3 l 592 1 q 528 0 568 0 q 525 8 525 0 q 528 17 525 17 q 589 24 569 17 q 618 50 608 31 q 635 113 628 69 l 692 433 l 300 433 l 243 113 q 238 67 238 74 q 254 26 238 36 q 317 17 271 17 q 321 8 321 17 q 317 0 321 0 q 256 1 278 0 l 164 3 l 78 1 q 17 0 56 0 q 13 8 13 0 q 17 17 13 17 q 77 24 57 17 q 108 51 97 31 q 126 113 118 71 l 240 756 q 246 800 246 792 q 228 840 246 829 q 165 851 211 851 q 163 860 163 851 q 165 868 163 868 l 228 867 q 313 864 281 864 q 401 867 346 864 l 465 868 q 468 860 468 868 q 465 851 468 851 q 405 843 425 851 q 375 815 385 835 q 357 753 365 794 l 307 469 l 697 469 l 747 753 q 753 800 753 792 q 736 840 753 829 q 676 851 719 851 q 672 860 672 851 q 676 868 672 868 l 738 867 q 824 864 790 864 q 911 867 858 864 l 974 868 m 386 -272 q 291 -237 328 -272 q 254 -142 254 -201 q 283 -126 254 -133 q 336 -119 311 -119 q 354 -124 354 -119 q 383 -181 358 -160 q 442 -201 407 -201 q 538 -129 503 -201 q 546 -125 542 -125 q 557 -128 551 -125 q 561 -133 563 -131 q 485 -236 532 -200 q 386 -272 438 -272 z "},"Ĥ":{"ha":936,"x_min":13,"x_max":976,"o":"m 974 868 q 976 860 976 868 q 974 851 976 851 q 915 844 935 851 q 884 816 894 836 q 867 756 874 796 l 753 113 q 749 68 749 86 q 765 27 749 38 q 826 17 782 17 q 831 8 831 17 q 826 0 831 0 q 771 1 792 0 l 679 3 l 592 1 q 528 0 568 0 q 525 8 525 0 q 528 17 525 17 q 589 24 569 17 q 618 50 608 31 q 635 113 628 69 l 692 433 l 300 433 l 243 113 q 238 67 238 74 q 254 26 238 36 q 317 17 271 17 q 321 8 321 17 q 317 0 321 0 q 256 1 278 0 l 164 3 l 78 1 q 17 0 56 0 q 13 8 13 0 q 17 17 13 17 q 77 24 57 17 q 108 51 97 31 q 126 113 118 71 l 240 756 q 246 800 246 792 q 228 840 246 829 q 165 851 211 851 q 163 860 163 851 q 165 868 163 868 l 228 867 q 313 864 281 864 q 401 867 346 864 l 465 868 q 468 860 468 868 q 465 851 468 851 q 405 843 425 851 q 375 815 385 835 q 357 753 365 794 l 307 469 l 697 469 l 747 753 q 753 800 753 792 q 736 840 753 829 q 676 851 719 851 q 672 860 672 851 q 676 868 672 868 l 738 867 q 824 864 790 864 q 911 867 858 864 l 974 868 m 446 917 q 439 920 442 917 q 439 926 436 924 l 596 1078 q 608 1085 600 1085 q 621 1078 617 1085 l 733 926 l 733 925 q 730 917 733 921 q 724 917 726 914 l 596 978 l 447 917 l 446 917 z "},"Ḥ":{"ha":936,"x_min":13,"x_max":976,"o":"m 974 868 q 976 860 976 868 q 974 851 976 851 q 915 844 935 851 q 884 816 894 836 q 867 756 874 796 l 753 113 q 749 68 749 86 q 765 27 749 38 q 826 17 782 17 q 831 8 831 17 q 826 0 831 0 q 771 1 792 0 l 679 3 l 592 1 q 528 0 568 0 q 525 8 525 0 q 528 17 525 17 q 589 24 569 17 q 618 50 608 31 q 635 113 628 69 l 692 433 l 300 433 l 243 113 q 238 67 238 74 q 254 26 238 36 q 317 17 271 17 q 321 8 321 17 q 317 0 321 0 q 256 1 278 0 l 164 3 l 78 1 q 17 0 56 0 q 13 8 13 0 q 17 17 13 17 q 77 24 57 17 q 108 51 97 31 q 126 113 118 71 l 240 756 q 246 800 246 792 q 228 840 246 829 q 165 851 211 851 q 163 860 163 851 q 165 868 163 868 l 228 867 q 313 864 281 864 q 401 867 346 864 l 465 868 q 468 860 468 868 q 465 851 468 851 q 405 843 425 851 q 375 815 385 835 q 357 753 365 794 l 307 469 l 697 469 l 747 753 q 753 800 753 792 q 736 840 753 829 q 676 851 719 851 q 672 860 672 851 q 676 868 672 868 l 738 867 q 824 864 790 864 q 911 867 858 864 l 974 868 m 407 -275 q 353 -256 372 -275 q 333 -201 333 -236 q 353 -152 333 -171 q 407 -133 374 -133 q 458 -152 440 -133 q 476 -201 476 -171 q 458 -256 476 -236 q 407 -275 440 -275 z "},"I":{"ha":454,"x_min":28,"x_max":483,"o":"m 32 0 q 28 8 28 0 q 32 17 28 17 q 92 24 72 17 q 122 51 111 31 q 139 113 132 71 l 253 756 q 258 800 258 792 q 241 841 258 831 q 178 851 224 851 q 174 860 174 851 q 178 868 174 868 l 242 867 q 326 864 294 864 q 421 867 368 864 l 479 868 q 483 860 483 868 q 479 851 483 851 q 419 843 439 851 q 390 815 400 835 q 372 753 379 794 l 258 113 q 253 65 253 86 q 270 26 253 36 q 333 17 288 17 q 336 8 336 17 q 333 0 336 0 q 274 1 296 0 l 182 3 l 96 1 q 32 0 74 0 z "},"Ĳ":{"ha":860,"x_min":58,"x_max":936,"o":"m 64 374 q 58 382 58 374 q 64 390 58 390 q 128 397 107 390 q 159 424 149 404 q 176 486 169 443 l 224 756 q 229 801 229 779 q 211 841 229 831 q 146 851 193 851 q 140 860 140 851 q 146 868 140 868 l 214 867 q 304 864 269 864 q 399 867 343 864 l 463 868 q 469 860 469 868 q 463 851 469 851 q 398 843 419 851 q 366 815 376 835 q 347 753 356 796 l 300 486 q 294 440 294 450 q 313 401 294 411 q 379 390 331 390 q 385 382 385 390 q 379 374 385 374 q 315 375 339 374 l 221 376 l 131 375 q 64 374 107 374 m 388 -19 q 247 8 310 -19 q 150 81 185 36 q 115 172 115 125 q 117 189 115 183 q 140 238 122 219 q 190 257 158 257 q 241 232 231 257 q 253 156 251 207 q 263 81 254 111 q 299 28 271 50 q 385 7 328 7 q 544 76 486 7 q 624 278 601 144 l 708 756 q 713 799 713 781 q 692 841 713 831 q 615 851 672 851 q 610 860 610 851 q 615 868 610 868 l 690 867 q 786 864 751 864 q 874 867 821 864 l 932 868 q 936 860 936 868 q 932 851 936 851 q 875 843 894 851 q 847 815 856 835 q 831 753 838 794 l 763 358 q 629 79 731 178 q 388 -19 528 -19 z "},"Í":{"ha":454,"x_min":28,"x_max":571,"o":"m 32 0 q 28 8 28 0 q 32 17 28 17 q 92 24 72 17 q 122 51 111 31 q 139 113 132 71 l 253 756 q 258 800 258 792 q 241 841 258 831 q 178 851 224 851 q 174 860 174 851 q 178 868 174 868 l 242 867 q 326 864 294 864 q 421 867 368 864 l 479 868 q 483 860 483 868 q 479 851 483 851 q 419 843 439 851 q 390 815 400 835 q 372 753 379 794 l 258 113 q 253 65 253 86 q 270 26 253 36 q 333 17 288 17 q 336 8 336 17 q 333 0 336 0 q 274 1 296 0 l 182 3 l 96 1 q 32 0 74 0 m 256 942 q 249 948 250 942 q 251 957 247 954 q 374 1044 296 983 q 443 1097 438 1093 q 488 1092 450 1103 q 553 1067 525 1081 q 567 1050 582 1053 q 409 1003 481 1029 q 258 943 338 978 l 256 942 z "},"Ĭ":{"ha":454,"x_min":28,"x_max":518,"o":"m 32 0 q 28 8 28 0 q 32 17 28 17 q 92 24 72 17 q 122 51 111 31 q 139 113 132 71 l 253 756 q 258 800 258 792 q 241 841 258 831 q 178 851 224 851 q 174 860 174 851 q 178 868 174 868 l 242 867 q 326 864 294 864 q 421 867 368 864 l 479 868 q 483 860 483 868 q 479 851 483 851 q 419 843 439 851 q 390 815 400 835 q 372 753 379 794 l 258 113 q 253 65 253 86 q 270 26 253 36 q 333 17 288 17 q 336 8 336 17 q 333 0 336 0 q 274 1 296 0 l 182 3 l 96 1 q 32 0 74 0 m 343 924 q 248 959 285 924 q 211 1054 211 994 q 240 1069 211 1063 q 293 1076 268 1076 q 311 1072 311 1076 q 340 1015 315 1036 q 399 994 364 994 q 494 1067 460 994 q 503 1071 499 1071 q 514 1068 508 1071 q 518 1063 519 1065 q 442 960 489 996 q 343 924 394 924 z "},"Ǐ":{"ha":454,"x_min":28,"x_max":510,"o":"m 32 0 q 28 8 28 0 q 32 17 28 17 q 92 24 72 17 q 122 51 111 31 q 139 113 132 71 l 253 756 q 258 800 258 792 q 241 841 258 831 q 178 851 224 851 q 174 860 174 851 q 178 868 174 868 l 242 867 q 326 864 294 864 q 421 867 368 864 l 479 868 q 483 860 483 868 q 479 851 483 851 q 419 843 439 851 q 390 815 400 835 q 372 753 379 794 l 258 113 q 253 65 253 86 q 270 26 253 36 q 333 17 288 17 q 336 8 336 17 q 333 0 336 0 q 274 1 296 0 l 182 3 l 96 1 q 32 0 74 0 m 214 1090 l 214 1092 q 218 1098 214 1094 q 225 1100 222 1101 l 350 1038 l 500 1100 q 508 1097 503 1101 q 508 1090 513 1092 l 351 938 q 338 932 346 932 q 325 938 331 932 l 214 1090 z "},"Î":{"ha":454,"x_min":28,"x_max":488,"o":"m 32 0 q 28 8 28 0 q 32 17 28 17 q 92 24 72 17 q 122 51 111 31 q 139 113 132 71 l 253 756 q 258 800 258 792 q 241 841 258 831 q 178 851 224 851 q 174 860 174 851 q 178 868 174 868 l 242 867 q 326 864 294 864 q 421 867 368 864 l 479 868 q 483 860 483 868 q 479 851 483 851 q 419 843 439 851 q 390 815 400 835 q 372 753 379 794 l 258 113 q 253 65 253 86 q 270 26 253 36 q 333 17 288 17 q 336 8 336 17 q 333 0 336 0 q 274 1 296 0 l 182 3 l 96 1 q 32 0 74 0 m 200 917 q 193 920 196 917 q 193 926 190 924 l 350 1078 q 363 1085 354 1085 q 375 1078 371 1085 l 488 926 l 488 925 q 484 917 488 921 q 478 917 481 914 l 350 978 l 201 917 l 200 917 z "},"Ï":{"ha":454,"x_min":28,"x_max":531,"o":"m 32 0 q 28 8 28 0 q 32 17 28 17 q 92 24 72 17 q 122 51 111 31 q 139 113 132 71 l 253 756 q 258 800 258 792 q 241 841 258 831 q 178 851 224 851 q 174 860 174 851 q 178 868 174 868 l 242 867 q 326 864 294 864 q 421 867 368 864 l 479 868 q 483 860 483 868 q 479 851 483 851 q 419 843 439 851 q 390 815 400 835 q 372 753 379 794 l 258 113 q 253 65 253 86 q 270 26 253 36 q 333 17 288 17 q 336 8 336 17 q 333 0 336 0 q 274 1 296 0 l 182 3 l 96 1 q 32 0 74 0 m 261 983 q 209 1001 228 983 q 190 1053 190 1019 q 210 1101 190 1083 q 261 1119 229 1119 q 310 1102 293 1119 q 328 1053 328 1085 q 310 1001 328 1019 q 261 983 293 983 m 464 983 q 414 1001 432 983 q 396 1053 396 1019 q 414 1102 396 1085 q 464 1119 432 1119 q 513 1102 496 1119 q 531 1053 531 1085 q 513 1001 531 1019 q 464 983 496 983 z "},"İ":{"ha":454,"x_min":28,"x_max":483,"o":"m 32 0 q 28 8 28 0 q 32 17 28 17 q 92 24 72 17 q 122 51 111 31 q 139 113 132 71 l 253 756 q 258 800 258 792 q 241 841 258 831 q 178 851 224 851 q 174 860 174 851 q 178 868 174 868 l 242 867 q 326 864 294 864 q 421 867 368 864 l 479 868 q 483 860 483 868 q 479 851 483 851 q 419 843 439 851 q 390 815 400 835 q 372 753 379 794 l 258 113 q 253 65 253 86 q 270 26 253 36 q 333 17 288 17 q 336 8 336 17 q 333 0 336 0 q 274 1 296 0 l 182 3 l 96 1 q 32 0 74 0 m 358 989 q 306 1008 325 989 q 286 1061 286 1028 q 306 1112 286 1093 q 358 1131 325 1131 q 410 1112 392 1131 q 429 1061 429 1093 q 410 1008 429 1028 q 358 989 392 989 z "},"Ị":{"ha":454,"x_min":28,"x_max":483,"o":"m 32 0 q 28 8 28 0 q 32 17 28 17 q 92 24 72 17 q 122 51 111 31 q 139 113 132 71 l 253 756 q 258 800 258 792 q 241 841 258 831 q 178 851 224 851 q 174 860 174 851 q 178 868 174 868 l 242 867 q 326 864 294 864 q 421 867 368 864 l 479 868 q 483 860 483 868 q 479 851 483 851 q 419 843 439 851 q 390 815 400 835 q 372 753 379 794 l 258 113 q 253 65 253 86 q 270 26 253 36 q 333 17 288 17 q 336 8 336 17 q 333 0 336 0 q 274 1 296 0 l 182 3 l 96 1 q 32 0 74 0 m 151 -275 q 97 -256 117 -275 q 78 -201 78 -236 q 98 -152 78 -171 q 151 -133 118 -133 q 203 -152 185 -133 q 221 -201 221 -171 q 203 -256 221 -236 q 151 -275 185 -275 z "},"Ì":{"ha":454,"x_min":28,"x_max":483,"o":"m 32 0 q 28 8 28 0 q 32 17 28 17 q 92 24 72 17 q 122 51 111 31 q 139 113 132 71 l 253 756 q 258 800 258 792 q 241 841 258 831 q 178 851 224 851 q 174 860 174 851 q 178 868 174 868 l 242 867 q 326 864 294 864 q 421 867 368 864 l 479 868 q 483 860 483 868 q 479 851 483 851 q 419 843 439 851 q 390 815 400 835 q 372 753 379 794 l 258 113 q 253 65 253 86 q 270 26 253 36 q 333 17 288 17 q 336 8 336 17 q 333 0 336 0 q 274 1 296 0 l 182 3 l 96 1 q 32 0 74 0 m 454 957 q 326 1006 383 986 q 190 1050 269 1026 q 206 1068 174 1054 q 279 1092 238 1082 q 328 1096 321 1101 q 428 1003 369 1053 q 467 969 442 992 q 468 965 468 968 q 464 958 468 961 q 454 957 460 956 z "},"Ỉ":{"ha":454,"x_min":28,"x_max":483,"o":"m 32 0 q 28 8 28 0 q 32 17 28 17 q 92 24 72 17 q 122 51 111 31 q 139 113 132 71 l 253 756 q 258 800 258 792 q 241 841 258 831 q 178 851 224 851 q 174 860 174 851 q 178 868 174 868 l 242 867 q 326 864 294 864 q 421 867 368 864 l 479 868 q 483 860 483 868 q 479 851 483 851 q 419 843 439 851 q 390 815 400 835 q 372 753 379 794 l 258 113 q 253 65 253 86 q 270 26 253 36 q 333 17 288 17 q 336 8 336 17 q 333 0 336 0 q 274 1 296 0 l 182 3 l 96 1 q 32 0 74 0 m 340 906 q 333 902 340 903 q 324 906 325 901 q 322 929 322 914 q 328 972 322 953 q 349 1018 335 990 q 367 1060 361 1043 q 374 1097 374 1078 q 331 1143 374 1143 q 285 1132 310 1143 l 282 1131 q 275 1135 278 1131 q 275 1143 272 1140 q 382 1179 324 1179 q 449 1160 425 1179 q 474 1108 474 1140 q 456 1056 474 1081 q 403 999 438 1032 q 355 949 371 969 q 340 906 339 928 z "},"Ī":{"ha":454,"x_min":28,"x_max":535,"o":"m 32 0 q 28 8 28 0 q 32 17 28 17 q 92 24 72 17 q 122 51 111 31 q 139 113 132 71 l 253 756 q 258 800 258 792 q 241 841 258 831 q 178 851 224 851 q 174 860 174 851 q 178 868 174 868 l 242 867 q 326 864 294 864 q 421 867 368 864 l 479 868 q 483 860 483 868 q 479 851 483 851 q 419 843 439 851 q 390 815 400 835 q 372 753 379 794 l 258 113 q 253 65 253 86 q 270 26 253 36 q 333 17 288 17 q 336 8 336 17 q 333 0 336 0 q 274 1 296 0 l 182 3 l 96 1 q 32 0 74 0 m 200 992 q 192 999 194 992 q 189 1017 189 1007 q 192 1034 189 1026 q 200 1042 194 1042 l 522 1042 q 531 1034 528 1042 q 535 1017 535 1026 q 531 999 535 1007 q 522 992 528 992 l 200 992 z "},"Į":{"ha":454,"x_min":18,"x_max":483,"o":"m 479 868 q 483 860 483 868 q 479 851 483 851 q 419 843 439 851 q 390 815 400 835 q 372 753 379 794 l 258 113 q 253 65 253 86 q 270 26 253 36 q 333 17 288 17 q 336 8 336 17 q 333 0 336 0 q 279 1 299 0 l 201 3 q 126 -196 138 -103 q 124 -231 124 -221 q 140 -299 124 -274 q 189 -325 157 -325 q 250 -299 218 -325 l 253 -297 q 260 -302 257 -297 q 260 -310 263 -307 q 188 -365 221 -349 q 118 -382 156 -382 q 44 -351 71 -382 q 18 -271 18 -321 q 58 -141 18 -204 q 176 3 99 -78 l 94 1 q 32 0 72 0 q 28 8 28 0 q 32 17 28 17 q 92 24 72 17 q 122 51 111 31 q 139 113 132 71 l 253 756 q 258 800 258 792 q 241 841 258 831 q 178 851 224 851 q 174 860 174 851 q 178 868 174 868 l 242 867 q 326 864 294 864 q 421 867 368 864 l 479 868 z "},"Ĩ":{"ha":454,"x_min":28,"x_max":554,"o":"m 32 0 q 28 8 28 0 q 32 17 28 17 q 92 24 72 17 q 122 51 111 31 q 139 113 132 71 l 253 756 q 258 800 258 792 q 241 841 258 831 q 178 851 224 851 q 174 860 174 851 q 178 868 174 868 l 242 867 q 326 864 294 864 q 421 867 368 864 l 479 868 q 483 860 483 868 q 479 851 483 851 q 419 843 439 851 q 390 815 400 835 q 372 753 379 794 l 258 113 q 253 65 253 86 q 270 26 253 36 q 333 17 288 17 q 336 8 336 17 q 333 0 336 0 q 274 1 296 0 l 182 3 l 96 1 q 32 0 74 0 m 168 957 q 162 960 165 957 q 160 967 158 964 q 292 1071 229 1071 q 360 1057 307 1071 q 463 1036 428 1036 q 507 1044 490 1036 q 544 1074 524 1053 q 547 1075 544 1075 q 553 1071 550 1075 q 554 1064 556 1067 q 488 982 514 1003 q 428 961 461 961 q 349 976 400 961 q 299 989 325 983 q 251 994 274 994 q 207 987 221 994 q 169 957 193 979 l 168 957 z "},"J":{"ha":424,"x_min":-43,"x_max":471,"o":"m -32 -268 q -39 -262 -35 -269 q -40 -253 -43 -256 q 59 -140 22 -215 q 118 56 96 -64 l 242 756 q 246 800 246 783 q 228 841 246 831 q 167 851 211 851 q 163 860 163 851 q 167 868 163 868 l 228 867 q 315 864 281 864 q 410 867 354 864 l 467 868 q 471 860 471 868 q 467 851 471 851 q 408 843 428 851 q 378 815 388 835 q 360 753 368 796 l 243 93 q 191 -83 224 -15 q 106 -192 158 -150 q -32 -268 53 -233 z "},"Ĵ":{"ha":424,"x_min":-42,"x_max":479,"o":"m -32 -268 q -39 -262 -35 -269 q -40 -253 -43 -256 q 59 -140 22 -215 q 118 56 96 -64 l 242 756 q 246 800 246 783 q 228 841 246 831 q 167 851 211 851 q 163 860 163 851 q 167 868 163 868 l 228 867 q 315 864 281 864 q 410 867 354 864 l 467 868 q 471 860 471 868 q 467 851 471 851 q 408 843 428 851 q 378 815 388 835 q 360 753 368 796 l 243 93 q 191 -83 224 -15 q 106 -192 158 -150 q -32 -268 53 -233 m 192 917 q 185 920 188 917 q 185 926 182 924 l 342 1078 q 354 1085 346 1085 q 367 1078 363 1085 l 479 926 l 479 925 q 476 917 479 921 q 469 917 472 914 l 342 978 l 193 917 l 192 917 z "},"K":{"ha":854,"x_min":13,"x_max":900,"o":"m 896 868 q 900 860 900 868 q 896 851 900 851 q 773 819 842 851 q 642 729 704 788 l 447 551 l 579 293 q 684 105 650 160 q 741 33 718 50 q 800 17 764 17 q 804 8 804 17 q 800 0 804 0 l 674 0 q 592 8 607 0 q 544 88 576 15 q 483 217 513 160 l 354 467 l 297 415 l 243 113 q 238 84 242 103 q 235 56 235 65 q 251 24 235 32 q 313 17 267 17 q 317 8 317 17 q 313 0 317 0 q 253 1 274 0 l 164 3 l 78 1 q 17 0 56 0 q 13 8 13 0 q 17 17 13 17 q 77 24 57 17 q 108 51 97 31 q 126 113 118 71 l 240 756 q 246 800 246 792 q 228 841 246 831 q 165 851 211 851 q 163 860 163 851 q 165 868 163 868 l 228 867 q 313 864 281 864 q 401 867 346 864 l 465 868 q 468 860 468 868 q 465 851 468 851 q 405 843 425 851 q 375 815 385 835 q 357 753 365 796 l 304 456 l 608 738 q 656 814 656 781 q 596 851 656 851 q 593 860 593 851 q 596 868 593 868 l 660 867 q 764 864 724 864 q 850 867 806 864 l 896 868 z "},"Ḱ":{"ha":854,"x_min":13,"x_max":900,"o":"m 896 868 q 900 860 900 868 q 896 851 900 851 q 773 819 842 851 q 642 729 704 788 l 447 551 l 579 293 q 684 105 650 160 q 741 33 718 50 q 800 17 764 17 q 804 8 804 17 q 800 0 804 0 l 674 0 q 592 8 607 0 q 544 88 576 15 q 483 217 513 160 l 354 467 l 297 415 l 243 113 q 238 84 242 103 q 235 56 235 65 q 251 24 235 32 q 313 17 267 17 q 317 8 317 17 q 313 0 317 0 q 253 1 274 0 l 164 3 l 78 1 q 17 0 56 0 q 13 8 13 0 q 17 17 13 17 q 77 24 57 17 q 108 51 97 31 q 126 113 118 71 l 240 756 q 246 800 246 792 q 228 841 246 831 q 165 851 211 851 q 163 860 163 851 q 165 868 163 868 l 228 867 q 313 864 281 864 q 401 867 346 864 l 465 868 q 468 860 468 868 q 465 851 468 851 q 405 843 425 851 q 375 815 385 835 q 357 753 365 796 l 304 456 l 608 738 q 656 814 656 781 q 596 851 656 851 q 593 860 593 851 q 596 868 593 868 l 660 867 q 764 864 724 864 q 850 867 806 864 l 896 868 m 468 942 q 461 948 463 942 q 464 957 460 954 q 586 1044 508 983 q 656 1097 650 1093 q 700 1092 663 1103 q 766 1067 738 1081 q 779 1050 794 1053 q 622 1003 693 1029 q 471 943 550 978 l 468 942 z "},"Ǩ":{"ha":854,"x_min":13,"x_max":900,"o":"m 896 868 q 900 860 900 868 q 896 851 900 851 q 773 819 842 851 q 642 729 704 788 l 447 551 l 579 293 q 684 105 650 160 q 741 33 718 50 q 800 17 764 17 q 804 8 804 17 q 800 0 804 0 l 674 0 q 592 8 607 0 q 544 88 576 15 q 483 217 513 160 l 354 467 l 297 415 l 243 113 q 238 84 242 103 q 235 56 235 65 q 251 24 235 32 q 313 17 267 17 q 317 8 317 17 q 313 0 317 0 q 253 1 274 0 l 164 3 l 78 1 q 17 0 56 0 q 13 8 13 0 q 17 17 13 17 q 77 24 57 17 q 108 51 97 31 q 126 113 118 71 l 240 756 q 246 800 246 792 q 228 841 246 831 q 165 851 211 851 q 163 860 163 851 q 165 868 163 868 l 228 867 q 313 864 281 864 q 401 867 346 864 l 465 868 q 468 860 468 868 q 465 851 468 851 q 405 843 425 851 q 375 815 385 835 q 357 753 365 796 l 304 456 l 608 738 q 656 814 656 781 q 596 851 656 851 q 593 860 593 851 q 596 868 593 868 l 660 867 q 764 864 724 864 q 850 867 806 864 l 896 868 m 426 1090 l 426 1092 q 431 1098 426 1094 q 438 1100 435 1101 l 563 1038 l 713 1100 q 720 1097 715 1101 q 721 1090 725 1092 l 564 938 q 550 932 558 932 q 538 938 543 932 l 426 1090 z "},"Ķ":{"ha":854,"x_min":13,"x_max":900,"o":"m 896 868 q 900 860 900 868 q 896 851 900 851 q 773 819 842 851 q 642 729 704 788 l 447 551 l 579 293 q 684 105 650 160 q 741 33 718 50 q 800 17 764 17 q 804 8 804 17 q 800 0 804 0 l 674 0 q 592 8 607 0 q 544 88 576 15 q 483 217 513 160 l 354 467 l 297 415 l 243 113 q 238 84 242 103 q 235 56 235 65 q 251 24 235 32 q 313 17 267 17 q 317 8 317 17 q 313 0 317 0 q 253 1 274 0 l 164 3 l 78 1 q 17 0 56 0 q 13 8 13 0 q 17 17 13 17 q 77 24 57 17 q 108 51 97 31 q 126 113 118 71 l 240 756 q 246 800 246 792 q 228 841 246 831 q 165 851 211 851 q 163 860 163 851 q 165 868 163 868 l 228 867 q 313 864 281 864 q 401 867 346 864 l 465 868 q 468 860 468 868 q 465 851 468 851 q 405 843 425 851 q 375 815 385 835 q 357 753 365 796 l 304 456 l 608 738 q 656 814 656 781 q 596 851 656 851 q 593 860 593 851 q 596 868 593 868 l 660 867 q 764 864 724 864 q 850 867 806 864 l 896 868 m 389 -104 q 447 -128 428 -104 q 467 -190 467 -151 q 431 -296 467 -247 q 336 -382 396 -344 l 333 -383 q 325 -377 328 -383 q 326 -368 322 -371 q 406 -271 397 -322 q 408 -249 408 -254 l 407 -236 q 378 -243 396 -243 q 328 -224 346 -243 q 311 -176 311 -204 q 331 -124 311 -144 q 389 -104 351 -104 z "},"L":{"ha":697,"x_min":15,"x_max":676,"o":"m 18 0 q 15 8 15 0 q 18 17 15 17 q 78 24 58 17 q 108 50 99 31 q 126 113 118 69 l 240 756 q 246 800 246 792 q 228 841 246 831 q 165 851 211 851 q 163 860 163 851 q 165 868 163 868 l 228 867 q 313 864 281 864 q 401 867 346 864 l 465 868 q 468 860 468 868 q 465 851 468 851 q 405 844 425 851 q 375 816 385 836 q 357 754 365 796 l 244 118 q 240 75 240 92 q 254 38 240 47 q 304 28 268 28 l 375 28 q 538 78 468 28 q 660 229 607 128 q 665 231 660 231 q 675 225 676 231 q 628 21 643 110 q 620 5 625 10 q 606 0 615 0 l 18 0 z "},"Ĺ":{"ha":697,"x_min":15,"x_max":675,"o":"m 18 0 q 15 8 15 0 q 18 17 15 17 q 78 24 58 17 q 108 50 99 31 q 126 113 118 69 l 240 756 q 246 800 246 792 q 228 841 246 831 q 165 851 211 851 q 163 860 163 851 q 165 868 163 868 l 228 867 q 313 864 281 864 q 401 867 346 864 l 465 868 q 468 860 468 868 q 465 851 468 851 q 405 844 425 851 q 375 816 385 836 q 357 754 365 796 l 244 118 q 240 75 240 92 q 254 38 240 47 q 304 28 268 28 l 375 28 q 538 78 468 28 q 660 229 607 128 q 665 231 660 231 q 675 225 676 231 q 628 21 643 110 q 620 5 625 10 q 606 0 615 0 l 18 0 m 242 942 q 235 948 236 942 q 238 957 233 954 q 360 1044 282 983 q 429 1097 424 1093 q 474 1092 436 1103 q 540 1067 511 1081 q 553 1050 568 1053 q 395 1003 467 1029 q 244 943 324 978 l 242 942 z "},"Ľ":{"ha":697,"x_min":15,"x_max":685,"o":"m 18 0 q 15 8 15 0 q 18 17 15 17 q 78 24 58 17 q 108 50 99 31 q 126 113 118 69 l 240 756 q 246 800 246 792 q 228 841 246 831 q 165 851 211 851 q 163 860 163 851 q 165 868 163 868 l 228 867 q 313 864 281 864 q 401 867 346 864 l 465 868 q 468 860 468 868 q 465 851 468 851 q 405 844 425 851 q 375 816 385 836 q 357 754 365 796 l 244 118 q 240 75 240 92 q 254 38 240 47 q 304 28 268 28 l 375 28 q 538 78 468 28 q 660 229 607 128 q 665 231 660 231 q 675 225 676 231 q 628 21 643 110 q 620 5 625 10 q 606 0 615 0 l 18 0 m 608 868 q 631 863 611 875 q 669 835 651 851 q 685 813 688 819 l 567 490 q 558 488 565 488 q 551 490 551 488 l 608 868 z "},"Ļ":{"ha":697,"x_min":15,"x_max":675,"o":"m 18 0 q 15 8 15 0 q 18 17 15 17 q 78 24 58 17 q 108 50 99 31 q 126 113 118 69 l 240 756 q 246 800 246 792 q 228 841 246 831 q 165 851 211 851 q 163 860 163 851 q 165 868 163 868 l 228 867 q 313 864 281 864 q 401 867 346 864 l 465 868 q 468 860 468 868 q 465 851 468 851 q 405 844 425 851 q 375 816 385 836 q 357 754 365 796 l 244 118 q 240 75 240 92 q 254 38 240 47 q 304 28 268 28 l 375 28 q 538 78 468 28 q 660 229 607 128 q 665 231 660 231 q 675 225 676 231 q 628 21 643 110 q 620 5 625 10 q 606 0 615 0 l 18 0 m 329 -104 q 388 -128 368 -104 q 407 -190 407 -151 q 372 -296 407 -247 q 276 -382 336 -344 l 274 -383 q 265 -377 268 -383 q 267 -368 263 -371 q 346 -271 338 -322 q 349 -249 349 -254 l 347 -236 q 318 -243 336 -243 q 269 -224 286 -243 q 251 -176 251 -204 q 272 -124 251 -144 q 329 -104 292 -104 z "},"Ŀ":{"ha":697,"x_min":15,"x_max":678,"o":"m 18 0 q 15 8 15 0 q 18 17 15 17 q 78 24 58 17 q 108 50 99 31 q 126 113 118 69 l 240 756 q 246 800 246 792 q 228 841 246 831 q 165 851 211 851 q 163 860 163 851 q 165 868 163 868 l 228 867 q 313 864 281 864 q 401 867 346 864 l 465 868 q 468 860 468 868 q 465 851 468 851 q 405 844 425 851 q 375 816 385 836 q 357 754 365 796 l 244 118 q 240 75 240 92 q 254 38 240 47 q 304 28 268 28 l 375 28 q 538 78 468 28 q 660 229 607 128 q 665 231 660 231 q 675 225 676 231 q 628 21 643 110 q 620 5 625 10 q 606 0 615 0 l 18 0 m 608 381 q 554 400 574 381 q 535 453 535 419 q 554 503 535 485 q 608 522 574 522 q 660 503 642 522 q 678 453 678 485 q 660 400 678 419 q 608 381 642 381 z "},"Ḷ":{"ha":697,"x_min":15,"x_max":675,"o":"m 18 0 q 15 8 15 0 q 18 17 15 17 q 78 24 58 17 q 108 50 99 31 q 126 113 118 69 l 240 756 q 246 800 246 792 q 228 841 246 831 q 165 851 211 851 q 163 860 163 851 q 165 868 163 868 l 228 867 q 313 864 281 864 q 401 867 346 864 l 465 868 q 468 860 468 868 q 465 851 468 851 q 405 844 425 851 q 375 816 385 836 q 357 754 365 796 l 244 118 q 240 75 240 92 q 254 38 240 47 q 304 28 268 28 l 375 28 q 538 78 468 28 q 660 229 607 128 q 665 231 660 231 q 675 225 676 231 q 628 21 643 110 q 620 5 625 10 q 606 0 615 0 l 18 0 m 328 -275 q 274 -256 293 -275 q 254 -201 254 -236 q 274 -152 254 -171 q 328 -133 294 -133 q 379 -152 361 -133 q 397 -201 397 -171 q 379 -256 397 -236 q 328 -275 361 -275 z "},"Ḹ":{"ha":697,"x_min":15,"x_max":675,"o":"m 18 0 q 15 8 15 0 q 18 17 15 17 q 78 24 58 17 q 108 50 99 31 q 126 113 118 69 l 240 756 q 246 800 246 792 q 228 841 246 831 q 165 851 211 851 q 163 860 163 851 q 165 868 163 868 l 228 867 q 313 864 281 864 q 401 867 346 864 l 465 868 q 468 860 468 868 q 465 851 468 851 q 405 844 425 851 q 375 816 385 836 q 357 754 365 796 l 244 118 q 240 75 240 92 q 254 38 240 47 q 304 28 268 28 l 375 28 q 538 78 468 28 q 660 229 607 128 q 665 231 660 231 q 675 225 676 231 q 628 21 643 110 q 620 5 625 10 q 606 0 615 0 l 18 0 m 328 -275 q 274 -256 293 -275 q 254 -201 254 -236 q 274 -152 254 -171 q 328 -133 294 -133 q 379 -152 361 -133 q 397 -201 397 -171 q 379 -256 397 -236 q 328 -275 361 -275 m 139 990 q 128 1014 128 990 q 139 1038 128 1038 l 488 1038 q 497 1031 493 1038 q 500 1014 500 1024 q 497 997 500 1004 q 488 990 493 990 l 139 990 z "},"Ḻ":{"ha":697,"x_min":15,"x_max":675,"o":"m 18 0 q 15 8 15 0 q 18 17 15 17 q 78 24 58 17 q 108 50 99 31 q 126 113 118 69 l 240 756 q 246 800 246 792 q 228 841 246 831 q 165 851 211 851 q 163 860 163 851 q 165 868 163 868 l 228 867 q 313 864 281 864 q 401 867 346 864 l 465 868 q 468 860 468 868 q 465 851 468 851 q 405 844 425 851 q 375 816 385 836 q 357 754 365 796 l 244 118 q 240 75 240 92 q 254 38 240 47 q 304 28 268 28 l 375 28 q 538 78 468 28 q 660 229 607 128 q 665 231 660 231 q 675 225 676 231 q 628 21 643 110 q 620 5 625 10 q 606 0 615 0 l 18 0 m 189 -168 q 178 -143 178 -168 q 189 -118 178 -118 l 511 -118 q 520 -126 517 -118 q 524 -143 524 -133 q 520 -160 524 -153 q 511 -168 517 -168 l 189 -168 z "},"Ł":{"ha":697,"x_min":15,"x_max":676,"o":"m 660 229 q 665 231 660 231 q 675 225 676 231 q 628 21 643 110 q 620 5 625 10 q 606 0 615 0 l 18 0 q 15 8 15 0 q 18 17 15 17 q 78 24 58 17 q 108 50 99 31 q 126 113 118 69 l 172 374 l 103 333 l 101 333 q 90 344 96 333 q 89 356 85 354 l 179 407 l 240 756 q 246 800 246 792 q 228 841 246 831 q 165 851 211 851 q 163 860 163 851 q 165 868 163 868 l 228 867 q 313 864 281 864 q 401 867 346 864 l 465 868 q 468 860 468 868 q 465 851 468 851 q 405 844 425 851 q 375 816 385 836 q 357 754 365 796 l 308 482 l 393 531 l 394 531 q 406 520 400 531 q 406 508 411 510 l 303 449 l 244 118 q 240 75 240 92 q 254 38 240 47 q 304 28 268 28 l 375 28 q 538 78 468 28 q 660 229 607 128 z "},"M":{"ha":1026,"x_min":17,"x_max":1069,"o":"m 1067 868 q 1069 860 1069 868 q 1067 851 1069 851 q 994 833 1018 851 q 963 758 971 814 l 867 113 q 863 69 863 88 q 879 27 863 38 q 942 17 896 17 q 946 8 946 17 q 942 0 946 0 q 882 1 904 0 l 792 3 l 704 1 q 643 0 682 0 q 639 8 639 0 q 643 17 639 17 q 704 24 685 17 q 733 51 724 31 q 750 113 743 71 l 849 776 l 463 10 q 453 4 460 4 q 443 11 446 4 l 288 744 l 183 171 q 178 115 178 129 q 197 42 178 67 q 254 17 217 17 q 258 8 258 17 q 254 0 258 0 q 207 1 224 0 l 136 3 l 74 1 q 21 0 56 0 q 17 8 17 0 q 21 17 17 17 q 101 56 68 17 q 149 168 135 96 l 267 803 q 171 851 238 851 q 168 860 168 851 q 171 868 168 868 q 207 867 194 868 l 256 865 l 325 867 q 354 868 338 868 q 378 854 369 868 q 397 796 388 840 l 525 190 l 846 833 q 896 868 864 868 q 925 867 913 868 l 975 865 l 1029 867 q 1067 868 1042 868 z "},"Ṁ":{"ha":1026,"x_min":17,"x_max":1069,"o":"m 1067 868 q 1069 860 1069 868 q 1067 851 1069 851 q 994 833 1018 851 q 963 758 971 814 l 867 113 q 863 69 863 88 q 879 27 863 38 q 942 17 896 17 q 946 8 946 17 q 942 0 946 0 q 882 1 904 0 l 792 3 l 704 1 q 643 0 682 0 q 639 8 639 0 q 643 17 639 17 q 704 24 685 17 q 733 51 724 31 q 750 113 743 71 l 849 776 l 463 10 q 453 4 460 4 q 443 11 446 4 l 288 744 l 183 171 q 178 115 178 129 q 197 42 178 67 q 254 17 217 17 q 258 8 258 17 q 254 0 258 0 q 207 1 224 0 l 136 3 l 74 1 q 21 0 56 0 q 17 8 17 0 q 21 17 17 17 q 101 56 68 17 q 149 168 135 96 l 267 803 q 171 851 238 851 q 168 860 168 851 q 171 868 168 868 q 207 867 194 868 l 256 865 l 325 867 q 354 868 338 868 q 378 854 369 868 q 397 796 388 840 l 525 190 l 846 833 q 896 868 864 868 q 925 867 913 868 l 975 865 l 1029 867 q 1067 868 1042 868 m 644 989 q 592 1008 611 989 q 572 1061 572 1028 q 592 1112 572 1093 q 644 1131 611 1131 q 697 1112 678 1131 q 715 1061 715 1093 q 697 1008 715 1028 q 644 989 678 989 z "},"Ṃ":{"ha":1026,"x_min":17,"x_max":1069,"o":"m 1067 868 q 1069 860 1069 868 q 1067 851 1069 851 q 994 833 1018 851 q 963 758 971 814 l 867 113 q 863 69 863 88 q 879 27 863 38 q 942 17 896 17 q 946 8 946 17 q 942 0 946 0 q 882 1 904 0 l 792 3 l 704 1 q 643 0 682 0 q 639 8 639 0 q 643 17 639 17 q 704 24 685 17 q 733 51 724 31 q 750 113 743 71 l 849 776 l 463 10 q 453 4 460 4 q 443 11 446 4 l 288 744 l 183 171 q 178 115 178 129 q 197 42 178 67 q 254 17 217 17 q 258 8 258 17 q 254 0 258 0 q 207 1 224 0 l 136 3 l 74 1 q 21 0 56 0 q 17 8 17 0 q 21 17 17 17 q 101 56 68 17 q 149 168 135 96 l 267 803 q 171 851 238 851 q 168 860 168 851 q 171 868 168 868 q 207 867 194 868 l 256 865 l 325 867 q 354 868 338 868 q 378 854 369 868 q 397 796 388 840 l 525 190 l 846 833 q 896 868 864 868 q 925 867 913 868 l 975 865 l 1029 867 q 1067 868 1042 868 m 436 -275 q 382 -256 401 -275 q 363 -201 363 -236 q 383 -152 363 -171 q 436 -133 403 -133 q 488 -152 469 -133 q 506 -201 506 -171 q 488 -256 506 -236 q 436 -275 469 -275 z "},"N":{"ha":908,"x_min":0,"x_max":978,"o":"m 975 868 q 978 860 978 868 q 975 851 978 851 q 888 815 924 851 q 840 711 853 778 l 713 -11 q 706 -17 713 -15 q 693 -19 700 -19 q 678 -14 682 -19 l 275 735 l 172 157 q 168 114 168 135 q 257 17 168 17 q 260 8 260 17 q 257 0 260 0 q 206 1 224 0 l 131 3 l 63 1 q 4 0 42 0 q 0 8 0 0 q 4 17 0 17 q 91 53 56 17 q 138 157 126 89 l 250 781 q 201 835 225 819 q 150 851 178 851 q 146 860 146 851 q 150 868 146 868 l 208 867 q 261 865 228 865 q 311 867 290 865 q 340 868 332 868 q 353 863 349 868 q 363 843 357 858 q 385 796 369 825 l 711 189 l 806 711 q 810 756 810 736 q 788 827 810 803 q 722 851 765 851 q 718 860 718 851 q 722 868 718 868 l 771 867 q 847 864 815 864 q 918 867 871 864 l 975 868 z "},"Ń":{"ha":908,"x_min":0,"x_max":978,"o":"m 975 868 q 978 860 978 868 q 975 851 978 851 q 888 815 924 851 q 840 711 853 778 l 713 -11 q 706 -17 713 -15 q 693 -19 700 -19 q 678 -14 682 -19 l 275 735 l 172 157 q 168 114 168 135 q 257 17 168 17 q 260 8 260 17 q 257 0 260 0 q 206 1 224 0 l 131 3 l 63 1 q 4 0 42 0 q 0 8 0 0 q 4 17 0 17 q 91 53 56 17 q 138 157 126 89 l 250 781 q 201 835 225 819 q 150 851 178 851 q 146 860 146 851 q 150 868 146 868 l 208 867 q 261 865 228 865 q 311 867 290 865 q 340 868 332 868 q 353 863 349 868 q 363 843 357 858 q 385 796 369 825 l 711 189 l 806 711 q 810 756 810 736 q 788 827 810 803 q 722 851 765 851 q 718 860 718 851 q 722 868 718 868 l 771 867 q 847 864 815 864 q 918 867 871 864 l 975 868 m 481 942 q 474 948 475 942 q 476 957 472 954 q 599 1044 521 983 q 668 1097 663 1093 q 713 1092 675 1103 q 778 1067 750 1081 q 792 1050 807 1053 q 634 1003 706 1029 q 483 943 563 978 l 481 942 z "},"Ň":{"ha":908,"x_min":0,"x_max":978,"o":"m 975 868 q 978 860 978 868 q 975 851 978 851 q 888 815 924 851 q 840 711 853 778 l 713 -11 q 706 -17 713 -15 q 693 -19 700 -19 q 678 -14 682 -19 l 275 735 l 172 157 q 168 114 168 135 q 257 17 168 17 q 260 8 260 17 q 257 0 260 0 q 206 1 224 0 l 131 3 l 63 1 q 4 0 42 0 q 0 8 0 0 q 4 17 0 17 q 91 53 56 17 q 138 157 126 89 l 250 781 q 201 835 225 819 q 150 851 178 851 q 146 860 146 851 q 150 868 146 868 l 208 867 q 261 865 228 865 q 311 867 290 865 q 340 868 332 868 q 353 863 349 868 q 363 843 357 858 q 385 796 369 825 l 711 189 l 806 711 q 810 756 810 736 q 788 827 810 803 q 722 851 765 851 q 718 860 718 851 q 722 868 718 868 l 771 867 q 847 864 815 864 q 918 867 871 864 l 975 868 m 439 1090 l 439 1092 q 443 1098 439 1094 q 450 1100 447 1101 l 575 1038 l 725 1100 q 733 1097 728 1101 q 733 1090 738 1092 l 576 938 q 563 932 571 932 q 550 938 556 932 l 439 1090 z "},"Ņ":{"ha":908,"x_min":0,"x_max":978,"o":"m 975 868 q 978 860 978 868 q 975 851 978 851 q 888 815 924 851 q 840 711 853 778 l 713 -11 q 706 -17 713 -15 q 693 -19 700 -19 q 678 -14 682 -19 l 275 735 l 172 157 q 168 114 168 135 q 257 17 168 17 q 260 8 260 17 q 257 0 260 0 q 206 1 224 0 l 131 3 l 63 1 q 4 0 42 0 q 0 8 0 0 q 4 17 0 17 q 91 53 56 17 q 138 157 126 89 l 250 781 q 201 835 225 819 q 150 851 178 851 q 146 860 146 851 q 150 868 146 868 l 208 867 q 261 865 228 865 q 311 867 290 865 q 340 868 332 868 q 353 863 349 868 q 363 843 357 858 q 385 796 369 825 l 711 189 l 806 711 q 810 756 810 736 q 788 827 810 803 q 722 851 765 851 q 718 860 718 851 q 722 868 718 868 l 771 867 q 847 864 815 864 q 918 867 871 864 l 975 868 m 407 -104 q 465 -128 446 -104 q 485 -190 485 -151 q 449 -296 485 -247 q 354 -382 414 -344 l 351 -383 q 343 -377 346 -383 q 344 -368 340 -371 q 424 -271 415 -322 q 426 -249 426 -254 l 425 -236 q 396 -243 414 -243 q 347 -224 364 -243 q 329 -176 329 -204 q 349 -124 329 -144 q 407 -104 369 -104 z "},"Ṅ":{"ha":908,"x_min":0,"x_max":978,"o":"m 975 868 q 978 860 978 868 q 975 851 978 851 q 888 815 924 851 q 840 711 853 778 l 713 -11 q 706 -17 713 -15 q 693 -19 700 -19 q 678 -14 682 -19 l 275 735 l 172 157 q 168 114 168 135 q 257 17 168 17 q 260 8 260 17 q 257 0 260 0 q 206 1 224 0 l 131 3 l 63 1 q 4 0 42 0 q 0 8 0 0 q 4 17 0 17 q 91 53 56 17 q 138 157 126 89 l 250 781 q 201 835 225 819 q 150 851 178 851 q 146 860 146 851 q 150 868 146 868 l 208 867 q 261 865 228 865 q 311 867 290 865 q 340 868 332 868 q 353 863 349 868 q 363 843 357 858 q 385 796 369 825 l 711 189 l 806 711 q 810 756 810 736 q 788 827 810 803 q 722 851 765 851 q 718 860 718 851 q 722 868 718 868 l 771 867 q 847 864 815 864 q 918 867 871 864 l 975 868 m 583 989 q 531 1008 550 989 q 511 1061 511 1028 q 531 1112 511 1093 q 583 1131 550 1131 q 635 1112 617 1131 q 654 1061 654 1093 q 635 1008 654 1028 q 583 989 617 989 z "},"Ṇ":{"ha":908,"x_min":0,"x_max":978,"o":"m 975 868 q 978 860 978 868 q 975 851 978 851 q 888 815 924 851 q 840 711 853 778 l 713 -11 q 706 -17 713 -15 q 693 -19 700 -19 q 678 -14 682 -19 l 275 735 l 172 157 q 168 114 168 135 q 257 17 168 17 q 260 8 260 17 q 257 0 260 0 q 206 1 224 0 l 131 3 l 63 1 q 4 0 42 0 q 0 8 0 0 q 4 17 0 17 q 91 53 56 17 q 138 157 126 89 l 250 781 q 201 835 225 819 q 150 851 178 851 q 146 860 146 851 q 150 868 146 868 l 208 867 q 261 865 228 865 q 311 867 290 865 q 340 868 332 868 q 353 863 349 868 q 363 843 357 858 q 385 796 369 825 l 711 189 l 806 711 q 810 756 810 736 q 788 827 810 803 q 722 851 765 851 q 718 860 718 851 q 722 868 718 868 l 771 867 q 847 864 815 864 q 918 867 871 864 l 975 868 m 406 -275 q 351 -256 371 -275 q 332 -201 332 -236 q 352 -152 332 -171 q 406 -133 372 -133 q 457 -152 439 -133 q 475 -201 475 -171 q 457 -256 475 -236 q 406 -275 439 -275 z "},"Ŋ":{"ha":903,"x_min":0,"x_max":978,"o":"m 975 868 q 978 860 978 868 q 975 851 978 851 q 888 815 924 851 q 840 711 853 778 l 713 -11 l 713 -12 q 497 -265 664 -265 q 409 -241 443 -265 q 375 -179 375 -217 q 394 -126 375 -144 q 446 -108 414 -108 q 488 -122 476 -108 q 507 -167 499 -136 q 522 -203 514 -192 q 553 -215 531 -215 q 626 -165 594 -215 q 676 -12 658 -115 l 275 735 l 172 157 q 168 114 168 135 q 257 17 168 17 q 260 8 260 17 q 257 0 260 0 q 206 1 224 0 l 131 3 l 63 1 q 4 0 42 0 q 0 8 0 0 q 4 17 0 17 q 91 53 56 17 q 138 157 126 89 l 250 781 q 201 835 225 819 q 150 851 178 851 q 146 860 146 851 q 150 868 146 868 l 208 867 q 261 865 228 865 q 311 867 290 865 q 340 868 332 868 q 353 863 349 868 q 363 843 357 858 q 385 796 369 825 l 711 189 l 806 711 q 810 756 810 736 q 788 827 810 803 q 722 851 765 851 q 718 860 718 851 q 722 868 718 868 l 771 867 q 847 864 815 864 q 918 867 871 864 l 975 868 z "},"Ṉ":{"ha":908,"x_min":0,"x_max":978,"o":"m 975 868 q 978 860 978 868 q 975 851 978 851 q 888 815 924 851 q 840 711 853 778 l 713 -11 q 706 -17 713 -15 q 693 -19 700 -19 q 678 -14 682 -19 l 275 735 l 172 157 q 168 114 168 135 q 257 17 168 17 q 260 8 260 17 q 257 0 260 0 q 206 1 224 0 l 131 3 l 63 1 q 4 0 42 0 q 0 8 0 0 q 4 17 0 17 q 91 53 56 17 q 138 157 126 89 l 250 781 q 201 835 225 819 q 150 851 178 851 q 146 860 146 851 q 150 868 146 868 l 208 867 q 261 865 228 865 q 311 867 290 865 q 340 868 332 868 q 353 863 349 868 q 363 843 357 858 q 385 796 369 825 l 711 189 l 806 711 q 810 756 810 736 q 788 827 810 803 q 722 851 765 851 q 718 860 718 851 q 722 868 718 868 l 771 867 q 847 864 815 864 q 918 867 871 864 l 975 868 m 267 -168 q 256 -143 256 -168 q 267 -118 256 -118 l 589 -118 q 598 -126 594 -118 q 601 -143 601 -133 q 598 -160 601 -153 q 589 -168 594 -168 l 267 -168 z "},"Ñ":{"ha":908,"x_min":0,"x_max":978,"o":"m 975 868 q 978 860 978 868 q 975 851 978 851 q 888 815 924 851 q 840 711 853 778 l 713 -11 q 706 -17 713 -15 q 693 -19 700 -19 q 678 -14 682 -19 l 275 735 l 172 157 q 168 114 168 135 q 257 17 168 17 q 260 8 260 17 q 257 0 260 0 q 206 1 224 0 l 131 3 l 63 1 q 4 0 42 0 q 0 8 0 0 q 4 17 0 17 q 91 53 56 17 q 138 157 126 89 l 250 781 q 201 835 225 819 q 150 851 178 851 q 146 860 146 851 q 150 868 146 868 l 208 867 q 261 865 228 865 q 311 867 290 865 q 340 868 332 868 q 353 863 349 868 q 363 843 357 858 q 385 796 369 825 l 711 189 l 806 711 q 810 756 810 736 q 788 827 810 803 q 722 851 765 851 q 718 860 718 851 q 722 868 718 868 l 771 867 q 847 864 815 864 q 918 867 871 864 l 975 868 m 400 957 q 397 956 400 956 q 392 960 394 956 q 390 967 389 964 q 453 1041 422 1011 q 524 1071 485 1071 q 590 1057 540 1071 q 693 1036 658 1036 q 738 1044 721 1036 q 776 1074 756 1053 l 778 1074 q 785 1070 782 1074 q 786 1064 788 1067 q 719 981 746 1001 q 660 960 693 960 q 581 976 636 960 q 544 986 575 978 q 483 994 513 994 q 442 988 456 994 q 417 972 428 982 q 400 957 406 961 z "},"O":{"ha":908,"x_min":78,"x_max":890,"o":"m 392 -17 q 224 28 294 -17 q 115 153 153 74 q 78 333 78 233 q 88 435 78 386 q 180 665 110 563 q 352 826 250 768 q 569 883 454 883 q 742 839 669 883 q 852 716 814 794 q 890 538 890 638 q 881 435 890 483 q 783 198 857 300 q 606 40 710 96 q 392 -17 501 -17 m 451 19 q 636 110 557 19 q 744 361 715 201 q 757 496 757 431 q 728 678 757 597 q 645 804 700 758 q 515 850 590 850 q 329 758 408 850 q 222 508 250 665 q 210 376 210 442 q 238 195 210 276 q 321 67 267 114 q 451 19 375 19 z "},"Ó":{"ha":908,"x_min":78,"x_max":890,"o":"m 392 -17 q 224 28 294 -17 q 115 153 153 74 q 78 333 78 233 q 88 435 78 386 q 180 665 110 563 q 352 826 250 768 q 569 883 454 883 q 742 839 669 883 q 852 716 814 794 q 890 538 890 638 q 881 435 890 483 q 783 198 857 300 q 606 40 710 96 q 392 -17 501 -17 m 451 19 q 636 110 557 19 q 744 361 715 201 q 757 496 757 431 q 728 678 757 597 q 645 804 700 758 q 515 850 590 850 q 329 758 408 850 q 222 508 250 665 q 210 376 210 442 q 238 195 210 276 q 321 67 267 114 q 451 19 375 19 m 482 942 q 475 948 476 942 q 478 957 474 954 q 600 1044 522 983 q 669 1097 664 1093 q 714 1092 676 1103 q 780 1067 751 1081 q 793 1050 808 1053 q 635 1003 707 1029 q 485 943 564 978 l 482 942 z "},"Ŏ":{"ha":908,"x_min":78,"x_max":890,"o":"m 392 -17 q 224 28 294 -17 q 115 153 153 74 q 78 333 78 233 q 88 435 78 386 q 180 665 110 563 q 352 826 250 768 q 569 883 454 883 q 742 839 669 883 q 852 716 814 794 q 890 538 890 638 q 881 435 890 483 q 783 198 857 300 q 606 40 710 96 q 392 -17 501 -17 m 451 19 q 636 110 557 19 q 744 361 715 201 q 757 496 757 431 q 728 678 757 597 q 645 804 700 758 q 515 850 590 850 q 329 758 408 850 q 222 508 250 665 q 210 376 210 442 q 238 195 210 276 q 321 67 267 114 q 451 19 375 19 m 569 924 q 474 959 511 924 q 438 1054 438 994 q 466 1069 438 1063 q 519 1076 494 1076 q 538 1072 538 1076 q 566 1015 542 1036 q 625 994 590 994 q 721 1067 686 994 q 729 1071 725 1071 q 740 1068 735 1071 q 744 1063 746 1065 q 668 960 715 996 q 569 924 621 924 z "},"Ǒ":{"ha":908,"x_min":78,"x_max":890,"o":"m 392 -17 q 224 28 294 -17 q 115 153 153 74 q 78 333 78 233 q 88 435 78 386 q 180 665 110 563 q 352 826 250 768 q 569 883 454 883 q 742 839 669 883 q 852 716 814 794 q 890 538 890 638 q 881 435 890 483 q 783 198 857 300 q 606 40 710 96 q 392 -17 501 -17 m 451 19 q 636 110 557 19 q 744 361 715 201 q 757 496 757 431 q 728 678 757 597 q 645 804 700 758 q 515 850 590 850 q 329 758 408 850 q 222 508 250 665 q 210 376 210 442 q 238 195 210 276 q 321 67 267 114 q 451 19 375 19 m 440 1090 l 440 1092 q 444 1098 440 1094 q 451 1100 449 1101 l 576 1038 l 726 1100 q 734 1097 729 1101 q 735 1090 739 1092 l 578 938 q 564 932 572 932 q 551 938 557 932 l 440 1090 z "},"Ô":{"ha":908,"x_min":78,"x_max":890,"o":"m 392 -17 q 224 28 294 -17 q 115 153 153 74 q 78 333 78 233 q 88 435 78 386 q 180 665 110 563 q 352 826 250 768 q 569 883 454 883 q 742 839 669 883 q 852 716 814 794 q 890 538 890 638 q 881 435 890 483 q 783 198 857 300 q 606 40 710 96 q 392 -17 501 -17 m 451 19 q 636 110 557 19 q 744 361 715 201 q 757 496 757 431 q 728 678 757 597 q 645 804 700 758 q 515 850 590 850 q 329 758 408 850 q 222 508 250 665 q 210 376 210 442 q 238 195 210 276 q 321 67 267 114 q 451 19 375 19 m 426 917 q 419 920 422 917 q 419 926 417 924 l 576 1078 q 589 1085 581 1085 q 601 1078 597 1085 l 714 926 l 714 925 q 710 917 714 921 q 704 917 707 914 l 576 978 l 428 917 l 426 917 z "},"Ố":{"ha":908,"x_min":78,"x_max":903,"o":"m 392 -17 q 224 28 294 -17 q 115 153 153 74 q 78 333 78 233 q 88 435 78 386 q 180 665 110 563 q 352 826 250 768 q 569 883 454 883 q 742 839 669 883 q 852 716 814 794 q 890 538 890 638 q 881 435 890 483 q 783 198 857 300 q 606 40 710 96 q 392 -17 501 -17 m 451 19 q 636 110 557 19 q 744 361 715 201 q 757 496 757 431 q 728 678 757 597 q 645 804 700 758 q 515 850 590 850 q 329 758 408 850 q 222 508 250 665 q 210 376 210 442 q 238 195 210 276 q 321 67 267 114 q 451 19 375 19 m 425 917 q 418 920 421 917 q 418 926 415 924 l 575 1078 q 588 1085 579 1085 q 600 1078 596 1085 l 713 926 l 713 925 q 709 917 713 921 q 703 917 706 914 l 575 978 l 426 917 l 425 917 m 674 1001 q 667 1008 669 1001 q 668 1018 665 1014 q 782 1158 746 1107 q 823 1156 788 1167 q 885 1131 858 1146 q 899 1111 913 1117 q 676 1003 786 1071 l 674 1001 z "},"Ộ":{"ha":908,"x_min":78,"x_max":890,"o":"m 392 -17 q 224 28 294 -17 q 115 153 153 74 q 78 333 78 233 q 88 435 78 386 q 180 665 110 563 q 352 826 250 768 q 569 883 454 883 q 742 839 669 883 q 852 716 814 794 q 890 538 890 638 q 881 435 890 483 q 783 198 857 300 q 606 40 710 96 q 392 -17 501 -17 m 451 19 q 636 110 557 19 q 744 361 715 201 q 757 496 757 431 q 728 678 757 597 q 645 804 700 758 q 515 850 590 850 q 329 758 408 850 q 222 508 250 665 q 210 376 210 442 q 238 195 210 276 q 321 67 267 114 q 451 19 375 19 m 399 -275 q 344 -256 364 -275 q 325 -201 325 -236 q 345 -152 325 -171 q 399 -133 365 -133 q 450 -152 432 -133 q 468 -201 468 -171 q 450 -256 468 -236 q 399 -275 432 -275 m 426 917 q 419 920 422 917 q 419 926 417 924 l 576 1078 q 589 1085 581 1085 q 601 1078 597 1085 l 714 926 l 714 925 q 710 917 714 921 q 704 917 707 914 l 576 978 l 428 917 l 426 917 z "},"Ồ":{"ha":908,"x_min":78,"x_max":890,"o":"m 392 -17 q 224 28 294 -17 q 115 153 153 74 q 78 333 78 233 q 88 435 78 386 q 180 665 110 563 q 352 826 250 768 q 569 883 454 883 q 742 839 669 883 q 852 716 814 794 q 890 538 890 638 q 881 435 890 483 q 783 198 857 300 q 606 40 710 96 q 392 -17 501 -17 m 451 19 q 636 110 557 19 q 744 361 715 201 q 757 496 757 431 q 728 678 757 597 q 645 804 700 758 q 515 850 590 850 q 329 758 408 850 q 222 508 250 665 q 210 376 210 442 q 238 195 210 276 q 321 67 267 114 q 451 19 375 19 m 424 917 q 417 920 419 917 q 417 926 414 924 l 574 1078 q 586 1085 578 1085 q 599 1078 594 1085 l 711 926 l 711 925 q 708 917 711 921 q 701 917 704 914 l 574 978 l 425 917 l 424 917 m 796 988 q 617 1096 711 1054 q 635 1116 603 1101 q 706 1141 667 1131 q 749 1143 746 1151 q 810 1003 772 1071 l 810 1000 q 805 990 810 994 q 796 988 800 986 z "},"Ổ":{"ha":908,"x_min":78,"x_max":890,"o":"m 392 -17 q 224 28 294 -17 q 115 153 153 74 q 78 333 78 233 q 88 435 78 386 q 180 665 110 563 q 352 826 250 768 q 569 883 454 883 q 742 839 669 883 q 852 716 814 794 q 890 538 890 638 q 881 435 890 483 q 783 198 857 300 q 606 40 710 96 q 392 -17 501 -17 m 451 19 q 636 110 557 19 q 744 361 715 201 q 757 496 757 431 q 728 678 757 597 q 645 804 700 758 q 515 850 590 850 q 329 758 408 850 q 222 508 250 665 q 210 376 210 442 q 238 195 210 276 q 321 67 267 114 q 451 19 375 19 m 422 917 q 415 920 418 917 q 415 926 413 924 l 572 1078 q 585 1085 576 1085 q 597 1078 593 1085 l 710 926 l 710 925 q 706 917 710 921 q 700 917 703 914 l 572 978 l 424 917 l 422 917 m 678 993 q 683 1027 676 1011 q 704 1064 690 1043 q 723 1097 717 1083 q 729 1125 729 1110 q 718 1150 729 1142 q 692 1158 707 1158 q 664 1153 678 1158 l 661 1151 q 653 1156 656 1151 q 656 1164 651 1161 q 744 1189 701 1189 q 792 1176 775 1189 q 808 1140 808 1163 q 792 1099 808 1117 q 746 1057 776 1081 q 707 1022 719 1036 q 693 993 694 1008 q 686 990 693 990 q 678 993 679 989 z "},"Ỗ":{"ha":908,"x_min":78,"x_max":890,"o":"m 392 -17 q 224 28 294 -17 q 115 153 153 74 q 78 333 78 233 q 88 435 78 386 q 180 665 110 563 q 352 826 250 768 q 569 883 454 883 q 742 839 669 883 q 852 716 814 794 q 890 538 890 638 q 881 435 890 483 q 783 198 857 300 q 606 40 710 96 q 392 -17 501 -17 m 451 19 q 636 110 557 19 q 744 361 715 201 q 757 496 757 431 q 728 678 757 597 q 645 804 700 758 q 515 850 590 850 q 329 758 408 850 q 222 508 250 665 q 210 376 210 442 q 238 195 210 276 q 321 67 267 114 q 451 19 375 19 m 415 917 q 408 920 411 917 q 408 926 406 924 l 565 1078 q 578 1085 569 1085 q 590 1078 586 1085 l 703 926 l 703 925 q 699 917 703 921 q 693 917 696 914 l 565 978 l 417 917 l 415 917 m 415 1096 q 408 1099 411 1096 q 407 1106 406 1103 q 539 1210 476 1210 q 607 1196 554 1210 q 710 1175 675 1175 q 754 1183 738 1175 q 792 1213 771 1192 q 794 1214 792 1214 q 800 1210 797 1214 q 801 1203 803 1206 q 735 1121 761 1142 q 675 1100 708 1100 q 596 1115 647 1100 q 547 1128 572 1122 q 499 1133 521 1133 q 454 1126 468 1133 q 417 1096 440 1118 l 415 1096 z "},"Ö":{"ha":908,"x_min":78,"x_max":890,"o":"m 392 -17 q 224 28 294 -17 q 115 153 153 74 q 78 333 78 233 q 88 435 78 386 q 180 665 110 563 q 352 826 250 768 q 569 883 454 883 q 742 839 669 883 q 852 716 814 794 q 890 538 890 638 q 881 435 890 483 q 783 198 857 300 q 606 40 710 96 q 392 -17 501 -17 m 451 19 q 636 110 557 19 q 744 361 715 201 q 757 496 757 431 q 728 678 757 597 q 645 804 700 758 q 515 850 590 850 q 329 758 408 850 q 222 508 250 665 q 210 376 210 442 q 238 195 210 276 q 321 67 267 114 q 451 19 375 19 m 478 983 q 427 1001 446 983 q 408 1053 408 1019 q 427 1101 408 1083 q 478 1119 446 1119 q 527 1102 510 1119 q 544 1053 544 1085 q 527 1001 544 1019 q 478 983 510 983 m 696 983 q 644 1001 663 983 q 625 1053 625 1019 q 644 1102 625 1085 q 696 1119 663 1119 q 744 1102 726 1119 q 761 1053 761 1085 q 744 1001 761 1019 q 696 983 728 983 z "},"Ọ":{"ha":908,"x_min":78,"x_max":890,"o":"m 392 -17 q 224 28 294 -17 q 115 153 153 74 q 78 333 78 233 q 88 435 78 386 q 180 665 110 563 q 352 826 250 768 q 569 883 454 883 q 742 839 669 883 q 852 716 814 794 q 890 538 890 638 q 881 435 890 483 q 783 198 857 300 q 606 40 710 96 q 392 -17 501 -17 m 451 19 q 636 110 557 19 q 744 361 715 201 q 757 496 757 431 q 728 678 757 597 q 645 804 700 758 q 515 850 590 850 q 329 758 408 850 q 222 508 250 665 q 210 376 210 442 q 238 195 210 276 q 321 67 267 114 q 451 19 375 19 m 399 -275 q 344 -256 364 -275 q 325 -201 325 -236 q 345 -152 325 -171 q 399 -133 365 -133 q 450 -152 432 -133 q 468 -201 468 -171 q 450 -256 468 -236 q 399 -275 432 -275 z "},"Ò":{"ha":908,"x_min":78,"x_max":890,"o":"m 392 -17 q 224 28 294 -17 q 115 153 153 74 q 78 333 78 233 q 88 435 78 386 q 180 665 110 563 q 352 826 250 768 q 569 883 454 883 q 742 839 669 883 q 852 716 814 794 q 890 538 890 638 q 881 435 890 483 q 783 198 857 300 q 606 40 710 96 q 392 -17 501 -17 m 451 19 q 636 110 557 19 q 744 361 715 201 q 757 496 757 431 q 728 678 757 597 q 645 804 700 758 q 515 850 590 850 q 329 758 408 850 q 222 508 250 665 q 210 376 210 442 q 238 195 210 276 q 321 67 267 114 q 451 19 375 19 m 681 957 q 553 1006 610 986 q 417 1050 496 1026 q 432 1068 400 1054 q 506 1092 464 1082 q 554 1096 547 1101 q 654 1003 596 1053 q 693 969 668 992 q 694 965 694 968 q 690 958 694 961 q 681 957 686 956 z "},"Ỏ":{"ha":908,"x_min":78,"x_max":890,"o":"m 392 -17 q 224 28 294 -17 q 115 153 153 74 q 78 333 78 233 q 88 435 78 386 q 180 665 110 563 q 352 826 250 768 q 569 883 454 883 q 742 839 669 883 q 852 716 814 794 q 890 538 890 638 q 881 435 890 483 q 783 198 857 300 q 606 40 710 96 q 392 -17 501 -17 m 451 19 q 636 110 557 19 q 744 361 715 201 q 757 496 757 431 q 728 678 757 597 q 645 804 700 758 q 515 850 590 850 q 329 758 408 850 q 222 508 250 665 q 210 376 210 442 q 238 195 210 276 q 321 67 267 114 q 451 19 375 19 m 567 906 q 559 902 567 903 q 550 906 551 901 q 549 929 549 914 q 555 972 549 953 q 575 1018 561 990 q 594 1060 588 1043 q 600 1097 600 1078 q 557 1143 600 1143 q 511 1132 536 1143 l 508 1131 q 501 1135 504 1131 q 501 1143 499 1140 q 608 1179 550 1179 q 676 1160 651 1179 q 700 1108 700 1140 q 682 1056 700 1081 q 629 999 664 1032 q 581 949 597 969 q 567 906 565 928 z "},"Ơ":{"ha":908,"x_min":78,"x_max":1031,"o":"m 975 986 q 1018 965 1006 986 q 1026 917 1031 944 q 964 822 1015 861 q 832 750 913 782 q 890 536 890 660 q 881 435 890 483 q 783 198 857 300 q 606 40 710 96 q 392 -17 501 -17 q 224 28 294 -17 q 115 153 153 74 q 78 333 78 233 q 88 435 78 386 q 180 665 110 563 q 352 826 250 768 q 569 883 454 883 q 715 853 651 883 q 821 767 779 822 q 914 846 906 801 q 912 865 917 857 q 906 875 907 874 q 896 907 896 894 q 897 921 896 915 q 926 969 903 951 q 975 986 949 986 m 744 361 q 757 496 757 431 q 728 678 757 597 q 645 804 700 758 q 515 850 590 850 q 329 758 408 850 q 222 508 250 665 q 210 376 210 442 q 238 195 210 276 q 321 67 267 114 q 451 19 375 19 q 636 110 557 19 q 744 361 715 201 z "},"Ớ":{"ha":908,"x_min":78,"x_max":1028,"o":"m 975 986 q 1018 965 1006 986 q 1026 917 1031 944 q 964 822 1015 861 q 832 750 913 782 q 890 536 890 660 q 881 435 890 483 q 783 198 857 300 q 606 40 710 96 q 392 -17 501 -17 q 224 28 294 -17 q 115 153 153 74 q 78 333 78 233 q 88 435 78 386 q 180 665 110 563 q 352 826 250 768 q 569 883 454 883 q 715 853 651 883 q 821 767 779 822 q 914 846 906 801 q 912 865 917 857 q 906 875 907 874 q 896 907 896 894 q 897 921 896 915 q 926 969 903 951 q 975 986 949 986 m 744 361 q 757 496 757 431 q 728 678 757 597 q 645 804 700 758 q 515 850 590 850 q 329 758 408 850 q 222 508 250 665 q 210 376 210 442 q 238 195 210 276 q 321 67 267 114 q 451 19 375 19 q 636 110 557 19 q 744 361 715 201 m 439 942 q 431 948 433 942 q 433 957 429 954 q 564 1050 479 986 q 625 1097 583 1067 q 669 1092 632 1103 q 735 1067 707 1081 q 749 1050 764 1053 q 440 942 585 1008 l 439 942 z "},"Ợ":{"ha":908,"x_min":78,"x_max":1028,"o":"m 975 986 q 1018 965 1006 986 q 1026 917 1031 944 q 964 822 1015 861 q 832 750 913 782 q 890 536 890 660 q 881 435 890 483 q 783 198 857 300 q 606 40 710 96 q 392 -17 501 -17 q 224 28 294 -17 q 115 153 153 74 q 78 333 78 233 q 88 435 78 386 q 180 665 110 563 q 352 826 250 768 q 569 883 454 883 q 715 853 651 883 q 821 767 779 822 q 914 846 906 801 q 912 865 917 857 q 906 875 907 874 q 896 907 896 894 q 897 921 896 915 q 926 969 903 951 q 975 986 949 986 m 744 361 q 757 496 757 431 q 728 678 757 597 q 645 804 700 758 q 515 850 590 850 q 329 758 408 850 q 222 508 250 665 q 210 376 210 442 q 238 195 210 276 q 321 67 267 114 q 451 19 375 19 q 636 110 557 19 q 744 361 715 201 m 378 -275 q 324 -256 343 -275 q 304 -201 304 -236 q 324 -152 304 -171 q 378 -133 344 -133 q 429 -152 411 -133 q 447 -201 447 -171 q 429 -256 447 -236 q 378 -275 411 -275 z "},"Ờ":{"ha":908,"x_min":78,"x_max":1028,"o":"m 975 986 q 1018 965 1006 986 q 1026 917 1031 944 q 964 822 1015 861 q 832 750 913 782 q 890 536 890 660 q 881 435 890 483 q 783 198 857 300 q 606 40 710 96 q 392 -17 501 -17 q 224 28 294 -17 q 115 153 153 74 q 78 333 78 233 q 88 435 78 386 q 180 665 110 563 q 352 826 250 768 q 569 883 454 883 q 715 853 651 883 q 821 767 779 822 q 914 846 906 801 q 912 865 917 857 q 906 875 907 874 q 896 907 896 894 q 897 921 896 915 q 926 969 903 951 q 975 986 949 986 m 744 361 q 757 496 757 431 q 728 678 757 597 q 645 804 700 758 q 515 850 590 850 q 329 758 408 850 q 222 508 250 665 q 210 376 210 442 q 238 195 210 276 q 321 67 267 114 q 451 19 375 19 q 636 110 557 19 q 744 361 715 201 m 714 943 q 404 1050 557 1013 q 419 1067 390 1053 q 484 1092 447 1081 q 528 1097 521 1103 q 590 1050 569 1067 q 719 957 675 986 q 722 951 722 956 q 719 944 722 947 q 714 943 717 942 z "},"Ở":{"ha":908,"x_min":78,"x_max":1028,"o":"m 975 986 q 1018 965 1006 986 q 1026 917 1031 944 q 964 822 1015 861 q 832 750 913 782 q 890 536 890 660 q 881 435 890 483 q 783 198 857 300 q 606 40 710 96 q 392 -17 501 -17 q 224 28 294 -17 q 115 153 153 74 q 78 333 78 233 q 88 435 78 386 q 180 665 110 563 q 352 826 250 768 q 569 883 454 883 q 715 853 651 883 q 821 767 779 822 q 914 846 906 801 q 912 865 917 857 q 906 875 907 874 q 896 907 896 894 q 897 921 896 915 q 926 969 903 951 q 975 986 949 986 m 744 361 q 757 496 757 431 q 728 678 757 597 q 645 804 700 758 q 515 850 590 850 q 329 758 408 850 q 222 508 250 665 q 210 376 210 442 q 238 195 210 276 q 321 67 267 114 q 451 19 375 19 q 636 110 557 19 q 744 361 715 201 m 588 906 q 580 902 588 903 q 571 906 572 901 q 569 929 569 914 q 576 972 569 953 q 596 1018 582 990 q 615 1060 608 1043 q 621 1097 621 1078 q 578 1143 621 1143 q 532 1132 557 1143 l 529 1131 q 522 1135 525 1131 q 522 1143 519 1140 q 629 1179 571 1179 q 697 1160 672 1179 q 721 1108 721 1140 q 703 1056 721 1081 q 650 999 685 1032 q 602 949 618 969 q 588 906 586 928 z "},"Ỡ":{"ha":908,"x_min":78,"x_max":1028,"o":"m 975 986 q 1018 965 1006 986 q 1026 917 1031 944 q 964 822 1015 861 q 832 750 913 782 q 890 536 890 660 q 881 435 890 483 q 783 198 857 300 q 606 40 710 96 q 392 -17 501 -17 q 224 28 294 -17 q 115 153 153 74 q 78 333 78 233 q 88 435 78 386 q 180 665 110 563 q 352 826 250 768 q 569 883 454 883 q 715 853 651 883 q 821 767 779 822 q 914 846 906 801 q 912 865 917 857 q 906 875 907 874 q 896 907 896 894 q 897 921 896 915 q 926 969 903 951 q 975 986 949 986 m 744 361 q 757 496 757 431 q 728 678 757 597 q 645 804 700 758 q 515 850 590 850 q 329 758 408 850 q 222 508 250 665 q 210 376 210 442 q 238 195 210 276 q 321 67 267 114 q 451 19 375 19 q 636 110 557 19 q 744 361 715 201 m 417 989 q 410 992 413 989 q 408 999 407 996 q 540 1103 478 1103 q 608 1089 556 1103 q 711 1068 676 1068 q 756 1076 739 1068 q 793 1106 772 1085 q 796 1107 793 1107 q 801 1103 799 1107 q 803 1096 804 1099 q 736 1014 763 1035 q 676 993 710 993 q 597 1008 649 993 q 548 1021 574 1015 q 500 1026 522 1026 q 456 1019 469 1026 q 418 989 442 1011 l 417 989 z "},"Ő":{"ha":908,"x_min":78,"x_max":890,"o":"m 392 -17 q 224 28 294 -17 q 115 153 153 74 q 78 333 78 233 q 88 435 78 386 q 180 665 110 563 q 352 826 250 768 q 569 883 454 883 q 742 839 669 883 q 852 716 814 794 q 890 538 890 638 q 881 435 890 483 q 783 198 857 300 q 606 40 710 96 q 392 -17 501 -17 m 451 19 q 636 110 557 19 q 744 361 715 201 q 757 496 757 431 q 728 678 757 597 q 645 804 700 758 q 515 850 590 850 q 329 758 408 850 q 222 508 250 665 q 210 376 210 442 q 238 195 210 276 q 321 67 267 114 q 451 19 375 19 m 399 925 q 392 931 393 925 q 394 942 392 938 l 450 1003 q 540 1106 518 1078 q 554 1110 543 1110 q 601 1102 572 1110 q 646 1085 629 1094 q 653 1067 663 1075 l 596 1038 q 485 980 528 1004 q 401 926 442 956 l 399 925 m 585 925 q 579 931 581 925 q 581 942 578 938 l 636 1003 q 726 1106 704 1078 q 739 1110 729 1110 q 786 1101 757 1110 q 833 1083 815 1093 q 839 1067 850 1074 q 700 998 758 1029 q 588 926 642 967 l 585 925 z "},"Ō":{"ha":908,"x_min":78,"x_max":890,"o":"m 392 -17 q 224 28 294 -17 q 115 153 153 74 q 78 333 78 233 q 88 435 78 386 q 180 665 110 563 q 352 826 250 768 q 569 883 454 883 q 742 839 669 883 q 852 716 814 794 q 890 538 890 638 q 881 435 890 483 q 783 198 857 300 q 606 40 710 96 q 392 -17 501 -17 m 451 19 q 636 110 557 19 q 744 361 715 201 q 757 496 757 431 q 728 678 757 597 q 645 804 700 758 q 515 850 590 850 q 329 758 408 850 q 222 508 250 665 q 210 376 210 442 q 238 195 210 276 q 321 67 267 114 q 451 19 375 19 m 426 992 q 418 999 421 992 q 415 1017 415 1007 q 418 1034 415 1026 q 426 1042 421 1042 l 749 1042 q 758 1034 754 1042 q 761 1017 761 1026 q 758 999 761 1007 q 749 992 754 992 l 426 992 z "},"Ǫ":{"ha":908,"x_min":78,"x_max":890,"o":"m 569 883 q 742 839 669 883 q 852 716 814 794 q 890 538 890 638 q 881 435 890 483 q 753 159 853 274 q 521 3 654 44 q 433 -117 463 -62 q 403 -235 403 -172 q 421 -303 403 -278 q 476 -328 439 -328 q 547 -297 514 -328 l 549 -297 q 556 -302 553 -297 q 557 -310 560 -307 q 484 -365 518 -349 q 411 -382 450 -382 q 326 -351 357 -382 q 296 -268 296 -319 q 343 -143 296 -204 q 482 -7 390 -82 q 392 -17 439 -17 q 224 28 294 -17 q 115 153 153 74 q 78 333 78 233 q 88 435 78 386 q 180 665 110 563 q 352 826 250 768 q 569 883 454 883 m 744 361 q 757 496 757 431 q 728 678 757 597 q 645 804 700 758 q 515 850 590 850 q 329 758 408 850 q 222 508 250 665 q 210 376 210 442 q 238 195 210 276 q 321 67 267 114 q 451 19 375 19 q 636 110 557 19 q 744 361 715 201 z "},"Ø":{"ha":908,"x_min":35,"x_max":929,"o":"m 901 881 q 918 871 907 881 q 925 857 929 861 l 828 758 q 890 538 890 669 q 881 435 890 485 q 783 198 857 300 q 606 40 710 96 q 392 -17 501 -17 q 161 82 247 -17 l 65 -17 l 63 -18 q 45 -7 56 -18 q 40 10 35 4 l 139 110 q 79 333 79 204 q 88 435 79 383 q 180 665 110 563 q 352 826 250 768 q 569 883 454 883 q 704 858 644 883 q 806 785 764 832 l 899 879 l 901 881 m 222 508 q 210 375 210 440 q 235 207 210 282 l 719 699 q 637 810 689 769 q 515 850 585 850 q 329 758 408 850 q 222 508 250 665 m 744 361 q 757 494 757 431 q 733 663 757 585 l 249 169 q 331 59 279 99 q 451 19 382 19 q 636 110 557 19 q 744 361 715 201 z "},"Ǿ":{"ha":908,"x_min":39,"x_max":926,"o":"m 901 881 q 918 871 907 881 q 925 857 929 861 l 828 758 q 890 538 890 669 q 881 435 890 485 q 783 198 857 300 q 606 40 710 96 q 392 -17 501 -17 q 161 82 247 -17 l 65 -17 l 63 -18 q 45 -7 56 -18 q 40 10 35 4 l 139 110 q 79 333 79 204 q 88 435 79 383 q 180 665 110 563 q 352 826 250 768 q 569 883 454 883 q 704 858 644 883 q 806 785 764 832 l 899 879 l 901 881 m 222 508 q 210 375 210 440 q 235 207 210 282 l 719 699 q 637 810 689 769 q 515 850 585 850 q 329 758 408 850 q 222 508 250 665 m 744 361 q 757 494 757 431 q 733 663 757 585 l 249 169 q 331 59 279 99 q 451 19 382 19 q 636 110 557 19 q 744 361 715 201 m 472 942 q 465 948 467 942 q 468 957 464 954 q 590 1044 513 983 q 660 1097 654 1093 q 704 1092 667 1103 q 770 1067 742 1081 q 783 1050 799 1053 q 626 1003 697 1029 q 475 943 554 978 l 472 942 z "},"Õ":{"ha":908,"x_min":78,"x_max":890,"o":"m 392 -17 q 224 28 294 -17 q 115 153 153 74 q 78 333 78 233 q 88 435 78 386 q 180 665 110 563 q 352 826 250 768 q 569 883 454 883 q 742 839 669 883 q 852 716 814 794 q 890 538 890 638 q 881 435 890 483 q 783 198 857 300 q 606 40 710 96 q 392 -17 501 -17 m 451 19 q 636 110 557 19 q 744 361 715 201 q 757 496 757 431 q 728 678 757 597 q 645 804 700 758 q 515 850 590 850 q 329 758 408 850 q 222 508 250 665 q 210 376 210 442 q 238 195 210 276 q 321 67 267 114 q 451 19 375 19 m 401 957 q 399 956 401 956 q 393 960 396 956 q 392 967 390 964 q 455 1041 424 1011 q 525 1071 486 1071 q 592 1057 542 1071 q 694 1036 660 1036 q 740 1044 722 1036 q 778 1074 757 1053 l 779 1074 q 786 1070 783 1074 q 788 1064 789 1067 q 721 981 747 1001 q 661 960 694 960 q 582 976 638 960 q 545 986 576 978 q 485 994 514 994 q 443 988 457 994 q 418 972 429 982 q 401 957 407 961 z "},"Œ":{"ha":1122,"x_min":78,"x_max":1132,"o":"m 1121 868 q 1129 856 1132 868 q 1101 674 1107 713 q 1096 669 1101 669 q 1088 672 1092 669 q 1085 675 1085 674 q 1053 799 1083 756 q 956 842 1024 842 l 915 842 q 853 835 874 842 q 824 812 833 829 q 808 754 815 794 l 758 469 l 894 469 q 986 493 954 469 q 1029 572 1018 517 q 1039 578 1031 579 q 1046 571 1047 578 l 1033 500 q 1024 451 1029 481 q 1014 388 1018 424 q 1008 355 1011 374 q 1001 313 1006 336 q 992 308 1000 307 q 985 314 983 308 q 988 346 988 336 q 885 433 988 433 l 753 433 l 697 118 q 692 74 692 82 q 708 35 692 44 q 771 25 725 25 l 829 25 q 947 73 897 25 q 1043 217 996 121 q 1049 219 1046 219 q 1057 217 1053 219 q 1060 214 1061 215 q 1014 21 1035 133 q 1006 5 1011 10 q 992 0 1001 0 l 625 0 q 531 -3 594 0 q 453 -6 472 -6 q 254 40 339 -6 q 124 164 169 85 q 78 344 78 243 q 85 426 78 392 q 185 660 108 558 q 369 816 261 761 q 590 871 476 871 q 672 869 642 871 l 771 868 l 1121 868 m 686 738 q 690 782 690 763 q 670 831 690 817 q 600 844 650 844 q 357 744 458 844 q 224 457 256 643 q 213 339 213 390 q 275 108 213 196 q 443 19 338 19 q 517 25 492 19 q 556 51 542 31 q 576 114 569 71 l 686 738 z "},"P":{"ha":725,"x_min":17,"x_max":738,"o":"m 19 0 q 17 8 17 0 q 19 17 17 17 q 81 24 61 17 q 112 51 101 31 q 129 113 122 71 l 243 756 q 249 801 249 792 q 231 841 249 831 q 169 851 214 851 q 165 860 165 851 q 169 868 165 868 l 228 867 q 317 864 283 864 q 382 867 332 864 q 485 872 449 872 q 668 823 599 872 q 738 679 738 774 q 733 629 738 657 q 660 481 717 542 q 531 392 604 421 q 390 364 458 364 q 333 371 356 364 q 332 375 332 371 q 335 390 332 382 q 340 396 338 397 q 382 390 358 390 q 521 444 460 390 q 599 601 582 497 q 604 661 604 629 q 562 796 604 746 q 457 846 519 846 q 403 839 421 846 q 376 813 386 832 q 358 753 367 794 l 246 113 q 240 67 240 76 q 258 27 240 38 q 319 17 275 17 q 324 8 324 17 q 319 0 324 0 q 258 1 281 0 l 167 3 l 81 1 q 19 0 58 0 z "},"Þ":{"ha":753,"x_min":17,"x_max":744,"o":"m 449 693 q 663 640 582 693 q 744 489 744 588 q 738 433 744 465 q 659 292 719 349 q 521 208 599 235 q 369 181 443 181 q 313 188 343 181 q 311 192 311 188 q 314 206 311 199 q 319 211 317 213 q 361 206 338 206 q 513 254 443 206 q 601 406 582 303 q 608 468 608 443 q 554 611 608 556 q 404 667 500 667 q 343 663 371 667 l 246 113 q 240 68 240 76 q 263 26 240 36 q 353 17 286 17 q 356 8 356 17 q 353 0 356 0 q 279 1 306 0 l 167 3 l 81 1 q 19 0 58 0 q 17 8 17 0 q 19 17 17 17 q 81 24 61 17 q 112 51 101 31 q 129 113 122 71 l 243 756 q 249 800 249 792 q 231 841 249 831 q 169 851 214 851 q 165 860 165 851 q 169 868 165 868 l 228 867 q 317 864 283 864 q 431 867 364 864 l 501 868 q 506 860 506 868 q 501 851 506 851 q 416 845 442 851 q 378 819 390 839 q 358 753 367 800 l 347 688 q 449 693 392 693 z "},"Q":{"ha":908,"x_min":78,"x_max":969,"o":"m 961 -242 q 967 -247 965 -240 q 967 -257 969 -254 q 858 -276 899 -276 q 670 -204 764 -276 q 508 0 576 -132 q 392 -17 450 -17 q 224 28 294 -17 q 115 153 153 74 q 78 333 78 233 q 88 435 78 386 q 180 665 110 563 q 352 826 250 768 q 569 883 454 883 q 742 839 669 883 q 852 716 814 794 q 890 538 890 638 q 881 435 890 483 q 790 207 858 307 q 624 50 721 107 q 708 -101 656 -33 q 817 -208 761 -169 q 915 -247 874 -247 q 961 -242 933 -247 m 222 508 q 210 376 210 442 q 238 195 210 276 q 321 67 267 114 q 451 19 375 19 q 636 110 557 19 q 744 361 715 201 q 757 496 757 431 q 728 678 757 597 q 645 804 700 758 q 515 850 590 850 q 329 758 408 850 q 222 508 250 665 z "},"R":{"ha":872,"x_min":19,"x_max":843,"o":"m 838 17 q 843 8 843 17 q 838 0 843 0 l 649 0 q 558 114 617 0 q 428 450 500 228 q 346 440 382 440 q 319 443 333 440 l 261 113 q 256 64 256 86 q 273 26 256 36 q 338 17 290 17 q 343 8 343 17 q 339 0 343 0 q 272 1 296 0 l 182 3 l 90 1 q 25 0 67 0 q 19 8 19 0 q 25 17 19 17 q 90 24 68 17 q 124 51 113 32 q 143 113 135 71 l 257 756 q 263 801 263 792 q 244 841 263 831 q 179 851 226 851 q 174 860 174 851 q 179 868 174 868 l 243 867 q 333 864 299 864 q 376 865 356 864 q 411 868 396 867 q 482 872 450 872 q 642 837 588 872 q 696 736 696 801 q 647 597 696 664 q 522 488 599 531 q 645 208 593 310 q 743 62 697 107 q 838 17 789 17 m 326 479 q 372 475 347 475 q 503 516 458 475 q 561 651 547 557 q 567 714 567 683 q 538 814 567 782 q 464 846 510 846 q 415 841 429 846 q 392 817 400 836 q 375 753 383 799 l 326 479 z "},"Ŕ":{"ha":872,"x_min":19,"x_max":843,"o":"m 838 17 q 843 8 843 17 q 838 0 843 0 l 649 0 q 558 114 617 0 q 428 450 500 228 q 346 440 382 440 q 319 443 333 440 l 261 113 q 256 64 256 86 q 273 26 256 36 q 338 17 290 17 q 343 8 343 17 q 339 0 343 0 q 272 1 296 0 l 182 3 l 90 1 q 25 0 67 0 q 19 8 19 0 q 25 17 19 17 q 90 24 68 17 q 124 51 113 32 q 143 113 135 71 l 257 756 q 263 801 263 792 q 244 841 263 831 q 179 851 226 851 q 174 860 174 851 q 179 868 174 868 l 243 867 q 333 864 299 864 q 376 865 356 864 q 411 868 396 867 q 482 872 450 872 q 642 837 588 872 q 696 736 696 801 q 647 597 696 664 q 522 488 599 531 q 645 208 593 310 q 743 62 697 107 q 838 17 789 17 m 326 479 q 372 475 347 475 q 503 516 458 475 q 561 651 547 557 q 567 714 567 683 q 538 814 567 782 q 464 846 510 846 q 415 841 429 846 q 392 817 400 836 q 375 753 383 799 l 326 479 m 393 942 q 386 948 388 942 q 389 957 385 954 q 511 1044 433 983 q 581 1097 575 1093 q 625 1092 588 1103 q 691 1067 663 1081 q 704 1050 719 1053 q 547 1003 618 1029 q 396 943 475 978 l 393 942 z "},"Ř":{"ha":872,"x_min":19,"x_max":843,"o":"m 838 17 q 843 8 843 17 q 838 0 843 0 l 649 0 q 558 114 617 0 q 428 450 500 228 q 346 440 382 440 q 319 443 333 440 l 261 113 q 256 64 256 86 q 273 26 256 36 q 338 17 290 17 q 343 8 343 17 q 339 0 343 0 q 272 1 296 0 l 182 3 l 90 1 q 25 0 67 0 q 19 8 19 0 q 25 17 19 17 q 90 24 68 17 q 124 51 113 32 q 143 113 135 71 l 257 756 q 263 801 263 792 q 244 841 263 831 q 179 851 226 851 q 174 860 174 851 q 179 868 174 868 l 243 867 q 333 864 299 864 q 376 865 356 864 q 411 868 396 867 q 482 872 450 872 q 642 837 588 872 q 696 736 696 801 q 647 597 696 664 q 522 488 599 531 q 645 208 593 310 q 743 62 697 107 q 838 17 789 17 m 326 479 q 372 475 347 475 q 503 516 458 475 q 561 651 547 557 q 567 714 567 683 q 538 814 567 782 q 464 846 510 846 q 415 841 429 846 q 392 817 400 836 q 375 753 383 799 l 326 479 m 351 1090 l 351 1092 q 356 1098 351 1094 q 363 1100 360 1101 l 488 1038 l 638 1100 q 645 1097 640 1101 q 646 1090 650 1092 l 489 938 q 475 932 483 932 q 463 938 468 932 l 351 1090 z "},"Ŗ":{"ha":872,"x_min":19,"x_max":843,"o":"m 838 17 q 843 8 843 17 q 838 0 843 0 l 649 0 q 558 114 617 0 q 428 450 500 228 q 346 440 382 440 q 319 443 333 440 l 261 113 q 256 64 256 86 q 273 26 256 36 q 338 17 290 17 q 343 8 343 17 q 339 0 343 0 q 272 1 296 0 l 182 3 l 90 1 q 25 0 67 0 q 19 8 19 0 q 25 17 19 17 q 90 24 68 17 q 124 51 113 32 q 143 113 135 71 l 257 756 q 263 801 263 792 q 244 841 263 831 q 179 851 226 851 q 174 860 174 851 q 179 868 174 868 l 243 867 q 333 864 299 864 q 376 865 356 864 q 411 868 396 867 q 482 872 450 872 q 642 837 588 872 q 696 736 696 801 q 647 597 696 664 q 522 488 599 531 q 645 208 593 310 q 743 62 697 107 q 838 17 789 17 m 326 479 q 372 475 347 475 q 503 516 458 475 q 561 651 547 557 q 567 714 567 683 q 538 814 567 782 q 464 846 510 846 q 415 841 429 846 q 392 817 400 836 q 375 753 383 799 l 326 479 m 431 -104 q 489 -128 469 -104 q 508 -190 508 -151 q 473 -296 508 -247 q 378 -382 438 -344 l 375 -383 q 367 -377 369 -383 q 368 -368 364 -371 q 447 -271 439 -322 q 450 -249 450 -254 l 449 -236 q 419 -243 438 -243 q 370 -224 388 -243 q 353 -176 353 -204 q 373 -124 353 -144 q 431 -104 393 -104 z "},"Ṛ":{"ha":872,"x_min":19,"x_max":843,"o":"m 838 17 q 843 8 843 17 q 838 0 843 0 l 649 0 q 558 114 617 0 q 428 450 500 228 q 346 440 382 440 q 319 443 333 440 l 261 113 q 256 64 256 86 q 273 26 256 36 q 338 17 290 17 q 343 8 343 17 q 339 0 343 0 q 272 1 296 0 l 182 3 l 90 1 q 25 0 67 0 q 19 8 19 0 q 25 17 19 17 q 90 24 68 17 q 124 51 113 32 q 143 113 135 71 l 257 756 q 263 801 263 792 q 244 841 263 831 q 179 851 226 851 q 174 860 174 851 q 179 868 174 868 l 243 867 q 333 864 299 864 q 376 865 356 864 q 411 868 396 867 q 482 872 450 872 q 642 837 588 872 q 696 736 696 801 q 647 597 696 664 q 522 488 599 531 q 645 208 593 310 q 743 62 697 107 q 838 17 789 17 m 326 479 q 372 475 347 475 q 503 516 458 475 q 561 651 547 557 q 567 714 567 683 q 538 814 567 782 q 464 846 510 846 q 415 841 429 846 q 392 817 400 836 q 375 753 383 799 l 326 479 m 429 -275 q 375 -256 394 -275 q 356 -201 356 -236 q 376 -152 356 -171 q 429 -133 396 -133 q 481 -152 463 -133 q 499 -201 499 -171 q 481 -256 499 -236 q 429 -275 463 -275 z "},"Ṝ":{"ha":872,"x_min":19,"x_max":843,"o":"m 838 17 q 843 8 843 17 q 838 0 843 0 l 649 0 q 558 114 617 0 q 428 450 500 228 q 346 440 382 440 q 319 443 333 440 l 261 113 q 256 64 256 86 q 273 26 256 36 q 338 17 290 17 q 343 8 343 17 q 339 0 343 0 q 272 1 296 0 l 182 3 l 90 1 q 25 0 67 0 q 19 8 19 0 q 25 17 19 17 q 90 24 68 17 q 124 51 113 32 q 143 113 135 71 l 257 756 q 263 801 263 792 q 244 841 263 831 q 179 851 226 851 q 174 860 174 851 q 179 868 174 868 l 243 867 q 333 864 299 864 q 376 865 356 864 q 411 868 396 867 q 482 872 450 872 q 642 837 588 872 q 696 736 696 801 q 647 597 696 664 q 522 488 599 531 q 645 208 593 310 q 743 62 697 107 q 838 17 789 17 m 326 479 q 372 475 347 475 q 503 516 458 475 q 561 651 547 557 q 567 714 567 683 q 538 814 567 782 q 464 846 510 846 q 415 841 429 846 q 392 817 400 836 q 375 753 383 799 l 326 479 m 429 -275 q 375 -256 394 -275 q 356 -201 356 -236 q 376 -152 356 -171 q 429 -133 396 -133 q 481 -152 463 -133 q 499 -201 499 -171 q 481 -256 499 -236 q 429 -275 463 -275 m 290 990 q 279 1014 279 990 q 290 1038 279 1038 l 639 1038 q 648 1031 644 1038 q 651 1014 651 1024 q 648 997 651 1004 q 639 990 644 990 l 290 990 z "},"Ṟ":{"ha":872,"x_min":19,"x_max":843,"o":"m 838 17 q 843 8 843 17 q 838 0 843 0 l 649 0 q 558 114 617 0 q 428 450 500 228 q 346 440 382 440 q 319 443 333 440 l 261 113 q 256 64 256 86 q 273 26 256 36 q 338 17 290 17 q 343 8 343 17 q 339 0 343 0 q 272 1 296 0 l 182 3 l 90 1 q 25 0 67 0 q 19 8 19 0 q 25 17 19 17 q 90 24 68 17 q 124 51 113 32 q 143 113 135 71 l 257 756 q 263 801 263 792 q 244 841 263 831 q 179 851 226 851 q 174 860 174 851 q 179 868 174 868 l 243 867 q 333 864 299 864 q 376 865 356 864 q 411 868 396 867 q 482 872 450 872 q 642 837 588 872 q 696 736 696 801 q 647 597 696 664 q 522 488 599 531 q 645 208 593 310 q 743 62 697 107 q 838 17 789 17 m 326 479 q 372 475 347 475 q 503 516 458 475 q 561 651 547 557 q 567 714 567 683 q 538 814 567 782 q 464 846 510 846 q 415 841 429 846 q 392 817 400 836 q 375 753 383 799 l 326 479 m 290 -168 q 279 -143 279 -168 q 290 -118 279 -118 l 613 -118 q 622 -126 618 -118 q 625 -143 625 -133 q 622 -160 625 -153 q 613 -168 618 -168 l 290 -168 z "},"S":{"ha":649,"x_min":47,"x_max":643,"o":"m 263 -17 q 161 -6 210 -17 q 61 31 113 4 q 53 57 47 40 l 89 249 q 97 256 89 256 q 104 249 104 256 q 299 13 144 13 q 406 51 363 13 q 461 163 450 90 q 464 197 464 188 q 425 313 464 265 q 314 414 386 361 q 231 481 261 454 q 181 544 201 507 q 160 628 160 581 q 164 668 160 647 q 270 828 185 772 q 464 883 356 883 q 624 850 543 883 q 639 826 643 840 l 619 654 q 611 650 618 650 q 603 654 604 650 q 542 801 586 746 q 432 857 499 857 q 347 831 381 857 q 298 765 314 804 q 282 690 282 726 q 301 615 282 649 q 349 556 321 581 q 429 492 376 532 q 552 381 510 432 q 594 258 594 331 q 592 221 594 233 q 487 50 574 117 q 263 -17 400 -17 z "},"Ś":{"ha":649,"x_min":51,"x_max":675,"o":"m 263 -17 q 161 -6 210 -17 q 61 31 113 4 q 53 57 47 40 l 89 249 q 97 256 89 256 q 104 249 104 256 q 299 13 144 13 q 406 51 363 13 q 461 163 450 90 q 464 197 464 188 q 425 313 464 265 q 314 414 386 361 q 231 481 261 454 q 181 544 201 507 q 160 628 160 581 q 164 668 160 647 q 270 828 185 772 q 464 883 356 883 q 624 850 543 883 q 639 826 643 840 l 619 654 q 611 650 618 650 q 603 654 604 650 q 542 801 586 746 q 432 857 499 857 q 347 831 381 857 q 298 765 314 804 q 282 690 282 726 q 301 615 282 649 q 349 556 321 581 q 429 492 376 532 q 552 381 510 432 q 594 258 594 331 q 592 221 594 233 q 487 50 574 117 q 263 -17 400 -17 m 360 942 q 353 948 354 942 q 356 957 351 954 q 478 1044 400 983 q 547 1097 542 1093 q 592 1092 554 1103 q 658 1067 629 1081 q 671 1050 686 1053 q 513 1003 585 1029 q 363 943 442 978 l 360 942 z "},"Š":{"ha":649,"x_min":51,"x_max":639,"o":"m 263 -17 q 161 -6 210 -17 q 61 31 113 4 q 53 57 47 40 l 89 249 q 97 256 89 256 q 104 249 104 256 q 299 13 144 13 q 406 51 363 13 q 461 163 450 90 q 464 197 464 188 q 425 313 464 265 q 314 414 386 361 q 231 481 261 454 q 181 544 201 507 q 160 628 160 581 q 164 668 160 647 q 270 828 185 772 q 464 883 356 883 q 624 850 543 883 q 639 826 643 840 l 619 654 q 611 650 618 650 q 603 654 604 650 q 542 801 586 746 q 432 857 499 857 q 347 831 381 857 q 298 765 314 804 q 282 690 282 726 q 301 615 282 649 q 349 556 321 581 q 429 492 376 532 q 552 381 510 432 q 594 258 594 331 q 592 221 594 233 q 487 50 574 117 q 263 -17 400 -17 m 318 1090 l 318 1092 q 322 1098 318 1094 q 329 1100 326 1101 l 454 1038 l 604 1100 q 612 1097 607 1101 q 613 1090 617 1092 l 456 938 q 442 932 450 932 q 429 938 435 932 l 318 1090 z "},"Ş":{"ha":649,"x_min":47,"x_max":643,"o":"m 624 850 q 639 826 643 840 l 619 654 q 611 650 618 650 q 603 654 604 650 q 542 801 586 746 q 432 857 499 857 q 347 831 381 857 q 298 765 314 804 q 282 690 282 726 q 301 615 282 649 q 349 556 321 581 q 429 492 376 532 q 552 381 510 432 q 594 258 594 331 q 592 221 594 233 q 504 65 575 129 q 318 -14 433 0 q 310 -56 310 -37 q 319 -97 310 -79 q 351 -144 329 -115 q 386 -197 375 -175 q 397 -242 397 -219 q 396 -260 397 -254 q 372 -315 392 -286 q 319 -362 353 -343 q 238 -382 285 -382 q 167 -365 196 -382 q 138 -319 138 -347 q 153 -283 138 -296 q 190 -269 169 -269 q 222 -282 211 -269 q 240 -317 232 -294 q 255 -345 247 -335 q 278 -356 263 -356 q 306 -345 294 -356 q 319 -315 317 -335 q 303 -262 321 -292 q 254 -192 286 -232 q 240 -153 240 -174 q 263 -83 240 -128 l 296 -15 q 263 -17 285 -17 q 161 -6 210 -17 q 61 31 113 4 q 53 57 47 40 l 89 249 q 97 256 89 256 q 104 249 104 256 q 299 13 144 13 q 406 51 363 13 q 461 163 450 90 q 464 197 464 188 q 425 313 464 265 q 314 414 386 361 q 231 481 261 454 q 181 544 201 507 q 160 628 160 581 q 164 668 160 647 q 270 828 185 772 q 464 883 356 883 q 624 850 543 883 z "},"Ŝ":{"ha":649,"x_min":51,"x_max":639,"o":"m 263 -17 q 161 -6 210 -17 q 61 31 113 4 q 53 57 47 40 l 89 249 q 97 256 89 256 q 104 249 104 256 q 299 13 144 13 q 406 51 363 13 q 461 163 450 90 q 464 197 464 188 q 425 313 464 265 q 314 414 386 361 q 231 481 261 454 q 181 544 201 507 q 160 628 160 581 q 164 668 160 647 q 270 828 185 772 q 464 883 356 883 q 624 850 543 883 q 639 826 643 840 l 619 654 q 611 650 618 650 q 603 654 604 650 q 542 801 586 746 q 432 857 499 857 q 347 831 381 857 q 298 765 314 804 q 282 690 282 726 q 301 615 282 649 q 349 556 321 581 q 429 492 376 532 q 552 381 510 432 q 594 258 594 331 q 592 221 594 233 q 487 50 574 117 q 263 -17 400 -17 m 304 917 q 297 920 300 917 q 297 926 294 924 l 454 1078 q 467 1085 458 1085 q 479 1078 475 1085 l 592 926 l 592 925 q 588 917 592 921 q 582 917 585 914 l 454 978 l 306 917 l 304 917 z "},"Ș":{"ha":649,"x_min":51,"x_max":639,"o":"m 263 -17 q 161 -6 210 -17 q 61 31 113 4 q 53 57 47 40 l 89 249 q 97 256 89 256 q 104 249 104 256 q 299 13 144 13 q 406 51 363 13 q 461 163 450 90 q 464 197 464 188 q 425 313 464 265 q 314 414 386 361 q 231 481 261 454 q 181 544 201 507 q 160 628 160 581 q 164 668 160 647 q 270 828 185 772 q 464 883 356 883 q 624 850 543 883 q 639 826 643 840 l 619 654 q 611 650 618 650 q 603 654 604 650 q 542 801 586 746 q 432 857 499 857 q 347 831 381 857 q 298 765 314 804 q 282 690 282 726 q 301 615 282 649 q 349 556 321 581 q 429 492 376 532 q 552 381 510 432 q 594 258 594 331 q 592 221 594 233 q 487 50 574 117 q 263 -17 400 -17 m 271 -104 q 329 -128 310 -104 q 349 -190 349 -151 q 313 -296 349 -247 q 218 -382 278 -344 l 215 -383 q 207 -377 210 -383 q 208 -368 204 -371 q 288 -271 279 -322 q 290 -249 290 -254 l 289 -236 q 260 -243 278 -243 q 210 -224 228 -243 q 193 -176 193 -204 q 213 -124 193 -144 q 271 -104 233 -104 z "},"Ṡ":{"ha":649,"x_min":51,"x_max":639,"o":"m 263 -17 q 161 -6 210 -17 q 61 31 113 4 q 53 57 47 40 l 89 249 q 97 256 89 256 q 104 249 104 256 q 299 13 144 13 q 406 51 363 13 q 461 163 450 90 q 464 197 464 188 q 425 313 464 265 q 314 414 386 361 q 231 481 261 454 q 181 544 201 507 q 160 628 160 581 q 164 668 160 647 q 270 828 185 772 q 464 883 356 883 q 624 850 543 883 q 639 826 643 840 l 619 654 q 611 650 618 650 q 603 654 604 650 q 542 801 586 746 q 432 857 499 857 q 347 831 381 857 q 298 765 314 804 q 282 690 282 726 q 301 615 282 649 q 349 556 321 581 q 429 492 376 532 q 552 381 510 432 q 594 258 594 331 q 592 221 594 233 q 487 50 574 117 q 263 -17 400 -17 m 463 989 q 410 1008 429 989 q 390 1061 390 1028 q 410 1112 390 1093 q 463 1131 429 1131 q 515 1112 496 1131 q 533 1061 533 1093 q 515 1008 533 1028 q 463 989 496 989 z "},"Ṣ":{"ha":649,"x_min":51,"x_max":639,"o":"m 263 -17 q 161 -6 210 -17 q 61 31 113 4 q 53 57 47 40 l 89 249 q 97 256 89 256 q 104 249 104 256 q 299 13 144 13 q 406 51 363 13 q 461 163 450 90 q 464 197 464 188 q 425 313 464 265 q 314 414 386 361 q 231 481 261 454 q 181 544 201 507 q 160 628 160 581 q 164 668 160 647 q 270 828 185 772 q 464 883 356 883 q 624 850 543 883 q 639 826 643 840 l 619 654 q 611 650 618 650 q 603 654 604 650 q 542 801 586 746 q 432 857 499 857 q 347 831 381 857 q 298 765 314 804 q 282 690 282 726 q 301 615 282 649 q 349 556 321 581 q 429 492 376 532 q 552 381 510 432 q 594 258 594 331 q 592 221 594 233 q 487 50 574 117 q 263 -17 400 -17 m 269 -275 q 215 -256 235 -275 q 196 -201 196 -236 q 216 -152 196 -171 q 269 -133 236 -133 q 321 -152 303 -133 q 339 -201 339 -171 q 321 -256 339 -236 q 269 -275 303 -275 z "},"ẞ":{"ha":900,"x_min":-25,"x_max":892,"o":"m 553 -17 q 397 31 458 -17 q 392 44 392 35 q 392 57 392 54 l 407 213 q 414 220 407 219 q 422 214 421 221 q 468 119 436 164 q 540 49 500 75 q 617 22 581 22 q 698 66 667 22 q 738 172 729 110 q 739 193 739 179 q 696 326 739 260 q 560 465 653 393 q 553 475 553 472 q 558 486 553 478 l 746 726 q 599 797 676 771 q 468 824 521 824 q 391 804 421 824 q 341 737 361 785 q 306 601 321 689 l 219 113 q 214 68 214 76 q 232 27 214 38 q 296 17 250 17 q 301 8 301 17 q 296 0 301 0 l 140 1 l -19 0 q -25 8 -25 0 q -19 17 -25 17 q 46 24 24 17 q 80 51 68 32 q 99 113 92 71 l 174 531 q 247 705 190 624 q 389 835 303 786 q 578 883 475 883 q 683 871 631 883 q 796 838 735 858 q 819 832 813 832 q 876 874 844 832 l 882 876 q 889 874 886 876 q 890 868 892 871 l 647 558 q 803 411 753 481 q 853 271 853 342 q 849 231 853 251 q 798 108 838 165 q 694 17 758 51 q 553 -17 631 -17 z "},"Ə":{"ha":821,"x_min":57,"x_max":806,"o":"m 474 883 q 728 794 651 883 q 806 564 806 704 q 794 450 806 510 q 696 200 769 306 q 519 39 622 94 q 303 -17 415 -17 q 162 14 217 -17 q 82 92 107 44 q 57 190 57 139 q 60 226 57 215 q 65 240 61 236 q 78 243 69 243 l 601 246 q 640 400 625 310 q 656 568 656 496 q 608 781 656 704 q 467 858 560 858 q 313 806 393 858 q 165 651 233 754 q 158 649 163 649 q 151 651 154 649 q 149 657 147 654 l 235 899 q 240 903 238 903 q 249 900 244 903 q 251 894 253 897 q 247 871 247 881 q 264 853 247 853 q 279 856 268 853 q 388 877 346 871 q 474 883 429 883 m 356 15 q 592 217 511 15 l 193 213 q 231 69 188 124 q 356 15 274 15 z "},"T":{"ha":768,"x_min":101,"x_max":844,"o":"m 171 0 q 167 8 167 0 q 171 17 167 17 q 246 24 221 17 q 283 51 271 31 q 303 113 294 71 l 415 756 q 419 797 419 781 q 407 831 419 822 q 363 839 394 839 l 340 839 q 207 781 268 839 q 118 628 146 722 q 109 625 117 624 q 103 631 101 626 q 135 758 114 667 q 167 899 157 849 q 176 902 168 903 q 183 897 185 901 q 238 868 179 868 q 492 864 340 864 q 649 867 563 864 l 736 868 q 799 875 778 868 q 828 903 819 882 q 838 906 831 907 q 843 900 844 906 q 810 761 831 857 q 785 631 789 665 q 775 626 783 625 q 768 632 767 626 q 774 686 774 671 q 737 798 774 757 q 633 839 700 839 l 611 839 q 556 822 569 839 q 533 753 542 806 l 421 113 q 415 69 415 79 q 438 27 415 38 q 521 17 460 17 q 524 8 524 17 q 521 0 524 0 q 449 1 475 0 l 344 3 l 244 1 q 171 0 217 0 z "},"Ŧ":{"ha":768,"x_min":101,"x_max":844,"o":"m 828 903 q 838 906 831 907 q 843 900 844 906 q 810 761 831 857 q 785 631 789 665 q 775 626 783 625 q 768 632 767 626 q 774 686 774 671 q 737 798 774 757 q 633 839 700 839 l 611 839 q 556 822 569 839 q 533 753 542 806 l 483 467 l 610 467 q 617 449 617 467 q 615 436 617 442 q 610 431 613 431 l 476 431 l 421 113 q 415 69 415 79 q 438 27 415 38 q 521 17 460 17 q 524 8 524 17 q 521 0 524 0 q 449 1 475 0 l 344 3 l 244 1 q 171 0 217 0 q 167 8 167 0 q 171 17 167 17 q 246 24 221 17 q 283 51 271 31 q 303 113 294 71 l 358 431 l 228 431 q 222 449 222 431 q 228 467 222 467 l 365 467 l 415 756 q 419 797 419 781 q 407 831 419 822 q 363 839 394 839 l 340 839 q 207 781 268 839 q 118 628 146 722 q 109 625 117 624 q 103 631 101 626 q 135 758 114 667 q 167 899 157 849 q 176 902 168 903 q 183 897 185 901 q 238 868 179 868 q 492 864 340 864 q 649 867 563 864 l 736 868 q 799 875 778 868 q 828 903 819 882 z "},"Ť":{"ha":768,"x_min":103,"x_max":843,"o":"m 171 0 q 167 8 167 0 q 171 17 167 17 q 246 24 221 17 q 283 51 271 31 q 303 113 294 71 l 415 756 q 419 797 419 781 q 407 831 419 822 q 363 839 394 839 l 340 839 q 207 781 268 839 q 118 628 146 722 q 109 625 117 624 q 103 631 101 626 q 135 758 114 667 q 167 899 157 849 q 176 902 168 903 q 183 897 185 901 q 238 868 179 868 q 492 864 340 864 q 649 867 563 864 l 736 868 q 799 875 778 868 q 828 903 819 882 q 838 906 831 907 q 843 900 844 906 q 810 761 831 857 q 785 631 789 665 q 775 626 783 625 q 768 632 767 626 q 774 686 774 671 q 737 798 774 757 q 633 839 700 839 l 611 839 q 556 822 569 839 q 533 753 542 806 l 421 113 q 415 69 415 79 q 438 27 415 38 q 521 17 460 17 q 524 8 524 17 q 521 0 524 0 q 449 1 475 0 l 344 3 l 244 1 q 171 0 217 0 m 376 1090 l 376 1092 q 381 1098 376 1094 q 388 1100 385 1101 l 513 1038 l 663 1100 q 670 1097 665 1101 q 671 1090 675 1092 l 514 938 q 500 932 508 932 q 488 938 493 932 l 376 1090 z "},"Ţ":{"ha":768,"x_min":101,"x_max":844,"o":"m 828 903 q 838 906 831 907 q 843 900 844 906 q 810 761 831 857 q 785 631 789 665 q 775 626 783 625 q 768 632 767 626 q 774 686 774 671 q 737 798 774 757 q 633 839 700 839 l 611 839 q 556 822 569 839 q 533 753 542 806 l 421 113 q 415 69 415 79 q 438 27 415 38 q 521 17 460 17 q 524 8 524 17 q 521 0 524 0 q 453 1 478 0 l 358 3 q 344 -67 344 -39 q 353 -105 344 -87 q 379 -144 361 -122 q 414 -197 403 -175 q 425 -242 425 -219 q 424 -260 425 -254 q 400 -315 419 -286 q 347 -362 381 -343 q 265 -382 313 -382 q 194 -365 224 -382 q 165 -319 165 -347 q 181 -283 165 -296 q 218 -269 197 -269 q 249 -282 239 -269 q 268 -317 260 -294 q 283 -345 275 -335 q 306 -356 290 -356 q 333 -345 322 -356 q 347 -315 344 -335 q 331 -262 349 -292 q 282 -192 314 -232 q 268 -153 268 -174 q 290 -83 268 -128 l 333 3 l 239 1 q 171 0 214 0 q 167 8 167 0 q 171 17 167 17 q 246 24 221 17 q 283 51 271 31 q 303 113 294 71 l 415 756 q 419 797 419 781 q 407 831 419 822 q 363 839 394 839 l 340 839 q 207 781 268 839 q 118 628 146 722 q 109 625 117 624 q 103 631 101 626 q 135 758 114 667 q 167 899 157 849 q 176 902 168 903 q 183 897 185 901 q 238 868 179 868 q 492 864 340 864 q 649 867 563 864 l 736 868 q 799 875 778 868 q 828 903 819 882 z "},"Ț":{"ha":768,"x_min":103,"x_max":843,"o":"m 171 0 q 167 8 167 0 q 171 17 167 17 q 246 24 221 17 q 283 51 271 31 q 303 113 294 71 l 415 756 q 419 797 419 781 q 407 831 419 822 q 363 839 394 839 l 340 839 q 207 781 268 839 q 118 628 146 722 q 109 625 117 624 q 103 631 101 626 q 135 758 114 667 q 167 899 157 849 q 176 902 168 903 q 183 897 185 901 q 238 868 179 868 q 492 864 340 864 q 649 867 563 864 l 736 868 q 799 875 778 868 q 828 903 819 882 q 838 906 831 907 q 843 900 844 906 q 810 761 831 857 q 785 631 789 665 q 775 626 783 625 q 768 632 767 626 q 774 686 774 671 q 737 798 774 757 q 633 839 700 839 l 611 839 q 556 822 569 839 q 533 753 542 806 l 421 113 q 415 69 415 79 q 438 27 415 38 q 521 17 460 17 q 524 8 524 17 q 521 0 524 0 q 449 1 475 0 l 344 3 l 244 1 q 171 0 217 0 m 314 -104 q 372 -128 353 -104 q 392 -190 392 -151 q 356 -296 392 -247 q 261 -382 321 -344 l 258 -383 q 250 -377 253 -383 q 251 -368 247 -371 q 331 -271 322 -322 q 333 -249 333 -254 l 332 -236 q 303 -243 321 -243 q 253 -224 271 -243 q 236 -176 236 -204 q 256 -124 236 -144 q 314 -104 276 -104 z "},"Ṭ":{"ha":768,"x_min":103,"x_max":843,"o":"m 171 0 q 167 8 167 0 q 171 17 167 17 q 246 24 221 17 q 283 51 271 31 q 303 113 294 71 l 415 756 q 419 797 419 781 q 407 831 419 822 q 363 839 394 839 l 340 839 q 207 781 268 839 q 118 628 146 722 q 109 625 117 624 q 103 631 101 626 q 135 758 114 667 q 167 899 157 849 q 176 902 168 903 q 183 897 185 901 q 238 868 179 868 q 492 864 340 864 q 649 867 563 864 l 736 868 q 799 875 778 868 q 828 903 819 882 q 838 906 831 907 q 843 900 844 906 q 810 761 831 857 q 785 631 789 665 q 775 626 783 625 q 768 632 767 626 q 774 686 774 671 q 737 798 774 757 q 633 839 700 839 l 611 839 q 556 822 569 839 q 533 753 542 806 l 421 113 q 415 69 415 79 q 438 27 415 38 q 521 17 460 17 q 524 8 524 17 q 521 0 524 0 q 449 1 475 0 l 344 3 l 244 1 q 171 0 217 0 m 313 -275 q 258 -256 278 -275 q 239 -201 239 -236 q 259 -152 239 -171 q 313 -133 279 -133 q 364 -152 346 -133 q 382 -201 382 -171 q 364 -256 382 -236 q 313 -275 346 -275 z "},"Ṯ":{"ha":768,"x_min":103,"x_max":843,"o":"m 171 0 q 167 8 167 0 q 171 17 167 17 q 246 24 221 17 q 283 51 271 31 q 303 113 294 71 l 415 756 q 419 797 419 781 q 407 831 419 822 q 363 839 394 839 l 340 839 q 207 781 268 839 q 118 628 146 722 q 109 625 117 624 q 103 631 101 626 q 135 758 114 667 q 167 899 157 849 q 176 902 168 903 q 183 897 185 901 q 238 868 179 868 q 492 864 340 864 q 649 867 563 864 l 736 868 q 799 875 778 868 q 828 903 819 882 q 838 906 831 907 q 843 900 844 906 q 810 761 831 857 q 785 631 789 665 q 775 626 783 625 q 768 632 767 626 q 774 686 774 671 q 737 798 774 757 q 633 839 700 839 l 611 839 q 556 822 569 839 q 533 753 542 806 l 421 113 q 415 69 415 79 q 438 27 415 38 q 521 17 460 17 q 524 8 524 17 q 521 0 524 0 q 449 1 475 0 l 344 3 l 244 1 q 171 0 217 0 m 174 -168 q 163 -143 163 -168 q 174 -118 163 -118 l 496 -118 q 505 -126 501 -118 q 508 -143 508 -133 q 505 -160 508 -153 q 496 -168 501 -168 l 174 -168 z "},"U":{"ha":860,"x_min":118,"x_max":951,"o":"m 778 704 q 782 750 782 729 q 758 825 782 799 q 692 851 735 851 q 688 860 688 851 q 692 868 689 868 l 750 867 q 824 864 797 864 q 893 867 849 864 l 946 868 q 951 860 951 868 q 946 851 950 851 q 861 810 896 851 q 814 696 826 768 l 742 282 q 619 61 717 142 q 383 -19 521 -19 q 189 45 260 -19 q 118 222 118 110 q 124 289 118 257 l 207 758 q 213 803 213 794 q 195 842 213 833 q 131 851 178 851 q 126 860 126 851 q 129 868 126 868 l 196 867 q 283 864 251 864 q 379 867 321 864 l 439 868 q 442 860 443 868 q 439 851 442 851 q 376 842 397 851 q 343 812 354 833 q 325 749 332 790 l 250 329 q 242 233 242 278 q 290 80 242 131 q 428 29 339 29 q 611 99 538 29 q 704 289 685 168 l 778 704 z "},"Ú":{"ha":860,"x_min":118,"x_max":950,"o":"m 778 704 q 782 750 782 729 q 758 825 782 799 q 692 851 735 851 q 688 860 688 851 q 692 868 689 868 l 750 867 q 824 864 797 864 q 893 867 849 864 l 946 868 q 951 860 951 868 q 946 851 950 851 q 861 810 896 851 q 814 696 826 768 l 742 282 q 619 61 717 142 q 383 -19 521 -19 q 189 45 260 -19 q 118 222 118 110 q 124 289 118 257 l 207 758 q 213 803 213 794 q 195 842 213 833 q 131 851 178 851 q 126 860 126 851 q 129 868 126 868 l 196 867 q 283 864 251 864 q 379 867 321 864 l 439 868 q 442 860 443 868 q 439 851 442 851 q 376 842 397 851 q 343 812 354 833 q 325 749 332 790 l 250 329 q 242 233 242 278 q 290 80 242 131 q 428 29 339 29 q 611 99 538 29 q 704 289 685 168 l 778 704 m 433 942 q 426 948 428 942 q 428 957 424 954 q 558 1050 474 986 q 619 1097 578 1067 q 664 1092 626 1103 q 730 1067 701 1081 q 743 1050 758 1053 q 435 942 579 1008 l 433 942 z "},"Ŭ":{"ha":860,"x_min":118,"x_max":950,"o":"m 778 704 q 782 750 782 729 q 758 825 782 799 q 692 851 735 851 q 688 860 688 851 q 692 868 689 868 l 750 867 q 824 864 797 864 q 893 867 849 864 l 946 868 q 951 860 951 868 q 946 851 950 851 q 861 810 896 851 q 814 696 826 768 l 742 282 q 619 61 717 142 q 383 -19 521 -19 q 189 45 260 -19 q 118 222 118 110 q 124 289 118 257 l 207 758 q 213 803 213 794 q 195 842 213 833 q 131 851 178 851 q 126 860 126 851 q 129 868 126 868 l 196 867 q 283 864 251 864 q 379 867 321 864 l 439 868 q 442 860 443 868 q 439 851 442 851 q 376 842 397 851 q 343 812 354 833 q 325 749 332 790 l 250 329 q 242 233 242 278 q 290 80 242 131 q 428 29 339 29 q 611 99 538 29 q 704 289 685 168 l 778 704 m 578 924 q 483 959 519 924 q 446 1054 446 994 q 474 1069 446 1063 q 528 1076 503 1076 q 546 1072 546 1076 q 574 1015 550 1036 q 633 994 599 994 q 729 1067 694 994 q 738 1071 733 1071 q 749 1068 743 1071 q 753 1063 754 1065 q 676 960 724 996 q 578 924 629 924 z "},"Ǔ":{"ha":860,"x_min":118,"x_max":950,"o":"m 778 704 q 782 750 782 729 q 758 825 782 799 q 692 851 735 851 q 688 860 688 851 q 692 868 689 868 l 750 867 q 824 864 797 864 q 893 867 849 864 l 946 868 q 951 860 951 868 q 946 851 950 851 q 861 810 896 851 q 814 696 826 768 l 742 282 q 619 61 717 142 q 383 -19 521 -19 q 189 45 260 -19 q 118 222 118 110 q 124 289 118 257 l 207 758 q 213 803 213 794 q 195 842 213 833 q 131 851 178 851 q 126 860 126 851 q 129 868 126 868 l 196 867 q 283 864 251 864 q 379 867 321 864 l 439 868 q 442 860 443 868 q 439 851 442 851 q 376 842 397 851 q 343 812 354 833 q 325 749 332 790 l 250 329 q 242 233 242 278 q 290 80 242 131 q 428 29 339 29 q 611 99 538 29 q 704 289 685 168 l 778 704 m 456 1090 l 456 1092 q 460 1098 456 1094 q 467 1100 464 1101 l 592 1038 l 742 1100 q 749 1097 744 1101 q 750 1090 754 1092 l 593 938 q 579 932 588 932 q 567 938 572 932 l 456 1090 z "},"Û":{"ha":860,"x_min":118,"x_max":950,"o":"m 778 704 q 782 750 782 729 q 758 825 782 799 q 692 851 735 851 q 688 860 688 851 q 692 868 689 868 l 750 867 q 824 864 797 864 q 893 867 849 864 l 946 868 q 951 860 951 868 q 946 851 950 851 q 861 810 896 851 q 814 696 826 768 l 742 282 q 619 61 717 142 q 383 -19 521 -19 q 189 45 260 -19 q 118 222 118 110 q 124 289 118 257 l 207 758 q 213 803 213 794 q 195 842 213 833 q 131 851 178 851 q 126 860 126 851 q 129 868 126 868 l 196 867 q 283 864 251 864 q 379 867 321 864 l 439 868 q 442 860 443 868 q 439 851 442 851 q 376 842 397 851 q 343 812 354 833 q 325 749 332 790 l 250 329 q 242 233 242 278 q 290 80 242 131 q 428 29 339 29 q 611 99 538 29 q 704 289 685 168 l 778 704 m 442 917 q 435 920 438 917 q 435 926 432 924 l 592 1078 q 604 1085 596 1085 q 617 1078 613 1085 l 729 926 l 729 925 q 726 917 729 921 q 719 917 722 914 l 592 978 l 443 917 l 442 917 z "},"Ü":{"ha":860,"x_min":118,"x_max":950,"o":"m 778 704 q 782 750 782 729 q 758 825 782 799 q 692 851 735 851 q 688 860 688 851 q 692 868 689 868 l 750 867 q 824 864 797 864 q 893 867 849 864 l 946 868 q 951 860 951 868 q 946 851 950 851 q 861 810 896 851 q 814 696 826 768 l 742 282 q 619 61 717 142 q 383 -19 521 -19 q 189 45 260 -19 q 118 222 118 110 q 124 289 118 257 l 207 758 q 213 803 213 794 q 195 842 213 833 q 131 851 178 851 q 126 860 126 851 q 129 868 126 868 l 196 867 q 283 864 251 864 q 379 867 321 864 l 439 868 q 442 860 443 868 q 439 851 442 851 q 376 842 397 851 q 343 812 354 833 q 325 749 332 790 l 250 329 q 242 233 242 278 q 290 80 242 131 q 428 29 339 29 q 611 99 538 29 q 704 289 685 168 l 778 704 m 483 983 q 431 1001 450 983 q 413 1053 413 1019 q 431 1102 413 1085 q 483 1119 450 1119 q 532 1102 514 1119 q 550 1053 550 1085 q 533 1001 550 1019 q 483 983 515 983 m 725 983 q 674 1001 692 983 q 656 1053 656 1019 q 674 1102 656 1085 q 725 1119 692 1119 q 774 1102 757 1119 q 792 1053 792 1085 q 774 1001 792 1019 q 725 983 757 983 z "},"Ǘ":{"ha":860,"x_min":118,"x_max":950,"o":"m 778 704 q 782 750 782 729 q 758 825 782 799 q 692 851 735 851 q 688 860 688 851 q 692 868 689 868 l 750 867 q 824 864 797 864 q 893 867 849 864 l 946 868 q 951 860 951 868 q 946 851 950 851 q 861 810 896 851 q 814 696 826 768 l 742 282 q 619 61 717 142 q 383 -19 521 -19 q 189 45 260 -19 q 118 222 118 110 q 124 289 118 257 l 207 758 q 213 803 213 794 q 195 842 213 833 q 131 851 178 851 q 126 860 126 851 q 129 868 126 868 l 196 867 q 283 864 251 864 q 379 867 321 864 l 439 868 q 442 860 443 868 q 439 851 442 851 q 376 842 397 851 q 343 812 354 833 q 325 749 332 790 l 250 329 q 242 233 242 278 q 290 80 242 131 q 428 29 339 29 q 611 99 538 29 q 704 289 685 168 l 778 704 m 493 951 q 442 969 461 951 q 424 1021 424 988 q 442 1069 424 1051 q 493 1088 461 1088 q 542 1070 525 1088 q 560 1021 560 1053 q 542 969 560 988 q 493 951 525 951 m 711 951 q 659 969 678 951 q 640 1021 640 988 q 659 1070 640 1053 q 711 1088 678 1088 q 759 1070 742 1088 q 776 1021 776 1053 q 760 969 776 988 q 711 951 743 951 m 481 1117 q 474 1123 475 1117 q 476 1132 472 1129 q 599 1219 521 1158 q 668 1272 663 1268 q 713 1267 675 1278 q 778 1242 750 1256 q 792 1225 807 1228 q 634 1178 706 1204 q 483 1118 563 1153 l 481 1117 z "},"Ǚ":{"ha":860,"x_min":118,"x_max":950,"o":"m 778 704 q 782 750 782 729 q 758 825 782 799 q 692 851 735 851 q 688 860 688 851 q 692 868 689 868 l 750 867 q 824 864 797 864 q 893 867 849 864 l 946 868 q 951 860 951 868 q 946 851 950 851 q 861 810 896 851 q 814 696 826 768 l 742 282 q 619 61 717 142 q 383 -19 521 -19 q 189 45 260 -19 q 118 222 118 110 q 124 289 118 257 l 207 758 q 213 803 213 794 q 195 842 213 833 q 131 851 178 851 q 126 860 126 851 q 129 868 126 868 l 196 867 q 283 864 251 864 q 379 867 321 864 l 439 868 q 442 860 443 868 q 439 851 442 851 q 376 842 397 851 q 343 812 354 833 q 325 749 332 790 l 250 329 q 242 233 242 278 q 290 80 242 131 q 428 29 339 29 q 611 99 538 29 q 704 289 685 168 l 778 704 m 493 951 q 442 969 461 951 q 424 1021 424 988 q 442 1069 424 1051 q 493 1088 461 1088 q 542 1070 525 1088 q 560 1021 560 1053 q 542 969 560 988 q 493 951 525 951 m 711 951 q 659 969 678 951 q 640 1021 640 988 q 659 1070 640 1053 q 711 1088 678 1088 q 759 1070 742 1088 q 776 1021 776 1053 q 760 969 776 988 q 711 951 743 951 m 483 1107 q 476 1110 481 1106 q 475 1117 471 1115 l 632 1269 q 644 1276 639 1276 q 657 1269 653 1276 l 768 1117 q 769 1114 769 1117 q 765 1108 769 1111 q 758 1107 761 1106 l 632 1169 l 483 1107 z "},"Ǜ":{"ha":860,"x_min":118,"x_max":950,"o":"m 778 704 q 782 750 782 729 q 758 825 782 799 q 692 851 735 851 q 688 860 688 851 q 692 868 689 868 l 750 867 q 824 864 797 864 q 893 867 849 864 l 946 868 q 951 860 951 868 q 946 851 950 851 q 861 810 896 851 q 814 696 826 768 l 742 282 q 619 61 717 142 q 383 -19 521 -19 q 189 45 260 -19 q 118 222 118 110 q 124 289 118 257 l 207 758 q 213 803 213 794 q 195 842 213 833 q 131 851 178 851 q 126 860 126 851 q 129 868 126 868 l 196 867 q 283 864 251 864 q 379 867 321 864 l 439 868 q 442 860 443 868 q 439 851 442 851 q 376 842 397 851 q 343 812 354 833 q 325 749 332 790 l 250 329 q 242 233 242 278 q 290 80 242 131 q 428 29 339 29 q 611 99 538 29 q 704 289 685 168 l 778 704 m 493 951 q 442 969 461 951 q 424 1021 424 988 q 442 1069 424 1051 q 493 1088 461 1088 q 542 1070 525 1088 q 560 1021 560 1053 q 542 969 560 988 q 493 951 525 951 m 711 951 q 659 969 678 951 q 640 1021 640 988 q 659 1070 640 1053 q 711 1088 678 1088 q 759 1070 742 1088 q 776 1021 776 1053 q 760 969 776 988 q 711 951 743 951 m 743 1111 q 615 1160 672 1140 q 479 1204 558 1181 q 494 1222 463 1208 q 568 1246 526 1236 q 617 1250 610 1256 q 717 1157 658 1207 q 756 1124 731 1146 q 757 1119 757 1122 q 753 1113 757 1115 q 743 1111 749 1110 z "},"Ǖ":{"ha":860,"x_min":118,"x_max":950,"o":"m 778 704 q 782 750 782 729 q 758 825 782 799 q 692 851 735 851 q 688 860 688 851 q 692 868 689 868 l 750 867 q 824 864 797 864 q 893 867 849 864 l 946 868 q 951 860 951 868 q 946 851 950 851 q 861 810 896 851 q 814 696 826 768 l 742 282 q 619 61 717 142 q 383 -19 521 -19 q 189 45 260 -19 q 118 222 118 110 q 124 289 118 257 l 207 758 q 213 803 213 794 q 195 842 213 833 q 131 851 178 851 q 126 860 126 851 q 129 868 126 868 l 196 867 q 283 864 251 864 q 379 867 321 864 l 439 868 q 442 860 443 868 q 439 851 442 851 q 376 842 397 851 q 343 812 354 833 q 325 749 332 790 l 250 329 q 242 233 242 278 q 290 80 242 131 q 428 29 339 29 q 611 99 538 29 q 704 289 685 168 l 778 704 m 479 951 q 428 969 447 951 q 410 1021 410 988 q 428 1069 410 1051 q 479 1088 447 1088 q 528 1070 511 1088 q 546 1021 546 1053 q 528 969 546 988 q 479 951 511 951 m 697 951 q 645 969 664 951 q 626 1021 626 988 q 645 1070 626 1053 q 697 1088 664 1088 q 745 1070 728 1088 q 763 1021 763 1053 q 746 969 763 988 q 697 951 729 951 m 447 1146 q 439 1153 442 1146 q 436 1171 436 1161 q 439 1188 436 1181 q 447 1196 442 1196 l 769 1196 q 778 1188 775 1196 q 782 1171 782 1181 q 778 1153 782 1161 q 769 1146 775 1146 l 447 1146 z "},"Ụ":{"ha":860,"x_min":118,"x_max":950,"o":"m 778 704 q 782 750 782 729 q 758 825 782 799 q 692 851 735 851 q 688 860 688 851 q 692 868 689 868 l 750 867 q 824 864 797 864 q 893 867 849 864 l 946 868 q 951 860 951 868 q 946 851 950 851 q 861 810 896 851 q 814 696 826 768 l 742 282 q 619 61 717 142 q 383 -19 521 -19 q 189 45 260 -19 q 118 222 118 110 q 124 289 118 257 l 207 758 q 213 803 213 794 q 195 842 213 833 q 131 851 178 851 q 126 860 126 851 q 129 868 126 868 l 196 867 q 283 864 251 864 q 379 867 321 864 l 439 868 q 442 860 443 868 q 439 851 442 851 q 376 842 397 851 q 343 812 354 833 q 325 749 332 790 l 250 329 q 242 233 242 278 q 290 80 242 131 q 428 29 339 29 q 611 99 538 29 q 704 289 685 168 l 778 704 m 354 -275 q 300 -256 319 -275 q 281 -201 281 -236 q 301 -152 281 -171 q 354 -133 321 -133 q 406 -152 388 -133 q 424 -201 424 -171 q 406 -256 424 -236 q 354 -275 388 -275 z "},"Ù":{"ha":860,"x_min":118,"x_max":950,"o":"m 778 704 q 782 750 782 729 q 758 825 782 799 q 692 851 735 851 q 688 860 688 851 q 692 868 689 868 l 750 867 q 824 864 797 864 q 893 867 849 864 l 946 868 q 951 860 951 868 q 946 851 950 851 q 861 810 896 851 q 814 696 826 768 l 742 282 q 619 61 717 142 q 383 -19 521 -19 q 189 45 260 -19 q 118 222 118 110 q 124 289 118 257 l 207 758 q 213 803 213 794 q 195 842 213 833 q 131 851 178 851 q 126 860 126 851 q 129 868 126 868 l 196 867 q 283 864 251 864 q 379 867 321 864 l 439 868 q 442 860 443 868 q 439 851 442 851 q 376 842 397 851 q 343 812 354 833 q 325 749 332 790 l 250 329 q 242 233 242 278 q 290 80 242 131 q 428 29 339 29 q 611 99 538 29 q 704 289 685 168 l 778 704 m 708 943 q 399 1050 551 1013 q 413 1067 385 1053 q 478 1092 442 1081 q 522 1097 515 1103 q 585 1050 564 1067 q 714 957 669 986 q 717 951 717 956 q 714 944 717 947 q 708 943 711 942 z "},"Ủ":{"ha":860,"x_min":118,"x_max":950,"o":"m 778 704 q 782 750 782 729 q 758 825 782 799 q 692 851 735 851 q 688 860 688 851 q 692 868 689 868 l 750 867 q 824 864 797 864 q 893 867 849 864 l 946 868 q 951 860 951 868 q 946 851 950 851 q 861 810 896 851 q 814 696 826 768 l 742 282 q 619 61 717 142 q 383 -19 521 -19 q 189 45 260 -19 q 118 222 118 110 q 124 289 118 257 l 207 758 q 213 803 213 794 q 195 842 213 833 q 131 851 178 851 q 126 860 126 851 q 129 868 126 868 l 196 867 q 283 864 251 864 q 379 867 321 864 l 439 868 q 442 860 443 868 q 439 851 442 851 q 376 842 397 851 q 343 812 354 833 q 325 749 332 790 l 250 329 q 242 233 242 278 q 290 80 242 131 q 428 29 339 29 q 611 99 538 29 q 704 289 685 168 l 778 704 m 582 906 q 574 902 582 903 q 565 906 567 901 q 564 929 564 914 q 570 972 564 953 q 590 1018 576 990 q 609 1060 603 1043 q 615 1097 615 1078 q 572 1143 615 1143 q 526 1132 551 1143 l 524 1131 q 517 1135 519 1131 q 517 1143 514 1140 q 624 1179 565 1179 q 691 1160 667 1179 q 715 1108 715 1140 q 697 1056 715 1081 q 644 999 679 1032 q 597 949 613 969 q 582 906 581 928 z "},"Ư":{"ha":861,"x_min":118,"x_max":1058,"o":"m 742 282 q 619 61 717 142 q 383 -19 521 -19 q 189 45 260 -19 q 118 222 118 110 q 124 289 118 257 l 207 758 q 213 803 213 794 q 195 842 213 833 q 131 851 178 851 q 126 860 126 851 q 129 868 126 868 l 194 867 q 282 864 250 864 q 379 867 321 864 l 439 868 q 442 860 443 868 q 439 851 442 851 q 357 831 379 851 q 324 749 335 810 l 249 329 q 240 236 240 279 q 289 81 240 132 q 425 29 338 29 q 610 99 536 29 q 704 289 683 168 l 778 704 q 782 750 782 729 q 758 825 782 799 q 692 851 735 851 q 688 860 688 851 q 692 868 689 868 l 750 867 q 824 864 797 864 q 956 926 950 864 q 950 960 958 940 q 942 992 942 979 q 943 1004 942 1000 q 967 1045 949 1031 q 1008 1060 986 1060 q 1046 1042 1033 1060 q 1058 999 1058 1025 q 1036 930 1058 958 q 986 885 1014 901 q 913 847 958 869 q 853 802 876 832 q 814 696 829 772 l 742 282 z "},"Ứ":{"ha":861,"x_min":118,"x_max":1058,"o":"m 742 282 q 619 61 717 142 q 383 -19 521 -19 q 189 45 260 -19 q 118 222 118 110 q 124 289 118 257 l 207 758 q 213 803 213 794 q 195 842 213 833 q 131 851 178 851 q 126 860 126 851 q 129 868 126 868 l 194 867 q 282 864 250 864 q 379 867 321 864 l 439 868 q 442 860 443 868 q 439 851 442 851 q 357 831 379 851 q 324 749 335 810 l 249 329 q 240 236 240 279 q 289 81 240 132 q 425 29 338 29 q 610 99 536 29 q 704 289 683 168 l 778 704 q 782 750 782 729 q 758 825 782 799 q 692 851 735 851 q 688 860 688 851 q 692 868 689 868 l 750 867 q 824 864 797 864 q 956 926 950 864 q 950 960 958 940 q 942 992 942 979 q 943 1004 942 1000 q 967 1045 949 1031 q 1008 1060 986 1060 q 1046 1042 1033 1060 q 1058 999 1058 1025 q 1036 930 1058 958 q 986 885 1014 901 q 913 847 958 869 q 853 802 876 832 q 814 696 829 772 l 742 282 m 432 942 q 424 948 426 942 q 426 957 422 954 q 557 1050 472 986 q 618 1097 576 1067 q 663 1092 625 1103 q 728 1067 700 1081 q 742 1050 757 1053 q 433 942 578 1008 l 432 942 z "},"Ự":{"ha":861,"x_min":118,"x_max":1058,"o":"m 742 282 q 619 61 717 142 q 383 -19 521 -19 q 189 45 260 -19 q 118 222 118 110 q 124 289 118 257 l 207 758 q 213 803 213 794 q 195 842 213 833 q 131 851 178 851 q 126 860 126 851 q 129 868 126 868 l 194 867 q 282 864 250 864 q 379 867 321 864 l 439 868 q 442 860 443 868 q 439 851 442 851 q 357 831 379 851 q 324 749 335 810 l 249 329 q 240 236 240 279 q 289 81 240 132 q 425 29 338 29 q 610 99 536 29 q 704 289 683 168 l 778 704 q 782 750 782 729 q 758 825 782 799 q 692 851 735 851 q 688 860 688 851 q 692 868 689 868 l 750 867 q 824 864 797 864 q 956 926 950 864 q 950 960 958 940 q 942 992 942 979 q 943 1004 942 1000 q 967 1045 949 1031 q 1008 1060 986 1060 q 1046 1042 1033 1060 q 1058 999 1058 1025 q 1036 930 1058 958 q 986 885 1014 901 q 913 847 958 869 q 853 802 876 832 q 814 696 829 772 l 742 282 m 329 -275 q 275 -256 294 -275 q 256 -201 256 -236 q 276 -152 256 -171 q 329 -133 296 -133 q 381 -152 363 -133 q 399 -201 399 -171 q 381 -256 399 -236 q 329 -275 363 -275 z "},"Ừ":{"ha":861,"x_min":118,"x_max":1058,"o":"m 742 282 q 619 61 717 142 q 383 -19 521 -19 q 189 45 260 -19 q 118 222 118 110 q 124 289 118 257 l 207 758 q 213 803 213 794 q 195 842 213 833 q 131 851 178 851 q 126 860 126 851 q 129 868 126 868 l 194 867 q 282 864 250 864 q 379 867 321 864 l 439 868 q 442 860 443 868 q 439 851 442 851 q 357 831 379 851 q 324 749 335 810 l 249 329 q 240 236 240 279 q 289 81 240 132 q 425 29 338 29 q 610 99 536 29 q 704 289 683 168 l 778 704 q 782 750 782 729 q 758 825 782 799 q 692 851 735 851 q 688 860 688 851 q 692 868 689 868 l 750 867 q 824 864 797 864 q 956 926 950 864 q 950 960 958 940 q 942 992 942 979 q 943 1004 942 1000 q 967 1045 949 1031 q 1008 1060 986 1060 q 1046 1042 1033 1060 q 1058 999 1058 1025 q 1036 930 1058 958 q 986 885 1014 901 q 913 847 958 869 q 853 802 876 832 q 814 696 829 772 l 742 282 m 707 943 q 397 1050 550 1013 q 412 1067 383 1053 q 477 1092 440 1081 q 521 1097 514 1103 q 583 1050 563 1067 q 713 957 668 986 q 715 951 715 956 q 713 944 715 947 q 707 943 710 942 z "},"Ử":{"ha":861,"x_min":118,"x_max":1058,"o":"m 742 282 q 619 61 717 142 q 383 -19 521 -19 q 189 45 260 -19 q 118 222 118 110 q 124 289 118 257 l 207 758 q 213 803 213 794 q 195 842 213 833 q 131 851 178 851 q 126 860 126 851 q 129 868 126 868 l 194 867 q 282 864 250 864 q 379 867 321 864 l 439 868 q 442 860 443 868 q 439 851 442 851 q 357 831 379 851 q 324 749 335 810 l 249 329 q 240 236 240 279 q 289 81 240 132 q 425 29 338 29 q 610 99 536 29 q 704 289 683 168 l 778 704 q 782 750 782 729 q 758 825 782 799 q 692 851 735 851 q 688 860 688 851 q 692 868 689 868 l 750 867 q 824 864 797 864 q 956 926 950 864 q 950 960 958 940 q 942 992 942 979 q 943 1004 942 1000 q 967 1045 949 1031 q 1008 1060 986 1060 q 1046 1042 1033 1060 q 1058 999 1058 1025 q 1036 930 1058 958 q 986 885 1014 901 q 913 847 958 869 q 853 802 876 832 q 814 696 829 772 l 742 282 m 581 906 q 573 902 581 903 q 564 906 565 901 q 563 929 563 914 q 569 972 563 953 q 589 1018 575 990 q 608 1060 601 1043 q 614 1097 614 1078 q 571 1143 614 1143 q 525 1132 550 1143 l 522 1131 q 515 1135 518 1131 q 515 1143 513 1140 q 622 1179 564 1179 q 690 1160 665 1179 q 714 1108 714 1140 q 696 1056 714 1081 q 643 999 678 1032 q 595 949 611 969 q 581 906 579 928 z "},"Ữ":{"ha":861,"x_min":118,"x_max":1058,"o":"m 742 282 q 619 61 717 142 q 383 -19 521 -19 q 189 45 260 -19 q 118 222 118 110 q 124 289 118 257 l 207 758 q 213 803 213 794 q 195 842 213 833 q 131 851 178 851 q 126 860 126 851 q 129 868 126 868 l 194 867 q 282 864 250 864 q 379 867 321 864 l 439 868 q 442 860 443 868 q 439 851 442 851 q 357 831 379 851 q 324 749 335 810 l 249 329 q 240 236 240 279 q 289 81 240 132 q 425 29 338 29 q 610 99 536 29 q 704 289 683 168 l 778 704 q 782 750 782 729 q 758 825 782 799 q 692 851 735 851 q 688 860 688 851 q 692 868 689 868 l 750 867 q 824 864 797 864 q 956 926 950 864 q 950 960 958 940 q 942 992 942 979 q 943 1004 942 1000 q 967 1045 949 1031 q 1008 1060 986 1060 q 1046 1042 1033 1060 q 1058 999 1058 1025 q 1036 930 1058 958 q 986 885 1014 901 q 913 847 958 869 q 853 802 876 832 q 814 696 829 772 l 742 282 m 410 989 q 403 992 406 989 q 401 999 400 996 q 533 1103 471 1103 q 601 1089 549 1103 q 704 1068 669 1068 q 749 1076 732 1068 q 786 1106 765 1085 q 789 1107 786 1107 q 794 1103 792 1107 q 796 1096 797 1099 q 729 1014 756 1035 q 669 993 703 993 q 590 1008 642 993 q 541 1021 567 1015 q 493 1026 515 1026 q 449 1019 463 1026 q 411 989 435 1011 l 410 989 z "},"Ű":{"ha":860,"x_min":118,"x_max":950,"o":"m 778 704 q 782 750 782 729 q 758 825 782 799 q 692 851 735 851 q 688 860 688 851 q 692 868 689 868 l 750 867 q 824 864 797 864 q 893 867 849 864 l 946 868 q 951 860 951 868 q 946 851 950 851 q 861 810 896 851 q 814 696 826 768 l 742 282 q 619 61 717 142 q 383 -19 521 -19 q 189 45 260 -19 q 118 222 118 110 q 124 289 118 257 l 207 758 q 213 803 213 794 q 195 842 213 833 q 131 851 178 851 q 126 860 126 851 q 129 868 126 868 l 196 867 q 283 864 251 864 q 379 867 321 864 l 439 868 q 442 860 443 868 q 439 851 442 851 q 376 842 397 851 q 343 812 354 833 q 325 749 332 790 l 250 329 q 242 233 242 278 q 290 80 242 131 q 428 29 339 29 q 611 99 538 29 q 704 289 685 168 l 778 704 m 414 925 q 408 931 408 925 q 410 942 407 938 l 465 1003 q 556 1106 533 1078 q 569 1110 558 1110 q 616 1102 588 1110 q 661 1085 644 1094 q 668 1067 678 1075 l 611 1038 q 500 980 543 1004 q 417 926 457 956 l 414 925 m 600 925 q 594 931 596 925 q 596 942 593 938 l 651 1003 q 742 1106 719 1078 q 754 1110 744 1110 q 801 1101 772 1110 q 848 1083 831 1093 q 854 1067 865 1074 q 715 998 774 1029 q 603 926 657 967 l 600 925 z "},"Ū":{"ha":860,"x_min":118,"x_max":950,"o":"m 778 704 q 782 750 782 729 q 758 825 782 799 q 692 851 735 851 q 688 860 688 851 q 692 868 689 868 l 750 867 q 824 864 797 864 q 893 867 849 864 l 946 868 q 951 860 951 868 q 946 851 950 851 q 861 810 896 851 q 814 696 826 768 l 742 282 q 619 61 717 142 q 383 -19 521 -19 q 189 45 260 -19 q 118 222 118 110 q 124 289 118 257 l 207 758 q 213 803 213 794 q 195 842 213 833 q 131 851 178 851 q 126 860 126 851 q 129 868 126 868 l 196 867 q 283 864 251 864 q 379 867 321 864 l 439 868 q 442 860 443 868 q 439 851 442 851 q 376 842 397 851 q 343 812 354 833 q 325 749 332 790 l 250 329 q 242 233 242 278 q 290 80 242 131 q 428 29 339 29 q 611 99 538 29 q 704 289 685 168 l 778 704 m 394 990 q 383 1014 383 990 q 394 1038 383 1038 l 743 1038 q 752 1031 749 1038 q 756 1014 756 1024 q 752 997 756 1004 q 743 990 749 990 l 394 990 z "},"Ų":{"ha":860,"x_min":118,"x_max":951,"o":"m 946 868 q 951 860 951 868 q 946 851 950 851 q 861 810 896 851 q 814 696 826 768 l 742 282 q 648 88 721 164 q 467 -11 575 11 q 388 -124 415 -71 q 361 -235 361 -176 q 379 -303 361 -278 q 435 -328 397 -328 q 506 -297 472 -328 l 507 -297 q 515 -302 511 -297 q 515 -310 518 -307 q 442 -365 476 -349 q 369 -382 408 -382 q 285 -351 315 -382 q 254 -268 254 -319 q 299 -149 254 -207 q 428 -17 343 -90 q 383 -19 400 -19 q 189 45 260 -19 q 118 222 118 110 q 124 289 118 257 l 207 758 q 213 803 213 794 q 195 842 213 833 q 131 851 178 851 q 126 860 126 851 q 129 868 126 868 l 196 867 q 283 864 251 864 q 379 867 321 864 l 439 868 q 442 860 443 868 q 439 851 442 851 q 376 842 397 851 q 343 812 354 833 q 325 749 332 790 l 250 329 q 242 233 242 278 q 290 80 242 131 q 428 29 339 29 q 611 99 538 29 q 704 289 685 168 l 778 704 q 782 750 782 729 q 758 825 782 799 q 692 851 735 851 q 688 860 688 851 q 692 868 689 868 l 750 867 q 824 864 797 864 q 893 867 849 864 l 946 868 z "},"Ů":{"ha":860,"x_min":118,"x_max":950,"o":"m 778 704 q 782 750 782 729 q 758 825 782 799 q 692 851 735 851 q 688 860 688 851 q 692 868 689 868 l 750 867 q 824 864 797 864 q 893 867 849 864 l 946 868 q 951 860 951 868 q 946 851 950 851 q 861 810 896 851 q 814 696 826 768 l 742 282 q 619 61 717 142 q 383 -19 521 -19 q 189 45 260 -19 q 118 222 118 110 q 124 289 118 257 l 207 758 q 213 803 213 794 q 195 842 213 833 q 131 851 178 851 q 126 860 126 851 q 129 868 126 868 l 196 867 q 283 864 251 864 q 379 867 321 864 l 439 868 q 442 860 443 868 q 439 851 442 851 q 376 842 397 851 q 343 812 354 833 q 325 749 332 790 l 250 329 q 242 233 242 278 q 290 80 242 131 q 428 29 339 29 q 611 99 538 29 q 704 289 685 168 l 778 704 m 579 922 q 480 955 517 922 q 443 1033 443 988 q 489 1112 443 1083 q 592 1140 535 1140 q 687 1108 647 1140 q 726 1029 726 1076 q 681 951 726 981 q 579 922 636 922 m 600 939 q 639 1006 639 939 q 617 1088 639 1053 q 564 1122 594 1122 q 531 1060 531 1122 q 549 976 531 1014 q 600 939 568 939 z "},"Ũ":{"ha":860,"x_min":118,"x_max":950,"o":"m 778 704 q 782 750 782 729 q 758 825 782 799 q 692 851 735 851 q 688 860 688 851 q 692 868 689 868 l 750 867 q 824 864 797 864 q 893 867 849 864 l 946 868 q 951 860 951 868 q 946 851 950 851 q 861 810 896 851 q 814 696 826 768 l 742 282 q 619 61 717 142 q 383 -19 521 -19 q 189 45 260 -19 q 118 222 118 110 q 124 289 118 257 l 207 758 q 213 803 213 794 q 195 842 213 833 q 131 851 178 851 q 126 860 126 851 q 129 868 126 868 l 196 867 q 283 864 251 864 q 379 867 321 864 l 439 868 q 442 860 443 868 q 439 851 442 851 q 376 842 397 851 q 343 812 354 833 q 325 749 332 790 l 250 329 q 242 233 242 278 q 290 80 242 131 q 428 29 339 29 q 611 99 538 29 q 704 289 685 168 l 778 704 m 411 989 q 404 992 407 989 q 403 999 401 996 q 535 1103 472 1103 q 603 1089 550 1103 q 706 1068 671 1068 q 750 1076 733 1068 q 788 1106 767 1085 q 790 1107 788 1107 q 796 1103 793 1107 q 797 1096 799 1099 q 731 1014 757 1035 q 671 993 704 993 q 592 1008 643 993 q 542 1021 568 1015 q 494 1026 517 1026 q 450 1019 464 1026 q 413 989 436 1011 l 411 989 z "},"V":{"ha":829,"x_min":97,"x_max":936,"o":"m 931 868 q 936 860 936 868 q 931 851 936 851 q 848 825 885 851 q 769 717 811 799 l 397 1 q 381 -6 393 -6 q 363 1 365 -6 l 186 753 q 155 829 174 807 q 101 851 136 851 q 97 860 97 851 q 101 868 97 868 l 163 867 q 225 864 204 864 q 328 867 269 864 l 386 868 q 390 860 390 868 q 386 851 390 851 q 326 839 347 851 q 306 796 306 826 q 310 767 306 783 l 447 169 l 731 722 q 750 788 750 761 q 726 835 750 818 q 660 851 703 851 q 656 860 656 851 q 660 868 656 868 l 719 867 q 813 864 769 864 q 874 867 838 864 l 931 868 z "},"W":{"ha":1153,"x_min":97,"x_max":1258,"o":"m 1253 868 q 1258 860 1258 868 q 1253 851 1258 851 q 1171 825 1207 851 q 1093 717 1135 799 l 719 1 q 703 -4 718 -4 q 685 1 686 -4 l 596 385 l 397 1 q 379 -4 393 -4 q 363 1 364 -4 l 186 753 q 155 829 174 807 q 101 851 136 851 q 97 860 97 851 q 101 868 97 868 l 163 867 q 225 864 204 864 q 313 867 265 864 l 363 868 q 368 860 368 868 q 363 851 368 851 q 318 838 335 851 q 301 797 301 825 q 306 767 301 783 l 446 164 l 583 435 l 510 753 q 481 831 496 810 q 436 851 467 851 q 432 860 432 851 q 436 868 432 868 l 492 867 q 549 864 531 864 q 613 867 579 864 l 650 868 q 657 860 657 868 q 650 851 657 851 q 625 847 632 851 q 618 826 618 842 q 628 767 618 815 l 674 571 l 751 722 q 783 815 783 783 q 738 851 783 851 q 735 860 735 851 q 738 868 735 868 l 775 867 q 833 864 808 864 q 885 867 854 864 l 935 868 q 939 860 939 868 q 935 851 939 851 q 864 825 896 851 q 789 717 832 799 l 686 518 l 769 163 l 1054 722 q 1075 792 1075 763 q 1057 835 1075 819 q 1003 851 1039 851 q 999 860 999 851 q 1003 868 999 868 l 1056 867 q 1136 864 1100 864 q 1196 867 1160 864 l 1253 868 z "},"Ẃ":{"ha":1153,"x_min":97,"x_max":1258,"o":"m 1253 868 q 1258 860 1258 868 q 1253 851 1258 851 q 1171 825 1207 851 q 1093 717 1135 799 l 719 1 q 703 -4 718 -4 q 685 1 686 -4 l 596 385 l 397 1 q 379 -4 393 -4 q 363 1 364 -4 l 186 753 q 155 829 174 807 q 101 851 136 851 q 97 860 97 851 q 101 868 97 868 l 163 867 q 225 864 204 864 q 313 867 265 864 l 363 868 q 368 860 368 868 q 363 851 368 851 q 318 838 335 851 q 301 797 301 825 q 306 767 301 783 l 446 164 l 583 435 l 510 753 q 481 831 496 810 q 436 851 467 851 q 432 860 432 851 q 436 868 432 868 l 492 867 q 549 864 531 864 q 613 867 579 864 l 650 868 q 657 860 657 868 q 650 851 657 851 q 625 847 632 851 q 618 826 618 842 q 628 767 618 815 l 674 571 l 751 722 q 783 815 783 783 q 738 851 783 851 q 735 860 735 851 q 738 868 735 868 l 775 867 q 833 864 808 864 q 885 867 854 864 l 935 868 q 939 860 939 868 q 935 851 939 851 q 864 825 896 851 q 789 717 832 799 l 686 518 l 769 163 l 1054 722 q 1075 792 1075 763 q 1057 835 1075 819 q 1003 851 1039 851 q 999 860 999 851 q 1003 868 999 868 l 1056 867 q 1136 864 1100 864 q 1196 867 1160 864 l 1253 868 m 607 942 q 600 948 601 942 q 603 957 599 954 q 725 1044 647 983 q 794 1097 789 1093 q 839 1092 801 1103 q 905 1067 876 1081 q 918 1050 933 1053 q 760 1003 832 1029 q 610 943 689 978 l 607 942 z "},"Ŵ":{"ha":1153,"x_min":97,"x_max":1258,"o":"m 1253 868 q 1258 860 1258 868 q 1253 851 1258 851 q 1171 825 1207 851 q 1093 717 1135 799 l 719 1 q 703 -4 718 -4 q 685 1 686 -4 l 596 385 l 397 1 q 379 -4 393 -4 q 363 1 364 -4 l 186 753 q 155 829 174 807 q 101 851 136 851 q 97 860 97 851 q 101 868 97 868 l 163 867 q 225 864 204 864 q 313 867 265 864 l 363 868 q 368 860 368 868 q 363 851 368 851 q 318 838 335 851 q 301 797 301 825 q 306 767 301 783 l 446 164 l 583 435 l 510 753 q 481 831 496 810 q 436 851 467 851 q 432 860 432 851 q 436 868 432 868 l 492 867 q 549 864 531 864 q 613 867 579 864 l 650 868 q 657 860 657 868 q 650 851 657 851 q 625 847 632 851 q 618 826 618 842 q 628 767 618 815 l 674 571 l 751 722 q 783 815 783 783 q 738 851 783 851 q 735 860 735 851 q 738 868 735 868 l 775 867 q 833 864 808 864 q 885 867 854 864 l 935 868 q 939 860 939 868 q 935 851 939 851 q 864 825 896 851 q 789 717 832 799 l 686 518 l 769 163 l 1054 722 q 1075 792 1075 763 q 1057 835 1075 819 q 1003 851 1039 851 q 999 860 999 851 q 1003 868 999 868 l 1056 867 q 1136 864 1100 864 q 1196 867 1160 864 l 1253 868 m 551 917 q 544 920 547 917 q 544 926 542 924 l 701 1078 q 714 1085 706 1085 q 726 1078 722 1085 l 839 926 l 839 925 q 835 917 839 921 q 829 917 832 914 l 701 978 l 553 917 l 551 917 z "},"Ẅ":{"ha":1153,"x_min":97,"x_max":1258,"o":"m 1253 868 q 1258 860 1258 868 q 1253 851 1258 851 q 1171 825 1207 851 q 1093 717 1135 799 l 719 1 q 703 -4 718 -4 q 685 1 686 -4 l 596 385 l 397 1 q 379 -4 393 -4 q 363 1 364 -4 l 186 753 q 155 829 174 807 q 101 851 136 851 q 97 860 97 851 q 101 868 97 868 l 163 867 q 225 864 204 864 q 313 867 265 864 l 363 868 q 368 860 368 868 q 363 851 368 851 q 318 838 335 851 q 301 797 301 825 q 306 767 301 783 l 446 164 l 583 435 l 510 753 q 481 831 496 810 q 436 851 467 851 q 432 860 432 851 q 436 868 432 868 l 492 867 q 549 864 531 864 q 613 867 579 864 l 650 868 q 657 860 657 868 q 650 851 657 851 q 625 847 632 851 q 618 826 618 842 q 628 767 618 815 l 674 571 l 751 722 q 783 815 783 783 q 738 851 783 851 q 735 860 735 851 q 738 868 735 868 l 775 867 q 833 864 808 864 q 885 867 854 864 l 935 868 q 939 860 939 868 q 935 851 939 851 q 864 825 896 851 q 789 717 832 799 l 686 518 l 769 163 l 1054 722 q 1075 792 1075 763 q 1057 835 1075 819 q 1003 851 1039 851 q 999 860 999 851 q 1003 868 999 868 l 1056 867 q 1136 864 1100 864 q 1196 867 1160 864 l 1253 868 m 603 983 q 552 1001 571 983 q 533 1053 533 1019 q 552 1101 533 1083 q 603 1119 571 1119 q 652 1102 635 1119 q 669 1053 669 1085 q 652 1001 669 1019 q 603 983 635 983 m 821 983 q 769 1001 788 983 q 750 1053 750 1019 q 769 1102 750 1085 q 821 1119 788 1119 q 869 1102 851 1119 q 886 1053 886 1085 q 869 1001 886 1019 q 821 983 853 983 z "},"Ẁ":{"ha":1153,"x_min":97,"x_max":1258,"o":"m 1253 868 q 1258 860 1258 868 q 1253 851 1258 851 q 1171 825 1207 851 q 1093 717 1135 799 l 719 1 q 703 -4 718 -4 q 685 1 686 -4 l 596 385 l 397 1 q 379 -4 393 -4 q 363 1 364 -4 l 186 753 q 155 829 174 807 q 101 851 136 851 q 97 860 97 851 q 101 868 97 868 l 163 867 q 225 864 204 864 q 313 867 265 864 l 363 868 q 368 860 368 868 q 363 851 368 851 q 318 838 335 851 q 301 797 301 825 q 306 767 301 783 l 446 164 l 583 435 l 510 753 q 481 831 496 810 q 436 851 467 851 q 432 860 432 851 q 436 868 432 868 l 492 867 q 549 864 531 864 q 613 867 579 864 l 650 868 q 657 860 657 868 q 650 851 657 851 q 625 847 632 851 q 618 826 618 842 q 628 767 618 815 l 674 571 l 751 722 q 783 815 783 783 q 738 851 783 851 q 735 860 735 851 q 738 868 735 868 l 775 867 q 833 864 808 864 q 885 867 854 864 l 935 868 q 939 860 939 868 q 935 851 939 851 q 864 825 896 851 q 789 717 832 799 l 686 518 l 769 163 l 1054 722 q 1075 792 1075 763 q 1057 835 1075 819 q 1003 851 1039 851 q 999 860 999 851 q 1003 868 999 868 l 1056 867 q 1136 864 1100 864 q 1196 867 1160 864 l 1253 868 m 806 957 q 678 1006 735 986 q 542 1050 621 1026 q 557 1068 525 1054 q 631 1092 589 1082 q 679 1096 672 1101 q 779 1003 721 1053 q 818 969 793 992 q 819 965 819 968 q 815 958 819 961 q 806 957 811 956 z "},"X":{"ha":806,"x_min":-42,"x_max":874,"o":"m 867 868 q 874 860 874 868 q 867 851 874 851 q 769 815 824 851 q 657 706 714 778 l 482 483 l 624 115 q 671 39 644 61 q 743 17 697 17 q 749 8 749 17 q 743 0 749 0 q 689 1 708 0 l 617 3 l 513 1 q 443 0 486 0 q 438 8 438 0 q 443 17 439 17 q 492 26 472 17 q 511 54 511 36 q 508 71 511 65 l 389 382 l 200 139 q 161 60 161 90 q 235 17 161 17 q 240 8 240 17 q 235 0 240 0 q 168 1 193 0 l 68 3 l 15 1 q -36 0 -1 0 q -42 8 -42 0 q -36 17 -42 17 q 62 52 8 17 q 172 160 115 88 l 375 417 l 247 753 q 203 828 228 806 q 142 851 179 851 q 138 860 138 851 q 142 868 138 868 q 192 865 158 868 l 240 864 q 347 867 281 864 l 414 868 q 418 860 418 868 q 414 851 418 851 q 374 842 389 851 q 358 815 358 833 q 363 796 358 807 l 469 518 l 629 726 q 669 808 669 779 q 596 851 669 851 q 590 860 590 851 q 596 868 590 868 l 663 867 q 764 864 724 864 q 817 867 783 864 l 867 868 z "},"Y":{"ha":740,"x_min":94,"x_max":843,"o":"m 838 868 q 843 860 843 868 q 838 851 843 851 q 651 707 749 851 l 464 432 l 407 113 q 401 68 401 76 q 421 27 401 38 q 493 17 440 17 q 497 8 497 17 q 493 0 497 0 q 428 1 451 0 l 332 3 l 235 1 q 169 0 211 0 q 164 8 164 0 q 169 17 164 17 q 238 24 215 17 q 272 51 260 31 q 290 113 283 71 l 342 418 l 200 753 q 154 828 178 806 q 100 851 131 851 q 94 860 94 851 q 100 868 94 868 l 158 867 q 221 864 200 864 q 317 867 256 864 l 381 868 q 385 861 385 868 q 379 851 385 851 q 327 844 343 851 q 311 822 311 838 q 318 796 311 813 l 453 469 l 625 729 q 653 801 653 772 q 636 838 653 825 q 590 851 619 851 q 585 860 585 851 q 590 868 585 868 l 654 867 q 744 864 710 864 q 793 867 765 864 l 838 868 z "},"Ý":{"ha":740,"x_min":94,"x_max":843,"o":"m 838 868 q 843 860 843 868 q 838 851 843 851 q 651 707 749 851 l 464 432 l 407 113 q 401 68 401 76 q 421 27 401 38 q 493 17 440 17 q 497 8 497 17 q 493 0 497 0 q 428 1 451 0 l 332 3 l 235 1 q 169 0 211 0 q 164 8 164 0 q 169 17 164 17 q 238 24 215 17 q 272 51 260 31 q 290 113 283 71 l 342 418 l 200 753 q 154 828 178 806 q 100 851 131 851 q 94 860 94 851 q 100 868 94 868 l 158 867 q 221 864 200 864 q 317 867 256 864 l 381 868 q 385 861 385 868 q 379 851 385 851 q 327 844 343 851 q 311 822 311 838 q 318 796 311 813 l 453 469 l 625 729 q 653 801 653 772 q 636 838 653 825 q 590 851 619 851 q 585 860 585 851 q 590 868 585 868 l 654 867 q 744 864 710 864 q 793 867 765 864 l 838 868 m 410 942 q 403 948 404 942 q 406 957 401 954 q 528 1044 450 983 q 597 1097 592 1093 q 642 1092 604 1103 q 708 1067 679 1081 q 721 1050 736 1053 q 563 1003 635 1029 q 413 943 492 978 l 410 942 z "},"Ŷ":{"ha":740,"x_min":94,"x_max":843,"o":"m 838 868 q 843 860 843 868 q 838 851 843 851 q 651 707 749 851 l 464 432 l 407 113 q 401 68 401 76 q 421 27 401 38 q 493 17 440 17 q 497 8 497 17 q 493 0 497 0 q 428 1 451 0 l 332 3 l 235 1 q 169 0 211 0 q 164 8 164 0 q 169 17 164 17 q 238 24 215 17 q 272 51 260 31 q 290 113 283 71 l 342 418 l 200 753 q 154 828 178 806 q 100 851 131 851 q 94 860 94 851 q 100 868 94 868 l 158 867 q 221 864 200 864 q 317 867 256 864 l 381 868 q 385 861 385 868 q 379 851 385 851 q 327 844 343 851 q 311 822 311 838 q 318 796 311 813 l 453 469 l 625 729 q 653 801 653 772 q 636 838 653 825 q 590 851 619 851 q 585 860 585 851 q 590 868 585 868 l 654 867 q 744 864 710 864 q 793 867 765 864 l 838 868 m 354 917 q 347 920 350 917 q 347 926 344 924 l 504 1078 q 517 1085 508 1085 q 529 1078 525 1085 l 642 926 l 642 925 q 638 917 642 921 q 632 917 635 914 l 504 978 l 356 917 l 354 917 z "},"Ÿ":{"ha":740,"x_min":94,"x_max":843,"o":"m 838 868 q 843 860 843 868 q 838 851 843 851 q 651 707 749 851 l 464 432 l 407 113 q 401 68 401 76 q 421 27 401 38 q 493 17 440 17 q 497 8 497 17 q 493 0 497 0 q 428 1 451 0 l 332 3 l 235 1 q 169 0 211 0 q 164 8 164 0 q 169 17 164 17 q 238 24 215 17 q 272 51 260 31 q 290 113 283 71 l 342 418 l 200 753 q 154 828 178 806 q 100 851 131 851 q 94 860 94 851 q 100 868 94 868 l 158 867 q 221 864 200 864 q 317 867 256 864 l 381 868 q 385 861 385 868 q 379 851 385 851 q 327 844 343 851 q 311 822 311 838 q 318 796 311 813 l 453 469 l 625 729 q 653 801 653 772 q 636 838 653 825 q 590 851 619 851 q 585 860 585 851 q 590 868 585 868 l 654 867 q 744 864 710 864 q 793 867 765 864 l 838 868 m 406 983 q 355 1001 374 983 q 336 1053 336 1019 q 355 1101 336 1083 q 406 1119 374 1119 q 455 1102 438 1119 q 472 1053 472 1085 q 455 1001 472 1019 q 406 983 438 983 m 624 983 q 572 1001 590 983 q 553 1053 553 1019 q 572 1102 553 1085 q 624 1119 590 1119 q 672 1102 654 1119 q 689 1053 689 1085 q 672 1001 689 1019 q 624 983 656 983 z "},"Ẏ":{"ha":740,"x_min":94,"x_max":843,"o":"m 838 868 q 843 860 843 868 q 838 851 843 851 q 651 707 749 851 l 464 432 l 407 113 q 401 68 401 76 q 421 27 401 38 q 493 17 440 17 q 497 8 497 17 q 493 0 497 0 q 428 1 451 0 l 332 3 l 235 1 q 169 0 211 0 q 164 8 164 0 q 169 17 164 17 q 238 24 215 17 q 272 51 260 31 q 290 113 283 71 l 342 418 l 200 753 q 154 828 178 806 q 100 851 131 851 q 94 860 94 851 q 100 868 94 868 l 158 867 q 221 864 200 864 q 317 867 256 864 l 381 868 q 385 861 385 868 q 379 851 385 851 q 327 844 343 851 q 311 822 311 838 q 318 796 311 813 l 453 469 l 625 729 q 653 801 653 772 q 636 838 653 825 q 590 851 619 851 q 585 860 585 851 q 590 868 585 868 l 654 867 q 744 864 710 864 q 793 867 765 864 l 838 868 m 513 989 q 460 1008 479 989 q 440 1061 440 1028 q 460 1112 440 1093 q 513 1131 479 1131 q 565 1112 546 1131 q 583 1061 583 1093 q 565 1008 583 1028 q 513 989 546 989 z "},"Ỵ":{"ha":740,"x_min":94,"x_max":843,"o":"m 838 868 q 843 860 843 868 q 838 851 843 851 q 651 707 749 851 l 464 432 l 407 113 q 401 68 401 76 q 421 27 401 38 q 493 17 440 17 q 497 8 497 17 q 493 0 497 0 q 428 1 451 0 l 332 3 l 235 1 q 169 0 211 0 q 164 8 164 0 q 169 17 164 17 q 238 24 215 17 q 272 51 260 31 q 290 113 283 71 l 342 418 l 200 753 q 154 828 178 806 q 100 851 131 851 q 94 860 94 851 q 100 868 94 868 l 158 867 q 221 864 200 864 q 317 867 256 864 l 381 868 q 385 861 385 868 q 379 851 385 851 q 327 844 343 851 q 311 822 311 838 q 318 796 311 813 l 453 469 l 625 729 q 653 801 653 772 q 636 838 653 825 q 590 851 619 851 q 585 860 585 851 q 590 868 585 868 l 654 867 q 744 864 710 864 q 793 867 765 864 l 838 868 m 311 -275 q 257 -256 276 -275 q 238 -201 238 -236 q 258 -152 238 -171 q 311 -133 278 -133 q 363 -152 344 -133 q 381 -201 381 -171 q 363 -256 381 -236 q 311 -275 344 -275 z "},"Ỳ":{"ha":740,"x_min":94,"x_max":843,"o":"m 838 868 q 843 860 843 868 q 838 851 843 851 q 651 707 749 851 l 464 432 l 407 113 q 401 68 401 76 q 421 27 401 38 q 493 17 440 17 q 497 8 497 17 q 493 0 497 0 q 428 1 451 0 l 332 3 l 235 1 q 169 0 211 0 q 164 8 164 0 q 169 17 164 17 q 238 24 215 17 q 272 51 260 31 q 290 113 283 71 l 342 418 l 200 753 q 154 828 178 806 q 100 851 131 851 q 94 860 94 851 q 100 868 94 868 l 158 867 q 221 864 200 864 q 317 867 256 864 l 381 868 q 385 861 385 868 q 379 851 385 851 q 327 844 343 851 q 311 822 311 838 q 318 796 311 813 l 453 469 l 625 729 q 653 801 653 772 q 636 838 653 825 q 590 851 619 851 q 585 860 585 851 q 590 868 585 868 l 654 867 q 744 864 710 864 q 793 867 765 864 l 838 868 m 608 957 q 481 1006 538 986 q 344 1050 424 1026 q 360 1068 328 1054 q 433 1092 392 1082 q 482 1096 475 1101 q 582 1003 524 1053 q 621 969 596 992 q 622 965 622 968 q 618 958 622 961 q 608 957 614 956 z "},"Ỷ":{"ha":740,"x_min":94,"x_max":843,"o":"m 838 868 q 843 860 843 868 q 838 851 843 851 q 651 707 749 851 l 464 432 l 407 113 q 401 68 401 76 q 421 27 401 38 q 493 17 440 17 q 497 8 497 17 q 493 0 497 0 q 428 1 451 0 l 332 3 l 235 1 q 169 0 211 0 q 164 8 164 0 q 169 17 164 17 q 238 24 215 17 q 272 51 260 31 q 290 113 283 71 l 342 418 l 200 753 q 154 828 178 806 q 100 851 131 851 q 94 860 94 851 q 100 868 94 868 l 158 867 q 221 864 200 864 q 317 867 256 864 l 381 868 q 385 861 385 868 q 379 851 385 851 q 327 844 343 851 q 311 822 311 838 q 318 796 311 813 l 453 469 l 625 729 q 653 801 653 772 q 636 838 653 825 q 590 851 619 851 q 585 860 585 851 q 590 868 585 868 l 654 867 q 744 864 710 864 q 793 867 765 864 l 838 868 m 494 906 q 487 902 494 903 q 478 906 479 901 q 476 929 476 914 q 483 972 476 953 q 503 1018 489 990 q 522 1060 515 1043 q 528 1097 528 1078 q 485 1143 528 1143 q 439 1132 464 1143 l 436 1131 q 429 1135 432 1131 q 429 1143 426 1140 q 536 1179 478 1179 q 603 1160 579 1179 q 628 1108 628 1140 q 610 1056 628 1081 q 557 999 592 1032 q 509 949 525 969 q 494 906 493 928 z "},"Ȳ":{"ha":740,"x_min":94,"x_max":843,"o":"m 838 868 q 843 860 843 868 q 838 851 843 851 q 651 707 749 851 l 464 432 l 407 113 q 401 68 401 76 q 421 27 401 38 q 493 17 440 17 q 497 8 497 17 q 493 0 497 0 q 428 1 451 0 l 332 3 l 235 1 q 169 0 211 0 q 164 8 164 0 q 169 17 164 17 q 238 24 215 17 q 272 51 260 31 q 290 113 283 71 l 342 418 l 200 753 q 154 828 178 806 q 100 851 131 851 q 94 860 94 851 q 100 868 94 868 l 158 867 q 221 864 200 864 q 317 867 256 864 l 381 868 q 385 861 385 868 q 379 851 385 851 q 327 844 343 851 q 311 822 311 838 q 318 796 311 813 l 453 469 l 625 729 q 653 801 653 772 q 636 838 653 825 q 590 851 619 851 q 585 860 585 851 q 590 868 585 868 l 654 867 q 744 864 710 864 q 793 867 765 864 l 838 868 m 354 992 q 346 999 349 992 q 343 1017 343 1007 q 346 1034 343 1026 q 354 1042 349 1042 l 676 1042 q 685 1034 682 1042 q 689 1017 689 1026 q 685 999 689 1007 q 676 992 682 992 l 354 992 z "}}}
